<svg width="250" height="250" viewBox="0 0 250 250" fill="none" xmlns="http://www.w3.org/2000/svg">
<path d="M7.79395 128.5C6.58261 126.402 6.54488 123.832 7.68067 121.704L7.79395 121.5L63.3662 25.2471C64.6166 23.0814 66.9271 21.7473 69.4278 21.7471L180.572 21.7471C183.073 21.7473 185.384 23.0814 186.634 25.2471L242.206 121.5C243.417 123.598 243.455 126.168 242.319 128.296L242.206 128.5L186.634 224.753C185.384 226.919 183.073 228.253 180.572 228.253L69.4278 228.253C66.9271 228.253 64.6166 226.919 63.3662 224.753L7.79395 128.5Z" stroke="white" stroke-width="10"/>
<path d="M63.5567 136.328L119.988 109.992C123.055 108.574 126.605 108.574 129.725 109.992L186.157 136.328C190.138 138.182 190.138 143.962 186.157 145.815L129.725 172.151C126.659 173.569 123.055 173.569 119.988 172.151L63.5567 145.815C59.5758 143.962 59.5758 138.182 63.5567 136.328Z" stroke="white" stroke-width="6"/>
<path fill-rule="evenodd" clip-rule="evenodd" d="M60.571 162.764V141.072C60.5712 142.98 61.5664 144.888 63.5567 145.815L119.988 172.151C123.055 173.569 126.659 173.569 129.725 172.151L186.157 145.815C188.147 144.888 189.143 142.98 189.143 141.071V162.764C189.143 169.096 185.375 174.804 179.402 177.451L131.88 198.521C127.413 200.493 122.3 200.493 117.834 198.521L70.3121 177.451C64.3921 174.804 60.571 169.096 60.571 162.764Z" fill="white" stroke="white" stroke-width="6"/>
<path d="M118.99 131.507C118.989 134.82 121.674 137.507 124.988 137.508C128.302 137.509 130.989 134.824 130.99 131.51L118.99 131.507ZM125 96L119 95.9983L118.99 131.507L124.99 131.508L130.99 131.51L131 96.0017L125 96Z" fill="white"/>
<path d="M150.142 71.0714C150.142 84.918 138.918 96.1429 125.071 96.1429C111.224 96.1429 99.9995 84.918 99.9995 71.0714C99.9995 57.2248 111.224 46 125.071 46C138.918 46 150.142 57.2248 150.142 71.0714Z" stroke="white" stroke-width="7"/>
<path d="M140 71C140 62.7157 133.284 56 125 56" stroke="white" stroke-width="6" stroke-linecap="round"/>
<path d="M90.5888 141.009C90.5888 142.806 87.8831 143.595 84.5454 143.595C81.2077 143.595 78.502 142.806 78.502 141.009C78.502 139.212 81.2077 137.087 84.5454 137.087C87.8831 137.087 90.5888 139.212 90.5888 141.009Z" fill="white" stroke="white" stroke-width="7"/>
<path d="M146.768 139.128C146.768 146.06 137.194 149.103 125.384 149.103C113.574 149.103 104 146.06 104 139.128C104 132.196 113.574 124 125.384 124C137.194 124 146.768 132.196 146.768 139.128Z" fill="white" stroke="white" stroke-width="7"/>
</svg>
