<svg width="250" height="250" viewBox="0 0 250 250" fill="none" xmlns="http://www.w3.org/2000/svg">
<path d="M7.79383 128.5C6.54349 126.334 6.54349 123.666 7.79383 121.5L63.3661 25.247C64.6165 23.0813 66.927 21.7472 69.4276 21.747L180.572 21.747C183.073 21.7472 185.383 23.0813 186.634 25.247L242.206 121.5C243.456 123.666 243.456 126.334 242.206 128.5L186.634 224.753C185.383 226.919 183.073 228.253 180.572 228.253L69.4276 228.253C66.927 228.253 64.6165 226.919 63.3661 224.753L7.79383 128.5Z" stroke="white" stroke-width="10"/>
<path d="M152.883 92.2583C140.727 84.1872 135.859 70.2701 132.379 59.0434M108.66 137.425L126.414 119.78M126.414 119.78L132.379 113.901C136.174 110.225 141.414 105.02 141.414 105.02L157.963 88.3249L165.884 96.2138C168.59 98.9246 167.987 100.47 167.987 104.293C167.987 108.115 166.468 111.782 163.763 114.493L150.055 128.147L181.798 159.76C184.687 162.638 185.585 165.819 185.585 169.889C185.585 173.959 185.613 175.742 182.723 178.62C179.845 181.509 178.372 181.172 174.302 181.172C170.232 181.172 167.051 180.274 164.173 177.385L132.56 145.642L118.906 159.349C116.195 162.055 112.528 163.574 108.706 163.574C104.883 163.574 103.338 164.177 100.627 161.471L92.6209 153.465L108.66 137.425M108.66 137.425C105.023 121.58 106.383 81.1185 132.379 59.0434M121.414 73.0201C121.414 73.0201 126.05 93.2672 141.414 105.02M111.414 96.0201C111.414 96.0201 115.914 111.52 126.414 119.78M78.4136 129.52C62.3154 112.252 56.4671 103.51 65.6967 90.5848C74.9264 77.66 111.414 42.0201 118.914 43.0201C125.687 43.9232 129.62 50.145 132.379 59.0434M61.9136 143.142L61.9136 149.258M73.8149 160.758L73.8149 169.258C73.8149 169.258 73.463 175.801 67.9136 175.758C62.3643 175.716 61.9136 169.258 61.9136 169.258L61.9136 149.258M61.9136 149.258C61.9136 149.258 61.4136 154.258 55.9136 154.258C50.4136 154.258 49.4136 149.258 49.4136 149.258L49.4136 118.225M95.4136 174.782L95.4136 191.02C95.4136 191.02 95.0616 198.563 87.5123 198.52C79.963 198.478 79.9136 191.02 79.9136 191.02L79.9136 182.52" stroke="white" stroke-width="9" stroke-linecap="round" stroke-linejoin="round"/>
</svg>
