<svg width="250" height="250" viewBox="0 0 250 250" fill="none" xmlns="http://www.w3.org/2000/svg">
<path d="M7.79383 128.5C6.54349 126.334 6.54349 123.666 7.79383 121.5L63.3661 25.247C64.6165 23.0813 66.927 21.7472 69.4276 21.747L180.572 21.747C183.073 21.7472 185.383 23.0813 186.634 25.247L242.206 121.5C243.456 123.666 243.456 126.334 242.206 128.5L186.634 224.753C185.383 226.919 183.073 228.253 180.572 228.253L69.4276 228.253C66.927 228.253 64.6165 226.919 63.3661 224.753L7.79383 128.5Z" stroke="white" stroke-width="10"/>
<path d="M74.952 86.6375C74.952 86.6375 98.1955 110.751 133.229 128.626C168.263 146.5 194.875 154.088 194.875 154.088M61.875 174.833C61.875 174.833 63.3157 157.1 77.0549 138.52C88.7385 122.719 106.222 112.109 106.222 112.109C124.683 123.913 132.057 129.303 156.473 139.081L155.631 150.21L174.663 174.833H61.875ZM106.112 112.269C106.112 112.269 123.46 99.4531 138.282 91.0218C153.104 82.5904 175.337 74.8335 175.337 74.8335C175.337 74.8335 163.132 100.515 160.015 118.016L156.473 137.9C156.473 137.9 150.058 138.169 130.264 126.994C121.634 122.122 106.112 112.269 106.112 112.269Z" stroke="white" stroke-width="12" stroke-linecap="round" stroke-linejoin="round"/>
</svg>
