<svg width="250" height="250" viewBox="0 0 250 250" fill="none" xmlns="http://www.w3.org/2000/svg">
<path d="M7.79383 128.5C6.54349 126.334 6.54349 123.666 7.79383 121.5L63.3661 25.247C64.6165 23.0813 66.927 21.7472 69.4276 21.747L180.572 21.747C183.073 21.7472 185.383 23.0813 186.634 25.247L242.206 121.5C243.456 123.666 243.456 126.334 242.206 128.5L186.634 224.753C185.383 226.919 183.073 228.253 180.572 228.253L69.4276 228.253C66.927 228.253 64.6165 226.919 63.3661 224.753L7.79383 128.5Z" stroke="white" stroke-width="10"/>
<path d="M99.3862 163.881C99.3862 173.336 91.6885 181 82.1929 181C72.6973 181 64.9996 173.336 64.9996 163.881C64.9996 154.427 72.6973 146.762 82.1929 146.762C91.6885 146.762 99.3862 154.427 99.3862 163.881ZM99.3862 163.881C99.3862 134.304 99.3862 91.7745 99.3862 88.1432C99.3862 84.512 99.3862 84.512 102.86 83.4745C106.333 82.437 164.748 69.0813 167.874 68.2913C171 67.5013 171 68.2913 171 70.9888C171 73.6864 171 146.727 171 146.727M171 146.727C171 156.181 163.302 163.846 153.806 163.846C144.311 163.846 136.613 156.181 136.613 146.727C136.613 137.272 144.311 129.608 153.806 129.608C163.302 129.608 171 137.272 171 146.727Z" stroke="white" stroke-width="13" stroke-linejoin="round"/>
</svg>
