<svg width="250" height="250" viewBox="0 0 250 250" fill="none" xmlns="http://www.w3.org/2000/svg">
<path d="M7.79383 128.5C6.54349 126.334 6.54349 123.666 7.79383 121.5L63.3661 25.247C64.6165 23.0813 66.927 21.7472 69.4276 21.747L180.572 21.747C183.073 21.7472 185.383 23.0813 186.634 25.247L242.206 121.5C243.456 123.666 243.456 126.334 242.206 128.5L186.634 224.753C185.383 226.919 183.073 228.253 180.572 228.253L69.4276 228.253C66.927 228.253 64.6165 226.919 63.3661 224.753L7.79383 128.5Z" stroke="white" stroke-width="10"/>
<path d="M87.9996 189C169.246 189 174.813 185.035 147.095 178.096C121.025 171.569 104.442 168.402 126.733 164.556C145.155 161.378 163.5 162.444 186 166.5" stroke="white" stroke-width="8" stroke-linecap="round"/>
<path d="M67.9996 185C70.8615 143.015 91.6997 122.118 109.02 109.618M74.7346 153.75C68.5594 75.9064 123.794 53.8256 168 61.4011C162.919 85.2863 154.618 89.2904 135.731 100.076C143.647 101.695 155.764 99.5992 154.333 106.756C152.903 113.912 145.271 124.714 133.33 133.326C117.142 145.002 98.3891 152.366 74.7346 153.75Z" stroke="white" stroke-width="12" stroke-linecap="round" stroke-linejoin="round"/>
</svg>
