<svg width="250" height="250" viewBox="0 0 250 250" fill="none" xmlns="http://www.w3.org/2000/svg">
<path d="M7.79383 128.5C6.54349 126.334 6.54349 123.666 7.79383 121.5L63.3661 25.247C64.6165 23.0813 66.927 21.7472 69.4276 21.747L180.572 21.747C183.073 21.7472 185.383 23.0813 186.634 25.247L242.206 121.5C243.456 123.666 243.456 126.334 242.206 128.5L186.634 224.753C185.383 226.919 183.073 228.253 180.572 228.253L69.4276 228.253C66.927 228.253 64.6165 226.919 63.3661 224.753L7.79383 128.5Z" stroke="white" stroke-width="10"/>
<path d="M167.15 133.4H179.05C180.628 133.4 182.141 132.773 183.257 131.657C184.373 130.541 185 129.028 185 127.45C185 125.872 184.373 124.359 183.257 123.243C182.141 122.127 180.628 121.5 179.05 121.5H167.15V115.55C167.097 112.809 166.677 110.087 165.901 107.458C171.493 105.314 176.309 101.531 179.716 96.6054C183.124 91.6795 184.966 85.8397 185 79.85C185 78.272 184.373 76.7586 183.257 75.6427C182.141 74.5269 180.628 73.9 179.05 73.9C177.472 73.9 175.959 74.5269 174.843 75.6427C173.727 76.7586 173.1 78.272 173.1 79.85C173.095 83.6868 171.853 87.4198 169.56 90.4957C167.266 93.5716 164.043 95.8266 160.367 96.9265C157.433 93.1659 153.637 90.1661 149.3 88.18C149.362 87.3879 149.362 86.5921 149.3 85.8C149.3 79.4878 146.793 73.4342 142.329 68.9709C137.866 64.5075 131.812 62 125.5 62C119.188 62 113.134 64.5075 108.671 68.9709C104.207 73.4342 101.7 79.4878 101.7 85.8C101.638 86.5921 101.638 87.3879 101.7 88.18C97.2769 90.1335 93.3965 93.1356 90.395 96.9265C86.7636 95.7845 83.5924 93.5114 81.3444 90.4393C79.0965 87.3671 77.8896 83.6567 77.9 79.85C77.9 78.272 77.2731 76.7586 76.1573 75.6427C75.0414 74.5269 73.528 73.9 71.95 73.9C70.372 73.9 68.8586 74.5269 67.7427 75.6427C66.6269 76.7586 66 78.272 66 79.85C66.0343 85.8397 67.8758 91.6795 71.2836 96.6054C74.6914 101.531 79.5067 105.314 85.0995 107.458C84.3229 110.087 83.9026 112.809 83.85 115.55V121.5H71.95C70.372 121.5 68.8586 122.127 67.7427 123.243C66.6269 124.359 66 125.872 66 127.45C66 129.028 66.6269 130.541 67.7427 131.657C68.8586 132.773 70.372 133.4 71.95 133.4H83.85V139.35C83.8551 142.108 84.1342 144.858 84.683 147.561C79.1869 149.764 74.473 153.556 71.1447 158.453C67.8164 163.35 66.0251 169.129 66 175.05C66 176.628 66.6269 178.141 67.7427 179.257C68.8586 180.373 70.372 181 71.95 181C73.528 181 75.0414 180.373 76.1573 179.257C77.2731 178.141 77.9 176.628 77.9 175.05C77.9161 171.58 78.9433 168.19 80.856 165.294C82.7687 162.399 85.484 160.123 88.6695 158.747C92.208 165.448 97.5077 171.057 103.998 174.969C110.488 178.881 117.922 180.949 125.5 180.949C133.078 180.949 140.512 178.881 147.002 174.969C153.492 171.057 158.792 165.448 162.331 158.747C165.516 160.123 168.231 162.399 170.144 165.294C172.057 168.19 173.084 171.58 173.1 175.05C173.1 176.628 173.727 178.141 174.843 179.257C175.959 180.373 177.472 181 179.05 181C180.628 181 182.141 180.373 183.257 179.257C184.373 178.141 185 176.628 185 175.05C184.975 169.129 183.184 163.35 179.855 158.453C176.527 153.556 171.813 149.764 166.317 147.561C166.866 144.858 167.145 142.108 167.15 139.35V133.4ZM119.55 168.505C112.83 167.133 106.791 163.482 102.454 158.169C98.1168 152.856 95.7486 146.208 95.75 139.35V115.55C95.75 110.816 97.6306 106.276 100.978 102.928C104.326 99.5806 108.866 97.7 113.6 97.7H119.55L119.55 168.505ZM113.6 85.8C113.6 82.6439 114.854 79.6171 117.085 77.3854C119.317 75.1537 122.344 73.9 125.5 73.9C128.656 73.9 131.683 75.1537 133.915 77.3854C136.146 79.6171 137.4 82.6439 137.4 85.8H113.6ZM155.25 139.35C155.251 146.208 152.883 152.856 148.546 158.169C144.209 163.482 138.17 167.133 131.45 168.505V97.7H137.4C142.134 97.7 146.674 99.5806 150.022 102.928C153.369 106.276 155.25 110.816 155.25 115.55V139.35Z" fill="white"/>
</svg>
