<svg width="250" height="250" viewBox="0 0 250 250" fill="none" xmlns="http://www.w3.org/2000/svg">
<path d="M7.79383 128.5C6.54349 126.334 6.54349 123.666 7.79383 121.5L63.3661 25.247C64.6165 23.0813 66.927 21.7472 69.4276 21.747L180.572 21.747C183.073 21.7472 185.383 23.0813 186.634 25.247L242.206 121.5C243.456 123.666 243.456 126.334 242.206 128.5L186.634 224.753C185.383 226.919 183.073 228.253 180.572 228.253L69.4276 228.253C66.927 228.253 64.6165 226.919 63.3661 224.753L7.79383 128.5Z" stroke="white" stroke-width="10"/>
<path d="M171.741 114.633L126.716 157.664C125.334 159.034 123.093 159.034 121.711 157.664L77.9864 114.335C76.6042 112.965 74.3633 112.965 72.9812 114.335L53.0368 134.312C51.6546 135.682 51.6545 137.903 53.0368 139.273L122.284 206.973C123.666 208.342 125.907 208.342 127.289 206.973L195.963 139.273C197.346 137.903 197.346 135.682 195.963 134.312L176.59 114.778C175.259 113.459 173.131 113.41 171.741 114.633ZM171.741 114.633C171.791 114.582 171.687 114.679 171.741 114.633ZM99.1872 135.34L88.9662 145.47M113.993 170.274L124.214 160.144C124.214 160.144 129.548 165.431 134.435 170.274M149.677 135.719L159.461 145.47M75.3598 113.309V104.353L62.2904 97.3064L69.2682 80.5127L83.1595 85.3219L96.1608 72.1982L94.0007 56.3875L105.64 51.5811L115.194 64.1204L134.063 64.0728L140.74 51L157.585 57.9562L153.103 71.9443L166.18 84.9825L181.833 82.7249L186.71 94.4647L174.03 104.019V113.751M124.968 98.5686C117.04 98.5686 110.613 104.938 110.613 112.796C110.613 120.654 117.04 127.023 124.968 127.023C132.896 127.023 139.323 120.654 139.323 112.796C139.323 104.938 132.896 98.5686 124.968 98.5686Z" stroke="white" stroke-width="9" stroke-linecap="round" stroke-linejoin="round"/>
</svg>
