<svg width="250" height="250" viewBox="0 0 250 250" fill="none" xmlns="http://www.w3.org/2000/svg">
<path d="M7.79383 128.5C6.54349 126.334 6.54349 123.666 7.79383 121.5L63.3661 25.247C64.6165 23.0813 66.927 21.7472 69.4276 21.747L180.572 21.747C183.073 21.7472 185.383 23.0813 186.634 25.247L242.206 121.5C243.456 123.666 243.456 126.334 242.206 128.5L186.634 224.753C185.383 226.919 183.073 228.253 180.572 228.253L69.4276 228.253C66.927 228.253 64.6165 226.919 63.3661 224.753L7.79383 128.5Z" stroke="white" stroke-width="10"/>
<path d="M111.169 188.602H136.123M123.914 132.484L124.04 154.362M111.957 132.484H136.123M74.1799 150.023L62.6492 159.661M58.9889 117.354H42.2169M70.511 81.5538L58.9803 71.4563M173.901 149.105L185.432 158.743M190.011 119.19H206.783M176.65 81.5538L188.181 71.4563M97.3805 43L103.147 57.2282M150.199 43L144.432 57.2282M118.238 205H129.843M81.7496 113.61C81.7496 90.3294 100.684 71.4563 124.04 71.4563C147.397 71.4563 166.331 90.3294 166.331 113.61C166.331 127.935 156.852 140.525 145.896 148.143L144.933 161.292C144.036 167.178 138.96 171.527 132.987 171.527H115.093C109.121 171.527 104.045 167.178 103.147 161.292L102.185 148.209C91.2284 140.591 81.7496 127.935 81.7496 113.61Z" stroke="white" stroke-width="10" stroke-linecap="round" stroke-linejoin="round"/>
</svg>
