<svg width="250" height="250" viewBox="0 0 250 250" fill="none" xmlns="http://www.w3.org/2000/svg">
<path d="M7.79383 128.5C6.54349 126.334 6.54349 123.666 7.79383 121.5L63.3661 25.247C64.6165 23.0813 66.927 21.7472 69.4276 21.747L180.572 21.747C183.073 21.7472 185.383 23.0813 186.634 25.247L242.206 121.5C243.456 123.666 243.456 126.334 242.206 128.5L186.634 224.753C185.383 226.919 183.073 228.253 180.572 228.253L69.4276 228.253C66.927 228.253 64.6165 226.919 63.3661 224.753L7.79383 128.5Z" stroke="white" stroke-width="10"/>
<path d="M155.917 174.707C149.755 177.972 142.667 179.833 135.123 179.833C111.399 179.833 92.166 161.45 92.166 138.773C92.166 116.096 111.399 97.7123 135.123 97.7123C157.127 97.7123 175.267 113.526 177.783 133.912M155.925 146.917L177.235 133.513L192.625 167.447L154.403 176.101L155.925 146.917ZM111.108 104.669C111.108 104.669 109.951 96.8501 93.3499 79.2181C84.1228 69.418 69.623 59.1584 63.7533 68.5287C59.5469 75.2437 69.1035 85.5881 77.6214 91.2648C101.299 107.044 111.108 104.669 111.108 104.669ZM106.038 107.853C106.038 107.853 100.712 102.028 77.1137 96.7598C63.9971 93.8316 46.2573 93.4878 46.6308 104.548C46.8984 112.475 60.5919 115.668 70.8175 115.58C99.2416 115.335 106.038 107.853 106.038 107.853Z" stroke="white" stroke-width="12" stroke-linecap="round" stroke-linejoin="round"/>
</svg>
