<svg width="197" height="149" viewBox="0 0 197 149" fill="none" xmlns="http://www.w3.org/2000/svg">
<g clip-path="url(#clip0_106_60)">
<path d="M95.5 3.5L3.5 38V40.5V44.5L32 62L99 96L193 43.5L191 35.5L103.5 5L95.5 3.5Z" fill="#878388"/>
<path d="M3.00218 40.7959C2.93529 37.9073 4.40858 34.9849 7.42205 33.5814L91.0034 4.5752C95.5452 2.47493 100.804 2.47493 105.425 4.5752L189.007 33.5814C192.02 34.9849 193.494 37.9073 193.427 40.7959" stroke="black" stroke-width="6"/>
<path fill-rule="evenodd" clip-rule="evenodd" d="M3 72.7367V40.6082C3.00016 43.4345 4.47424 46.2608 7.42208 47.6334L91.0035 92.6396C95.5452 94.7399 100.884 94.7399 105.425 92.6396L189.007 47.6334C191.955 46.2608 193.429 43.4345 193.429 40.6074V72.7367C193.429 82.1145 187.429 89.2959 179.001 95.4893L108.617 141.697C100.429 147.296 95.429 146.796 87.8122 141.697L17.4276 95.4893C9.92896 89.7959 3 82.1145 3 72.7367Z" fill="#49494A" stroke="black" stroke-width="6"/>
<path d="M47.4595 40.515C47.4595 43.1769 43.4521 44.3456 38.5086 44.3456C33.5651 44.3456 29.5576 43.1769 29.5576 40.515C29.5576 37.8531 33.5651 34.7061 38.5086 34.7061C43.4521 34.7061 47.4595 37.8531 47.4595 40.515Z" fill="#E23F38" stroke="black" stroke-width="4"/>
<path d="M130.429 41.3314C130.429 52.5746 115.878 61.7959 97.929 61.7959C79.9797 61.7959 65.429 52.5746 65.429 41.3314C65.429 30.0883 79.9797 17.7959 97.929 17.7959C115.878 17.7959 130.429 30.0883 130.429 41.3314Z" fill="#4B4B4C" stroke="black" stroke-width="7"/>
</g>
<defs>
<clipPath id="clip0_106_60">
<rect width="197" height="149" fill="white"/>
</clipPath>
</defs>
</svg>
