<svg width="587" height="342" viewBox="0 0 587 342" fill="none" xmlns="http://www.w3.org/2000/svg">
<path fill-rule="evenodd" clip-rule="evenodd" d="M570.356 241.864L570.353 241.877C570.277 242.156 570.198 242.45 570.114 242.759C570.199 242.446 570.28 242.147 570.356 241.864Z" fill="#D9D9D9"/>
<path d="M11.5834 278.87L11.4135 278.425C11.204 278.505 11.0788 278.72 11.1128 278.942C11.1468 279.163 11.3308 279.332 11.5547 279.345L11.5834 278.87ZM60.4751 333.523L60.4614 334C60.466 334 60.4706 334 60.4751 334V333.523ZM520.632 333.523V334H520.636L520.632 333.523ZM569.524 278.87L569.547 279.345C569.775 279.335 569.964 279.162 569.995 278.936C570.027 278.709 569.894 278.491 569.676 278.418L569.524 278.87ZM11.4762 278.977L11.0652 278.736C10.9641 278.909 10.9819 279.127 11.1096 279.282C11.2374 279.435 11.4479 279.493 11.6364 279.425L11.4762 278.977ZM29.0892 248.846L29.5461 248.712C29.4927 248.529 29.336 248.396 29.1473 248.373C28.9587 248.35 28.7743 248.441 28.6783 248.605L29.0892 248.846ZM31.1749 267.251L31.586 267.491C31.609 267.452 31.6263 267.409 31.6372 267.364L31.1749 267.251ZM569.487 278.863L569.328 279.312C569.515 279.378 569.722 279.322 569.851 279.17C569.978 279.018 569.999 278.804 569.902 278.63L569.487 278.863ZM551.86 247.247L552.275 247.014C552.181 246.846 551.994 246.75 551.803 246.774C551.61 246.797 551.452 246.933 551.401 247.12L551.86 247.247ZM550.138 267.289L550.604 267.188C550.6 267.172 550.596 267.156 550.59 267.14L550.138 267.289ZM142.276 80.8002C142.539 80.799 142.752 80.5848 142.751 80.3216C142.75 80.0583 142.536 79.8458 142.273 79.847L142.275 80.3236L142.276 80.8002ZM205.498 135.549C205.24 135.497 204.989 135.664 204.937 135.923C204.885 136.181 205.052 136.432 205.31 136.484L205.404 136.016L205.498 135.549ZM177.47 136.485C177.728 136.435 177.897 136.186 177.848 135.927C177.799 135.669 177.55 135.499 177.292 135.548L177.38 136.016L177.47 136.485ZM247.415 247.228L247.679 246.831C247.525 246.728 247.326 246.724 247.168 246.821C247.009 246.917 246.921 247.096 246.942 247.28L247.415 247.228ZM253.167 299.005L253.593 299.218C253.634 299.136 253.65 299.044 253.64 298.952L253.167 299.005ZM247.415 310.511L246.989 310.298C246.909 310.458 246.926 310.65 247.031 310.794C247.138 310.939 247.316 311.011 247.493 310.982L247.415 310.511ZM264.671 307.635V307.158C264.644 307.158 264.618 307.16 264.593 307.165L264.671 307.635ZM316.439 307.635L316.517 307.165C316.491 307.16 316.465 307.158 316.439 307.158V307.635ZM333.695 310.511L333.616 310.982C333.793 311.011 333.971 310.939 334.077 310.794C334.184 310.65 334.2 310.458 334.12 310.298L333.695 310.511ZM327.943 299.005L327.469 298.952C327.459 299.044 327.475 299.136 327.517 299.218L327.943 299.005ZM333.695 247.228L334.168 247.28C334.188 247.096 334.1 246.917 333.942 246.821C333.784 246.724 333.584 246.728 333.431 246.831L333.695 247.228ZM316.439 258.734V259.211C316.532 259.211 316.625 259.183 316.703 259.131L316.439 258.734ZM264.671 258.734L264.407 259.131C264.485 259.183 264.577 259.211 264.671 259.211V258.734ZM104.274 310.511L103.8 310.473C103.789 310.605 103.834 310.737 103.924 310.834C104.014 310.932 104.141 310.987 104.274 310.987V310.511ZM132.602 270.483L132.858 270.081C132.706 269.984 132.511 269.982 132.355 270.075L132.602 270.483ZM164.701 287.696L165.175 287.732C165.192 287.524 165.071 287.331 164.878 287.253L164.701 287.696ZM164.163 294.798L163.688 294.762C163.679 294.879 163.715 294.996 163.787 295.09L164.163 294.798ZM176.321 310.511V310.987C176.502 310.987 176.669 310.885 176.749 310.722C176.829 310.558 176.809 310.363 176.697 310.219L176.321 310.511ZM112.97 253.897C112.788 253.709 112.486 253.703 112.297 253.886C112.108 254.069 112.103 254.37 112.285 254.56L112.628 254.229L112.97 253.897ZM189.101 297.731C189.354 297.803 189.617 297.657 189.69 297.403C189.762 297.15 189.615 296.887 189.362 296.814L189.232 297.273L189.101 297.731ZM132.532 270.585L132.249 270.202C132.123 270.296 132.051 270.445 132.055 270.603C132.061 270.76 132.144 270.904 132.277 270.988L132.532 270.585ZM176.752 246.696L177.181 246.901C177.264 246.727 177.234 246.521 177.106 246.377C176.977 246.234 176.776 246.183 176.595 246.246L176.752 246.696ZM164.701 286.943L164.721 287.418C164.944 287.409 165.131 287.246 165.17 287.025L164.701 286.943ZM457.445 291.754L457.202 291.344C457.065 291.426 456.977 291.569 456.969 291.729L457.445 291.754ZM480.792 304.774L480.889 305.241C481.03 305.212 481.15 305.12 481.215 304.992C481.281 304.864 481.285 304.713 481.227 304.581L480.792 304.774ZM428.933 264.959L429.045 265.423C429.285 265.365 429.441 265.133 429.405 264.889L428.933 264.959ZM425.709 266.978L426.06 267.3C426.227 267.118 426.226 266.838 426.059 266.656L425.709 266.978ZM204.771 150.096L205.245 150.141C205.246 150.132 205.246 150.124 205.247 150.115L204.771 150.096ZM178.121 150.096L177.646 150.121L177.647 150.133L178.121 150.096ZM176.036 110.289L176.142 109.824C175.996 109.79 175.843 109.827 175.729 109.924C175.615 110.02 175.553 110.164 175.56 110.313L176.036 110.289ZM190.247 112.031L190.236 112.508H190.249L190.247 112.031ZM210.315 107.897L210.495 108.337L210.501 108.336L210.315 107.897ZM210.313 107.898L210.131 107.457L210.125 107.46L210.313 107.898ZM554.153 238.538L554.605 238.689L554.613 238.663L554.153 238.538ZM554.153 238.538L553.701 238.389L553.693 238.415L554.153 238.538ZM463.333 224.216V223.74L116.885 223.74V224.217V224.694L463.333 224.693V224.216ZM116.885 224.217V223.74L31.7153 223.739V224.215V224.692L116.885 224.694V224.217ZM31.7153 224.215C31.507 223.787 31.5064 223.787 31.5064 223.787L31.5055 223.788L31.5034 223.789C31.5034 223.789 31.4998 223.791 31.4974 223.792C31.4925 223.794 31.4863 223.798 31.4785 223.802C31.4628 223.809 31.4412 223.821 31.4142 223.836C31.3601 223.865 31.284 223.909 31.1894 223.967C31.0005 224.085 30.7379 224.262 30.4306 224.51C29.8161 225.004 29.0227 225.779 28.2863 226.911C26.8073 229.183 25.5885 232.848 26.4446 238.466L26.9153 238.394L27.3859 238.322C26.5621 232.916 27.7433 229.491 29.0843 227.431C29.7579 226.396 30.4795 225.694 31.0274 225.252C31.3015 225.031 31.532 224.877 31.6908 224.778C31.7702 224.729 31.8317 224.694 31.8717 224.672C31.8917 224.66 31.9062 224.653 31.9151 224.649C31.9195 224.646 31.9238 224.644 31.9238 224.644C31.9238 224.644 31.9236 224.644 31.7153 224.215ZM30.9532 267.363L30.5162 267.174C30.2865 267.706 29.8348 268.295 29.1814 268.925C28.5322 269.55 27.7075 270.194 26.763 270.84C24.874 272.131 22.5415 273.404 20.2618 274.531C17.9844 275.656 15.7714 276.631 14.1269 277.323C13.3049 277.67 12.6257 277.945 12.1523 278.134C11.9156 278.228 11.7304 278.301 11.6047 278.35C11.5418 278.375 11.4937 278.393 11.4616 278.406C11.4455 278.412 11.4333 278.417 11.4253 278.42C11.4212 278.422 11.4163 278.424 11.4163 278.424L11.4135 278.425C11.4135 278.425 11.4135 278.425 11.5834 278.87C11.7533 279.315 11.7536 279.315 11.7536 279.315L11.7543 279.314L11.7568 279.313C11.7568 279.313 11.7623 279.311 11.7666 279.31C11.7751 279.306 11.7877 279.302 11.8044 279.295C11.8376 279.282 11.8866 279.263 11.9506 279.239C12.0785 279.188 12.266 279.115 12.5051 279.019C12.9832 278.829 13.668 278.55 14.4962 278.202C16.152 277.504 18.3836 276.522 20.6835 275.386C22.981 274.25 25.3582 272.953 27.3 271.626C28.2709 270.963 29.1417 270.286 29.8419 269.611C30.538 268.94 31.0893 268.249 31.3902 267.552L30.9532 267.363ZM33.694 286.915L33.2226 286.983C33.4543 288.613 33.3627 290.218 33.1805 291.989C32.9996 293.749 32.7268 295.688 32.6212 297.91C32.4085 302.387 32.8676 308.046 36.0046 316.22L36.4492 316.049L36.8936 315.877C33.8041 307.828 33.3659 302.3 33.5724 297.956C33.6764 295.768 33.9424 293.889 34.1278 292.087C34.3118 290.297 34.414 288.597 34.1654 286.848L33.694 286.915ZM36.4492 316.049L36.0046 316.22C39.3177 324.852 45.4362 329.302 50.7154 331.587C53.3525 332.728 55.7819 333.331 57.553 333.648C58.439 333.807 59.1615 333.895 59.6646 333.943C59.9162 333.967 60.1131 333.981 60.2482 333.99C60.3157 333.993 60.3678 333.996 60.4037 333.997C60.4216 333.998 60.4354 333.999 60.445 333.999C60.4499 333.999 60.4537 334 60.4564 334H60.4597H60.4614C60.4614 334 60.4614 334 60.4751 333.523C60.4889 333.047 60.489 333.047 60.489 333.047H60.4874C60.4874 333.047 60.4833 333.047 60.4797 333.047C60.4725 333.047 60.4611 333.046 60.4457 333.045C60.4149 333.044 60.3678 333.042 60.3055 333.038C60.1809 333.031 59.9951 333.017 59.7551 332.994C59.2751 332.949 58.5784 332.864 57.7208 332.71C56.0047 332.402 53.6487 331.818 51.0934 330.712C45.9878 328.502 40.0933 324.215 36.8936 315.877L36.4492 316.049ZM60.4751 333.523V334H520.632V333.523V333.047H60.4751V333.523ZM520.632 333.523C520.636 334 520.636 334 520.636 334H520.638H520.641C520.643 334 520.647 334 520.651 334C520.661 334 520.674 333.999 520.691 333.999C520.725 333.998 520.775 333.997 520.839 333.994C520.966 333.989 521.153 333.979 521.392 333.96C521.869 333.922 522.555 333.848 523.4 333.704C525.091 333.418 527.423 332.852 529.994 331.735C535.145 329.497 541.251 325.05 545.095 316.24L544.659 316.049L544.222 315.857C540.49 324.412 534.584 328.702 529.615 330.86C527.127 331.941 524.873 332.488 523.241 332.765C522.426 332.903 521.768 332.973 521.317 333.01C521.09 333.028 520.916 333.037 520.8 333.042C520.741 333.044 520.697 333.046 520.668 333.046C520.654 333.047 520.643 333.047 520.637 333.047C520.634 333.047 520.63 333.047 520.63 333.047C520.63 333.047 520.629 333.047 520.632 333.523ZM544.659 316.049L545.095 316.24C548.191 309.143 548.499 303.546 548.228 298.842C548.094 296.532 547.812 294.348 547.669 292.436C547.522 290.485 547.509 288.713 547.878 287.017L547.414 286.915L546.948 286.813C546.549 288.645 546.57 290.527 546.718 292.507C546.871 294.529 547.142 296.558 547.277 298.897C547.542 303.49 547.244 308.931 544.222 315.857L544.659 316.049ZM547.414 286.915L547.878 287.017C548.216 285.471 549.621 284.174 551.733 283.107C553.824 282.049 556.494 281.274 559.145 280.712C561.79 280.153 564.392 279.811 566.335 279.608C567.305 279.507 568.11 279.442 568.672 279.402C568.952 279.381 569.172 279.367 569.321 279.358C569.395 279.354 569.453 279.35 569.491 279.348C569.51 279.347 569.524 279.346 569.534 279.346C569.538 279.346 569.541 279.345 569.544 279.345H569.547C569.547 279.345 569.547 279.345 569.524 278.87C569.501 278.393 569.501 278.393 569.501 278.393L569.496 278.394C569.496 278.394 569.49 278.394 569.485 278.394C569.475 278.395 569.459 278.396 569.439 278.397C569.399 278.399 569.341 278.402 569.264 278.406C569.112 278.416 568.888 278.43 568.603 278.45C568.033 278.491 567.218 278.558 566.237 278.66C564.274 278.864 561.637 279.211 558.948 279.78C556.264 280.348 553.502 281.144 551.303 282.256C549.125 283.358 547.381 284.831 546.948 286.813L547.414 286.915ZM554.192 238.394L554.652 238.518C555.594 235.034 554.323 231.353 552.884 228.604C552.159 227.22 551.378 226.047 550.779 225.221C550.479 224.808 550.224 224.48 550.043 224.255C549.952 224.143 549.88 224.055 549.83 223.996C549.806 223.966 549.786 223.944 549.772 223.927C549.766 223.92 549.761 223.914 549.757 223.909C549.755 223.907 549.753 223.904 549.753 223.904L549.751 223.903C549.751 223.903 549.751 223.903 549.392 224.215C549.033 224.529 549.033 224.529 549.033 224.529L549.036 224.533C549.039 224.535 549.044 224.54 549.05 224.547C549.061 224.56 549.078 224.581 549.101 224.609C549.147 224.663 549.214 224.745 549.301 224.852C549.473 225.066 549.718 225.382 550.009 225.781C550.589 226.581 551.342 227.713 552.041 229.047C553.448 231.735 554.578 235.142 553.732 238.269L554.192 238.394ZM11.4762 278.977L11.8871 279.218L29.5002 249.087L29.0892 248.846L28.6783 248.605L11.0652 278.736L11.4762 278.977ZM237.717 80.3897V80.8663H451.699V80.3897V79.9131H237.717V80.3897ZM451.699 80.3897V80.8663C455.098 80.8663 458.439 81.7466 461.397 83.4216L461.631 83.0068L461.866 82.592C458.765 80.836 455.262 79.9131 451.699 79.9131V80.3897ZM461.631 83.0068L461.397 83.4216C464.355 85.0966 466.828 87.5092 468.577 90.4242L468.985 90.1789L469.393 89.9336C467.56 86.8773 464.966 84.3481 461.866 82.592L461.631 83.0068ZM468.985 90.1789L468.577 90.4242L548.984 224.461L549.392 224.215L549.8 223.97L469.393 89.9336L468.985 90.1789ZM549.392 224.215V223.739L463.333 223.74V224.216V224.693L549.392 224.692V224.215ZM31.7153 224.215L32.1235 224.461L111.81 91.6257L111.402 91.3803L110.993 91.1349L31.307 223.97L31.7153 224.215ZM111.402 91.3803L111.81 91.6257C113.579 88.677 116.593 85.9576 120.053 83.9782C123.512 81.9987 127.371 80.7856 130.805 80.8002L130.807 80.3236L130.809 79.847C127.166 79.8315 123.144 81.1118 119.58 83.1506C116.016 85.1896 112.866 88.0136 110.993 91.1349L111.402 91.3803ZM130.807 80.3236L130.805 80.8002C133.666 80.8122 136.534 80.8122 138.686 80.8092C139.762 80.8077 140.66 80.8054 141.289 80.8035C141.603 80.8026 141.85 80.8018 142.018 80.8011C142.102 80.8008 142.167 80.8006 142.211 80.8005C142.233 80.8004 142.249 80.8003 142.26 80.8002C142.265 80.8002 142.27 80.8002 142.273 80.8002H142.276C142.276 80.8002 142.276 80.8002 142.275 80.3236C142.273 79.847 142.273 79.847 142.273 79.847H142.269C142.266 79.847 142.261 79.847 142.256 79.8471C142.245 79.8471 142.229 79.8471 142.207 79.8472C142.163 79.8473 142.099 79.8476 142.015 79.8479C141.847 79.8486 141.599 79.8494 141.286 79.8503C140.658 79.8522 139.76 79.8545 138.685 79.856C136.533 79.859 133.668 79.859 130.809 79.847L130.807 80.3236ZM205.404 136.016L205.31 136.484C212.663 137.962 219.144 140.614 223.775 143.926C228.419 147.248 231.121 151.169 231.121 155.179H231.597H232.074C232.074 150.721 229.081 146.55 224.329 143.151C219.563 139.742 212.949 137.046 205.498 135.549L205.404 136.016ZM231.597 155.179H231.121C231.121 160.461 226.827 165.372 219.591 168.991C212.384 172.595 202.394 174.839 191.333 174.839V175.315V175.792C202.509 175.792 212.651 173.527 220.017 169.844C227.354 166.175 232.074 161.017 232.074 155.179H231.597ZM191.333 175.315V174.839C180.272 174.839 170.283 172.595 163.076 168.991C155.839 165.372 151.545 160.461 151.545 155.179H151.069H150.593C150.593 161.017 155.313 166.175 162.65 169.844C170.015 173.527 180.157 175.792 191.333 175.792V175.315ZM151.069 155.179H151.545C151.545 151.099 154.193 147.155 158.814 143.844C163.426 140.538 169.935 137.919 177.47 136.485L177.38 136.016L177.292 135.548C169.658 137.001 163.012 139.663 158.26 143.069C153.518 146.466 150.593 150.661 150.593 155.179H151.069ZM247.415 247.228L246.942 247.28L252.694 299.058L253.167 299.005L253.64 298.952L247.888 247.175L247.415 247.228ZM253.167 299.005L252.741 298.792L246.989 310.298L247.415 310.511L247.841 310.724L253.593 299.218L253.167 299.005ZM247.415 310.511L247.493 310.982L264.749 308.105L264.671 307.635L264.593 307.165L247.337 310.041L247.415 310.511ZM264.671 307.635V308.112H316.439V307.635V307.158H264.671V307.635ZM316.439 307.635L316.36 308.105L333.616 310.982L333.695 310.511L333.773 310.041L316.517 307.165L316.439 307.635ZM333.695 310.511L334.12 310.298L328.368 298.792L327.943 299.005L327.517 299.218L333.269 310.724L333.695 310.511ZM327.943 299.005L328.416 299.058L334.168 247.28L333.695 247.228L333.221 247.175L327.469 298.952L327.943 299.005ZM333.695 247.228L333.431 246.831L316.174 258.337L316.439 258.734L316.703 259.131L333.958 247.624L333.695 247.228ZM316.439 258.734V258.257H264.671V258.734V259.211H316.439V258.734ZM264.671 258.734L264.935 258.337L247.679 246.831L247.415 247.228L247.15 247.624L264.407 259.131L264.671 258.734ZM104.274 310.511C104.749 310.55 104.749 310.55 104.749 310.55L104.749 310.544C104.75 310.539 104.751 310.532 104.751 310.522C104.753 310.502 104.756 310.472 104.76 310.431C104.769 310.348 104.783 310.225 104.803 310.062C104.845 309.737 104.914 309.256 105.024 308.642C105.244 307.413 105.629 305.647 106.286 303.511C107.601 299.24 110.004 293.498 114.353 287.621L113.971 287.337L113.588 287.054C109.162 293.034 106.716 298.879 105.377 303.23C104.707 305.406 104.313 307.211 104.087 308.474C103.973 309.105 103.902 309.601 103.859 309.942C103.837 310.111 103.822 310.243 103.813 310.333C103.809 310.376 103.805 310.411 103.803 310.435C103.802 310.446 103.801 310.456 103.801 310.462C103.8 310.465 103.8 310.469 103.8 310.469L103.8 310.473C103.8 310.473 103.8 310.473 104.274 310.511ZM164.163 294.798L163.787 295.09L175.944 310.803L176.321 310.511L176.697 310.219L164.539 294.506L164.163 294.798ZM176.321 310.511V310.034H104.274V310.511V310.987H176.321V310.511ZM153.081 257.027L153.316 257.441C158.023 254.767 163.917 252.193 168.645 250.286C171.006 249.332 173.074 248.547 174.55 248.001C175.288 247.727 175.877 247.513 176.283 247.368C176.486 247.295 176.642 247.239 176.748 247.202C176.801 247.184 176.841 247.17 176.868 247.16C176.881 247.155 176.892 247.151 176.898 247.15C176.901 247.149 176.906 247.147 176.906 247.147L176.907 247.146C176.907 247.146 176.908 247.146 176.752 246.696C176.595 246.246 176.595 246.246 176.595 246.246L176.592 246.247C176.592 246.247 176.588 246.249 176.584 246.25C176.576 246.252 176.567 246.255 176.553 246.26C176.525 246.27 176.484 246.284 176.431 246.303C176.324 246.341 176.166 246.397 175.962 246.471C175.554 246.617 174.96 246.832 174.219 247.107C172.737 247.656 170.661 248.444 168.289 249.401C163.549 251.314 157.609 253.906 152.846 256.612L153.081 257.027ZM176.752 246.696C176.321 246.491 176.321 246.491 176.321 246.491L176.32 246.495C176.32 246.495 176.317 246.499 176.315 246.503C176.312 246.512 176.306 246.523 176.298 246.54C176.283 246.571 176.261 246.619 176.233 246.681C176.175 246.804 176.089 246.986 175.98 247.222C175.762 247.694 175.449 248.379 175.067 249.237C174.303 250.952 173.264 253.356 172.163 256.109C169.963 261.607 167.5 268.534 166.495 274.169L166.964 274.253L167.432 274.337C168.419 268.803 170.85 261.952 173.046 256.463C174.142 253.724 175.177 251.332 175.936 249.625C176.317 248.772 176.629 248.09 176.845 247.622C176.953 247.388 177.037 247.208 177.094 247.086C177.123 247.025 177.145 246.978 177.159 246.947C177.167 246.931 177.173 246.92 177.175 246.912C177.177 246.908 177.18 246.904 177.18 246.904L177.181 246.901C177.181 246.901 177.181 246.901 176.752 246.696ZM166.964 274.253L166.495 274.169L164.233 286.859L164.701 286.943L165.17 287.025L167.432 274.337L166.964 274.253ZM457.445 291.754L457.687 292.164L471.592 283.916L471.35 283.506L471.107 283.096L457.202 291.344L457.445 291.754ZM471.35 283.506L470.914 283.7L480.356 304.969L480.792 304.774L481.227 304.581L471.785 283.313L471.35 283.506ZM480.792 304.774L480.694 304.308L456.4 309.388L456.497 309.854L456.595 310.32L480.889 305.241L480.792 304.774ZM428.933 264.959C429.404 264.889 429.405 264.889 429.405 264.889L429.404 264.887V264.885L429.403 264.879C429.402 264.875 429.401 264.869 429.4 264.861C429.397 264.848 429.394 264.829 429.389 264.805C429.379 264.758 429.364 264.692 429.342 264.605C429.297 264.431 429.223 264.18 429.101 263.846C428.856 263.178 428.423 262.185 427.659 260.845C426.131 258.168 423.282 254.102 417.983 248.49L417.636 248.818L417.29 249.145C422.551 254.715 425.351 258.721 426.831 261.318C427.572 262.616 427.982 263.561 428.207 264.173C428.318 264.479 428.384 264.702 428.42 264.844C428.438 264.915 428.449 264.965 428.456 264.996C428.459 265.012 428.461 265.022 428.462 265.027C428.463 265.03 428.463 265.032 428.463 265.032V265.03C428.463 265.03 428.463 265.029 428.933 264.959ZM417.636 248.818L417.983 248.49C415.029 245.362 411.207 242.135 407.624 240.438C405.835 239.59 404.059 239.103 402.458 239.242C400.829 239.383 399.418 240.172 398.405 241.784L398.808 242.038L399.211 242.292C400.065 240.933 401.207 240.306 402.541 240.191C403.904 240.073 405.501 240.487 407.218 241.3C410.648 242.924 414.374 246.057 417.29 249.145L417.636 248.818ZM398.808 242.038L398.405 241.784C396.899 244.181 397.915 247.124 399.796 249.771C401.701 252.454 404.624 255.033 407.367 256.855L407.63 256.458L407.894 256.061C405.218 254.283 402.392 251.781 400.572 249.219C398.726 246.621 398.04 244.155 399.211 242.292L398.808 242.038ZM407.63 256.458L407.367 256.855C414.931 261.881 420.306 264.033 423.814 264.923C425.567 265.368 426.854 265.499 427.714 265.514C428.144 265.523 428.466 265.502 428.686 265.478C428.797 265.467 428.882 265.453 428.941 265.443C428.97 265.438 428.994 265.433 429.011 265.429C429.02 265.428 429.027 265.427 429.033 265.426C429.036 265.425 429.04 265.424 429.04 265.424L429.043 265.423H429.045C429.045 265.423 429.045 265.423 428.933 264.959C428.822 264.496 428.823 264.495 428.823 264.495C428.823 264.495 428.822 264.495 428.818 264.496C428.811 264.498 428.798 264.501 428.778 264.504C428.739 264.51 428.674 264.521 428.585 264.531C428.405 264.55 428.122 264.569 427.731 264.562C426.95 264.548 425.736 264.429 424.048 264C420.668 263.142 415.391 261.043 407.894 256.061L407.63 256.458ZM425.709 266.978C426.059 266.656 426.058 266.655 426.058 266.655L426.056 266.653L426.052 266.649C426.049 266.646 426.045 266.641 426.04 266.636C426.03 266.626 426.016 266.612 425.999 266.595C425.965 266.562 425.915 266.515 425.848 266.456C425.714 266.337 425.511 266.17 425.223 265.962C424.647 265.547 423.731 264.967 422.348 264.286C419.582 262.924 414.945 261.154 407.411 259.478L407.307 259.943L407.204 260.408C414.683 262.072 419.245 263.82 421.927 265.142C423.268 265.801 424.137 266.354 424.666 266.735C424.93 266.926 425.109 267.074 425.218 267.171C425.273 267.22 425.312 267.255 425.333 267.277C425.345 267.288 425.352 267.296 425.356 267.3C425.358 267.302 425.359 267.302 425.359 267.302L425.358 267.302C425.358 267.302 425.357 267.301 425.709 266.978ZM407.307 259.943L407.411 259.478C403.211 258.543 398.239 258.011 394.321 258.615C392.363 258.916 390.619 259.508 389.372 260.52C388.101 261.551 387.375 262.995 387.439 264.898L387.916 264.882L388.391 264.867C388.337 263.263 388.932 262.104 389.972 261.261C391.033 260.399 392.589 259.845 394.466 259.557C398.217 258.98 403.059 259.485 407.204 260.408L407.307 259.943ZM387.916 264.882L387.439 264.898C387.535 267.728 390.026 269.595 393.066 270.734C396.147 271.887 400.013 272.384 403.306 272.356L403.302 271.88L403.298 271.403C400.086 271.431 396.343 270.943 393.4 269.841C390.415 268.724 388.465 267.065 388.391 264.867L387.916 264.882ZM403.302 271.88L403.306 272.356C412.387 272.278 418.045 271.048 421.447 269.819C423.15 269.205 424.289 268.591 425.01 268.122C425.37 267.888 425.626 267.689 425.794 267.546C425.879 267.475 425.942 267.417 425.986 267.375C426.008 267.354 426.024 267.337 426.036 267.324C426.043 267.318 426.048 267.313 426.051 267.309C426.053 267.306 426.056 267.303 426.056 267.303L426.058 267.302L426.059 267.301C426.059 267.301 426.06 267.3 425.709 266.978C425.356 266.657 425.357 266.656 425.357 266.656L425.358 266.655C425.358 266.655 425.356 266.657 425.354 266.66C425.349 266.665 425.339 266.674 425.325 266.689C425.296 266.716 425.249 266.76 425.179 266.819C425.042 266.935 424.818 267.11 424.491 267.322C423.835 267.749 422.763 268.331 421.124 268.922C417.845 270.106 412.299 271.325 403.298 271.403L403.302 271.88ZM444.211 312.631V312.154C429.359 312.154 417.359 300.686 417.359 286.589H416.883H416.407C416.407 301.256 428.878 313.107 444.211 313.107V312.631ZM416.883 286.589H417.359C417.359 272.492 429.359 261.024 444.211 261.024V260.547V260.07C428.878 260.07 416.407 271.922 416.407 286.589H416.883ZM444.211 260.547V261.024C457.984 261.024 469.308 270.888 470.877 283.564L471.35 283.506L471.822 283.447C470.191 270.264 458.433 260.07 444.211 260.07V260.547ZM348.074 146.55H347.598C347.598 148.655 345.879 150.689 342.807 152.225C339.764 153.748 335.526 154.703 330.819 154.703V155.179V155.656C335.641 155.656 340.031 154.679 343.233 153.078C346.406 151.491 348.55 149.21 348.55 146.55H348.074ZM330.819 155.179V154.703C326.111 154.703 321.873 153.748 318.829 152.225C315.757 150.689 314.039 148.655 314.039 146.55H313.563H313.087C313.087 149.21 315.23 151.491 318.403 153.078C321.606 154.679 325.995 155.656 330.819 155.656V155.179ZM313.563 146.55H314.039C314.039 144.444 315.757 142.41 318.829 140.874C321.873 139.352 326.111 138.396 330.819 138.396V137.92V137.443C325.995 137.443 321.606 138.42 318.403 140.021C315.23 141.609 313.087 143.889 313.087 146.55H313.563ZM330.819 137.92V138.396C335.526 138.396 339.764 139.352 342.807 140.874C345.879 142.41 347.598 144.444 347.598 146.55H348.074H348.55C348.55 143.889 346.406 141.609 343.233 140.021C340.031 138.42 335.641 137.443 330.819 137.443V137.92ZM405.594 109.154H405.118C405.118 111.26 403.399 113.294 400.327 114.831C397.283 116.353 393.046 117.308 388.337 117.308V117.785V118.261C393.161 118.261 397.551 117.284 400.753 115.683C403.926 114.096 406.07 111.816 406.07 109.154H405.594ZM388.337 117.785V117.308C383.63 117.308 379.393 116.353 376.349 114.831C373.277 113.294 371.558 111.26 371.558 109.154H371.082H370.606C370.606 111.816 372.75 114.096 375.923 115.683C379.125 117.284 383.515 118.261 388.337 118.261V117.785ZM371.082 109.154H371.558C371.558 107.05 373.277 105.015 376.349 103.479C379.393 101.957 383.63 101.002 388.337 101.002V100.525V100.049C383.515 100.049 379.125 101.025 375.923 102.626C372.75 104.213 370.606 106.494 370.606 109.154H371.082ZM388.337 100.525V101.002C393.046 101.002 397.283 101.957 400.327 103.479C403.399 105.015 405.118 107.05 405.118 109.154H405.594H406.07C406.07 106.494 403.926 104.213 400.753 102.626C397.551 101.025 393.161 100.049 388.337 100.049V100.525ZM405.594 181.068H405.118C405.118 183.173 403.399 185.207 400.327 186.743C397.283 188.266 393.046 189.221 388.337 189.221V189.697V190.174C393.161 190.174 397.551 189.198 400.753 187.596C403.926 186.009 406.07 183.729 406.07 181.068H405.594ZM388.337 189.697V189.221C383.63 189.221 379.393 188.266 376.349 186.743C373.277 185.207 371.558 183.173 371.558 181.068H371.082H370.606C370.606 183.729 372.75 186.009 375.923 187.596C379.125 189.198 383.515 190.174 388.337 190.174V189.697ZM371.082 181.068H371.558C371.558 178.963 373.277 176.929 376.349 175.392C379.393 173.87 383.63 172.915 388.337 172.915V172.438V171.962C383.515 171.962 379.125 172.938 375.923 174.539C372.75 176.126 370.606 178.406 370.606 181.068H371.082ZM388.337 172.438V172.915C393.046 172.915 397.283 173.87 400.327 175.392C403.399 176.929 405.118 178.963 405.118 181.068H405.594H406.07C406.07 178.406 403.926 176.126 400.753 174.539C397.551 172.938 393.161 171.962 388.337 171.962V172.438ZM463.114 146.55H462.638C462.638 148.655 460.919 150.689 457.847 152.225C454.803 153.748 450.565 154.703 445.857 154.703V155.179V155.656C450.681 155.656 455.071 154.679 458.273 153.078C461.446 151.491 463.59 149.21 463.59 146.55H463.114ZM445.857 155.179V154.703C441.15 154.703 436.912 153.748 433.869 152.225C430.797 150.689 429.078 148.655 429.078 146.55H428.602H428.126C428.126 149.21 430.27 151.491 433.443 153.078C436.645 154.679 441.035 155.656 445.857 155.656V155.179ZM428.602 146.55H429.078C429.078 144.444 430.797 142.41 433.869 140.874C436.912 139.352 441.15 138.396 445.857 138.396V137.92V137.443C441.035 137.443 436.645 138.42 433.443 140.021C430.27 141.609 428.126 143.889 428.126 146.55H428.602ZM445.857 137.92V138.396C450.565 138.396 454.803 139.352 457.847 140.874C460.919 142.41 462.638 144.444 462.638 146.55H463.114H463.59C463.59 143.889 461.446 141.609 458.273 140.021C455.071 138.42 450.681 137.443 445.857 137.443V137.92ZM204.771 150.096C204.297 150.051 204.297 150.05 204.297 150.05L204.298 150.049C204.298 150.049 204.297 150.051 204.297 150.055C204.296 150.063 204.294 150.075 204.291 150.093C204.286 150.13 204.275 150.188 204.257 150.265C204.221 150.418 204.155 150.645 204.039 150.92C203.806 151.471 203.368 152.221 202.549 152.978C200.917 154.485 197.705 156.075 191.398 156.059L191.397 156.536L191.396 157.012C197.858 157.028 201.333 155.398 203.196 153.678C204.125 152.82 204.636 151.954 204.916 151.292C205.056 150.961 205.137 150.683 205.184 150.483C205.207 150.383 205.223 150.302 205.232 150.244C205.236 150.214 205.24 150.191 205.242 150.174C205.243 150.166 205.244 150.158 205.244 150.152C205.244 150.149 205.245 150.146 205.245 150.146V150.143V150.141C205.245 150.141 205.245 150.141 204.771 150.096ZM191.397 156.536L191.398 156.059C185.09 156.045 181.903 154.455 180.295 152.956C179.489 152.204 179.064 151.461 178.84 150.917C178.729 150.644 178.667 150.42 178.633 150.268C178.616 150.193 178.607 150.135 178.601 150.1C178.599 150.082 178.597 150.068 178.596 150.062C178.596 150.058 178.596 150.056 178.596 150.056C178.596 150.056 178.596 150.059 178.121 150.096C177.647 150.133 177.647 150.133 177.647 150.133V150.136V150.138C177.647 150.141 177.648 150.143 177.648 150.146C177.649 150.151 177.649 150.158 177.65 150.166C177.652 150.185 177.654 150.207 177.659 150.236C177.668 150.294 177.681 150.374 177.703 150.474C177.747 150.674 177.825 150.951 177.959 151.279C178.23 151.938 178.73 152.798 179.646 153.653C181.484 155.367 184.934 156.997 191.396 157.012L191.397 156.536ZM178.121 150.096L178.597 150.071C178.191 142.302 177.872 136.234 177.553 130.167C177.235 124.1 176.917 118.033 176.511 110.264L176.036 110.289L175.56 110.313C175.966 118.083 176.285 124.15 176.603 130.218C176.921 136.285 177.24 142.352 177.646 150.121L178.121 150.096ZM206.412 109.378L205.936 109.359L204.296 150.077L204.771 150.096L205.247 150.115L206.887 109.397L206.412 109.378ZM138.243 60.254H138.719C138.719 31.9217 161.682 8.95322 190.01 8.95322V8.47661V8C161.157 8 137.766 31.3945 137.766 60.254H138.243ZM190.01 8.47661V8.95322C218.338 8.95322 241.301 31.9217 241.301 60.254H241.778H242.254C242.254 31.3945 218.863 8 190.01 8V8.47661ZM179.245 110.91L179.325 110.44C178.343 110.272 177.546 110.118 176.994 110.006C176.719 109.949 176.505 109.904 176.36 109.872C176.288 109.857 176.233 109.844 176.196 109.836C176.177 109.832 176.164 109.829 176.155 109.827C176.151 109.825 176.145 109.824 176.145 109.824L176.142 109.824C176.142 109.824 176.142 109.824 176.036 110.289C175.929 110.753 175.929 110.753 175.929 110.753L175.931 110.754H175.934C175.936 110.755 175.94 110.756 175.945 110.757C175.955 110.759 175.97 110.762 175.989 110.766C176.027 110.775 176.084 110.788 176.158 110.803C176.307 110.836 176.525 110.883 176.805 110.94C177.364 111.053 178.172 111.21 179.164 111.38L179.245 110.91ZM179.245 110.91L179.343 110.444C156.134 105.534 138.719 84.9276 138.719 60.254H138.243H137.766C137.766 85.3878 155.507 106.376 179.146 111.376L179.245 110.91ZM179.245 110.91L179.164 111.38C181.88 111.846 185.996 112.419 190.236 112.508L190.247 112.031L190.256 111.555C186.081 111.466 182.016 110.903 179.325 110.44L179.245 110.91ZM190.247 112.031L190.249 112.508C195.947 112.482 201.431 111.544 206.562 109.831L206.412 109.378L206.261 108.927C201.225 110.608 195.84 111.529 190.244 111.555L190.247 112.031ZM237.717 80.3897L238.156 80.5753C240.795 74.328 242.254 67.4608 242.254 60.254H241.778H241.301C241.301 67.3309 239.869 74.0721 237.279 80.204L237.717 80.3897ZM210.315 107.897L210.133 107.457H210.131L210.313 107.898L210.494 108.338L210.495 108.337L210.315 107.897ZM206.412 109.378L206.562 109.831C207.899 109.384 209.213 108.886 210.499 108.337L210.313 107.898L210.125 107.46C208.862 107.998 207.574 108.488 206.261 108.927L206.412 109.378ZM210.315 107.897L210.501 108.336C222.935 103.027 232.893 93.0355 238.156 80.5753L237.717 80.3897L237.279 80.204C232.112 92.4366 222.335 102.247 210.127 107.459L210.315 107.897ZM241.778 60.254H241.301C241.301 81.4438 228.457 99.6343 210.127 107.459L210.315 107.897L210.501 108.336C229.168 100.367 242.254 81.8395 242.254 60.254H241.778ZM210.313 107.898L210.125 107.46C204.017 110.067 197.299 111.523 190.244 111.555L190.247 112.031L190.249 112.508C197.433 112.475 204.276 110.992 210.499 108.337L210.313 107.898ZM164.163 294.798L164.638 294.833L165.15 288.074L164.676 288.038L164.2 288.002L163.688 294.762L164.163 294.798ZM164.676 288.038L164.866 287.601C162.619 286.617 160.259 285.549 157.806 284.393L157.603 284.824L157.4 285.254C159.861 286.414 162.229 287.487 164.484 288.474L164.676 288.038ZM157.603 284.824L157.788 284.384C155.71 283.506 153.092 282.257 149.844 280.484L149.616 280.902L149.388 281.32C152.659 283.107 155.305 284.37 157.417 285.263L157.603 284.824ZM149.616 280.902L149.833 280.478C143.46 277.214 137.704 273.629 132.735 270.177L132.464 270.568L132.193 270.96C137.189 274.433 142.983 278.04 149.4 281.326L149.616 280.902ZM132.464 270.568L132.213 270.164C130.9 270.982 120.621 277.552 113.588 287.054L113.971 287.337L114.353 287.621C121.274 278.271 131.424 271.779 132.715 270.973L132.464 270.568ZM132.464 270.568L132.715 270.973C132.76 270.946 132.794 270.925 132.816 270.91C132.828 270.904 132.836 270.899 132.841 270.895C132.844 270.894 132.848 270.891 132.848 270.891L132.85 270.89C132.85 270.89 132.849 270.89 132.602 270.483C132.355 270.075 132.355 270.075 132.355 270.075L132.354 270.076L132.353 270.077C132.353 270.077 132.349 270.08 132.346 270.082C132.339 270.086 132.331 270.092 132.318 270.098C132.294 270.114 132.258 270.135 132.213 270.164L132.464 270.568ZM112.628 254.229C112.285 254.56 112.285 254.56 112.285 254.56L112.287 254.562C112.287 254.562 112.289 254.564 112.291 254.567C112.295 254.57 112.301 254.576 112.309 254.584C112.324 254.599 112.346 254.622 112.375 254.652C112.434 254.711 112.521 254.8 112.637 254.915C112.868 255.147 113.21 255.485 113.66 255.918C114.56 256.784 115.886 258.027 117.6 259.538C121.026 262.56 125.999 266.657 132.193 270.96L132.464 270.568L132.735 270.177C126.578 265.898 121.633 261.825 118.229 258.823C116.527 257.321 115.21 256.089 114.32 255.232C113.875 254.803 113.537 254.468 113.31 254.242C113.197 254.128 113.111 254.041 113.054 253.984C113.026 253.955 113.005 253.933 112.99 253.918C112.984 253.912 112.978 253.906 112.975 253.902L112.971 253.898L112.97 253.897C112.97 253.897 112.97 253.897 112.628 254.229ZM149.616 280.902L149.4 281.326C149.479 281.367 149.558 281.408 149.638 281.448L149.854 281.024L150.07 280.599C149.991 280.559 149.912 280.518 149.833 280.478L149.616 280.902ZM149.854 281.024L149.638 281.448C152.308 282.809 154.902 284.077 157.4 285.254L157.603 284.824L157.806 284.393C155.316 283.219 152.731 281.955 150.07 280.599L149.854 281.024ZM164.676 288.038L164.484 288.474C171.821 291.686 177.971 293.999 182.289 295.51C184.448 296.265 186.149 296.82 187.312 297.186C187.893 297.369 188.339 297.505 188.641 297.596C188.792 297.64 188.906 297.675 188.984 297.697C189.022 297.708 189.052 297.717 189.071 297.722C189.081 297.725 189.089 297.727 189.093 297.729C189.096 297.729 189.099 297.73 189.099 297.73L189.101 297.731C189.101 297.731 189.101 297.731 189.232 297.273C189.362 296.814 189.362 296.814 189.362 296.814C189.362 296.814 189.358 296.813 189.355 296.812C189.351 296.811 189.344 296.809 189.334 296.806C189.316 296.801 189.288 296.793 189.251 296.782C189.175 296.76 189.062 296.726 188.913 296.683C188.616 296.593 188.174 296.458 187.597 296.276C186.444 295.913 184.752 295.361 182.604 294.61C178.305 293.106 172.177 290.802 164.866 287.601L164.676 288.038ZM164.701 287.696L164.226 287.659L164.2 288.002L164.676 288.038L165.15 288.074L165.175 287.732L164.701 287.696ZM456.497 309.854L456.973 309.879L457.92 291.779L457.445 291.754L456.969 291.729L456.022 309.829L456.497 309.854ZM456.497 309.854L456.292 309.424C452.661 311.169 448.558 312.154 444.211 312.154V312.631V313.107C448.703 313.107 452.946 312.089 456.704 310.284L456.497 309.854ZM30.9532 267.363L31.3902 267.552C31.7417 266.739 31.8953 265.642 31.923 264.387C31.9509 263.122 31.8512 261.653 31.6666 260.07C31.2976 256.906 30.5837 253.244 29.8388 249.777L29.3733 249.877L28.9078 249.977C29.6515 253.439 30.3572 257.063 30.7208 260.181C30.9026 261.74 30.9975 263.161 30.9709 264.366C30.9441 265.579 30.7943 266.53 30.5162 267.174L30.9532 267.363ZM29.3733 249.877L29.8335 249.755C29.7459 249.425 29.6744 249.166 29.6246 248.987C29.5997 248.899 29.5801 248.83 29.5669 248.783C29.5602 248.761 29.5551 248.742 29.5517 248.731C29.5499 248.724 29.5485 248.72 29.5477 248.717L29.5461 248.712C29.5461 248.712 29.5461 248.712 29.0892 248.846C28.6323 248.98 28.6323 248.98 28.6323 248.98L28.6334 248.984C28.6342 248.986 28.6354 248.99 28.637 248.996C28.6402 249.007 28.6451 249.024 28.6515 249.046C28.6643 249.091 28.6833 249.158 28.7076 249.245C28.7564 249.419 28.8268 249.675 28.9132 250L29.3733 249.877ZM11.4762 278.977C11.6364 279.425 11.6364 279.425 11.6364 279.425H11.6378L11.6413 279.424C11.6443 279.423 11.6488 279.422 11.6547 279.419C11.6664 279.415 11.6838 279.408 11.7065 279.401C11.752 279.384 11.8191 279.36 11.9063 279.327L11.7415 278.88L11.5767 278.433C11.4911 278.465 11.4256 278.488 11.3816 278.505C11.3596 278.512 11.343 278.518 11.332 278.523C11.3265 278.525 11.3224 278.526 11.3197 278.527L11.3167 278.528L11.316 278.529C11.316 278.529 11.3159 278.529 11.4762 278.977ZM11.7415 278.88L11.7744 278.405C11.7218 278.401 11.6816 278.398 11.6544 278.396C11.6407 278.396 11.6303 278.395 11.6233 278.394C11.6197 278.394 11.6152 278.394 11.6152 278.394H11.613C11.613 278.394 11.6121 278.394 11.5834 278.87C11.5547 279.345 11.5547 279.345 11.5547 279.345H11.5567C11.5567 279.345 11.5606 279.345 11.5638 279.345C11.5702 279.346 11.5799 279.346 11.5929 279.347C11.6187 279.349 11.6576 279.352 11.7086 279.356L11.7415 278.88ZM31.1749 267.251L30.7637 267.011C30.0175 268.289 28.6027 269.604 26.8136 270.877C25.0339 272.144 22.9256 273.341 20.8395 274.398C16.6682 276.512 12.6272 278.045 11.5767 278.433L11.7415 278.88L11.9063 279.327C12.9708 278.934 17.0509 277.387 21.2697 275.248C23.3788 274.18 25.5328 272.958 27.3655 271.654C29.1887 270.356 30.7366 268.947 31.586 267.491L31.1749 267.251ZM11.7415 278.88L11.7086 279.356C12.6703 279.422 17.9003 279.824 22.9948 281.006C25.545 281.597 28.0318 282.377 29.9271 283.391C31.8444 284.417 33.0282 285.615 33.2226 286.983L33.694 286.915L34.1654 286.848C33.9038 285.008 32.3576 283.611 30.3762 282.551C28.3724 281.478 25.7914 280.675 23.2096 280.077C18.0401 278.878 12.7499 278.472 11.7744 278.405L11.7415 278.88ZM29.3733 249.877L28.9132 250C29.32 251.532 30.0762 254.591 30.576 257.893C31.0786 261.214 31.3094 264.706 30.7124 267.138L31.1749 267.251L31.6372 267.364C32.2826 264.736 32.0217 261.082 31.5175 257.75C31.0104 254.401 30.2447 251.303 29.8335 249.755L29.3733 249.877ZM26.9153 238.394L26.4446 238.466C26.8022 240.813 27.8948 245.261 28.9078 249.977L29.3733 249.877L29.8388 249.777C28.8133 245.003 27.738 240.632 27.3859 238.322L26.9153 238.394ZM569.14 278.737L568.983 279.187C569.153 279.246 569.271 279.287 569.33 279.307L569.482 278.855L569.635 278.404C569.578 278.385 569.464 278.346 569.296 278.287L569.14 278.737ZM569.482 278.855L569.898 278.623L552.32 247.094L551.904 247.327L551.488 247.559L569.067 279.088L569.482 278.855ZM551.904 247.327L551.44 247.218C550.16 252.688 548.959 259.016 549.066 263.539L549.542 263.528L550.018 263.516C549.914 259.129 551.087 252.907 552.367 247.436L551.904 247.327ZM549.542 263.528L549.067 263.549C549.128 264.972 549.314 266.308 549.686 267.438L550.138 267.289L550.59 267.14C550.256 266.123 550.077 264.882 550.018 263.507L549.542 263.528ZM550.138 267.289L549.673 267.39C549.68 267.424 549.689 267.457 549.696 267.49L550.158 267.373L550.62 267.257C550.614 267.233 550.609 267.21 550.604 267.188L550.138 267.289ZM550.158 267.373L549.715 267.548C550.348 269.159 551.992 270.694 553.976 272.071L554.247 271.68L554.519 271.288C552.558 269.927 551.125 268.528 550.601 267.199L550.158 267.373ZM554.247 271.68L553.982 272.076C559.093 275.487 567.22 278.543 568.976 279.185L569.14 278.737L569.303 278.29C567.537 277.644 559.513 274.622 554.511 271.283L554.247 271.68ZM569.487 278.863L569.902 278.63L569.898 278.623L569.482 278.855L569.067 279.088L569.071 279.095L569.487 278.863ZM551.904 247.327L552.32 247.094L552.275 247.014L551.86 247.247L551.444 247.479L551.488 247.559L551.904 247.327ZM550.154 267.363L550.598 267.19C550.239 266.27 550.053 265.02 550.018 263.516L549.542 263.528L549.066 263.539C549.103 265.09 549.293 266.467 549.71 267.537L550.154 267.363ZM550.158 267.373L549.696 267.49C549.903 268.305 550.457 269.097 551.193 269.848C551.935 270.603 552.899 271.353 553.982 272.076L554.247 271.68L554.511 271.283C553.457 270.58 552.552 269.871 551.872 269.179C551.187 268.481 550.766 267.833 550.62 267.257L550.158 267.373ZM569.14 278.737L568.976 279.185C569.09 279.226 569.177 279.258 569.236 279.28C569.266 279.29 569.289 279.298 569.304 279.303C569.312 279.306 569.317 279.308 569.321 279.31L569.326 279.311L569.328 279.312C569.328 279.312 569.328 279.312 569.487 278.863C569.645 278.413 569.645 278.413 569.645 278.413L569.64 278.411C569.636 278.41 569.631 278.408 569.624 278.406C569.61 278.401 569.588 278.393 569.558 278.383C569.5 278.362 569.415 278.33 569.303 278.29L569.14 278.737ZM551.86 247.247C551.401 247.12 551.401 247.12 551.401 247.12L551.4 247.122C551.4 247.122 551.399 247.125 551.398 247.128C551.397 247.132 551.395 247.139 551.392 247.149C551.387 247.168 551.38 247.194 551.37 247.231C551.351 247.303 551.323 247.409 551.287 247.546C551.215 247.821 551.114 248.219 550.993 248.719C550.751 249.718 550.432 251.121 550.122 252.738C549.504 255.966 548.916 260.08 549.067 263.549L549.542 263.528L550.018 263.507C549.872 260.152 550.443 256.126 551.058 252.918C551.364 251.319 551.68 249.931 551.919 248.944C552.038 248.45 552.138 248.056 552.208 247.786C552.244 247.652 552.271 247.548 552.29 247.478C552.299 247.443 552.306 247.417 552.311 247.399C552.314 247.391 552.315 247.384 552.317 247.38C552.317 247.377 552.318 247.375 552.318 247.375V247.374C552.318 247.374 552.318 247.374 551.86 247.247ZM569.524 278.87C569.675 278.418 569.676 278.418 569.676 278.418L569.675 278.417H569.673C569.673 278.417 569.669 278.415 569.665 278.414C569.658 278.412 569.649 278.408 569.635 278.404L569.482 278.855L569.33 279.307C569.344 279.312 569.355 279.315 569.361 279.318C569.365 279.319 569.37 279.321 569.37 279.321L569.372 279.322C569.372 279.322 569.373 279.322 569.524 278.87ZM569.14 278.737L569.296 278.287C567.459 277.647 559.545 274.779 554.519 271.288L554.247 271.68L553.976 272.071C559.123 275.645 567.156 278.549 568.983 279.187L569.14 278.737ZM550.158 267.373L550.601 267.199C550.6 267.196 550.6 267.195 550.598 267.19L550.154 267.363L549.71 267.537C549.71 267.537 549.713 267.544 549.715 267.548L550.158 267.373ZM132.639 270.506L132.383 270.909C135.62 272.977 138.334 274.742 140.882 276.34L141.135 275.936L141.387 275.532C138.843 273.937 136.143 272.179 132.895 270.105L132.639 270.506ZM141.135 275.936L140.887 276.343C143.293 277.811 145.78 279.301 147.726 280.398L147.96 279.982L148.193 279.568C146.263 278.478 143.786 276.996 141.382 275.529L141.135 275.936ZM147.96 279.982L147.726 280.398C147.726 280.398 147.728 280.399 147.73 280.401C147.73 280.401 147.735 280.403 147.738 280.404L147.971 279.989L148.205 279.573L148.201 279.571C148.201 279.571 148.196 279.569 148.193 279.568L147.96 279.982ZM147.971 279.989L147.742 280.406C151.184 282.303 154.949 284.135 159.926 286.247L160.112 285.808L160.298 285.369C155.345 283.269 151.611 281.45 148.201 279.571L147.971 279.989ZM160.112 285.808L159.952 286.256C161.63 286.858 162.802 287.148 163.564 287.29C163.945 287.359 164.224 287.392 164.413 287.407C164.507 287.414 164.579 287.417 164.63 287.418C164.656 287.419 164.676 287.419 164.691 287.419C164.698 287.419 164.705 287.419 164.71 287.419C164.713 287.418 164.716 287.418 164.716 287.418H164.719C164.719 287.418 164.721 287.418 164.701 286.943C164.681 286.466 164.682 286.466 164.682 286.466H164.684C164.684 286.466 164.685 286.466 164.682 286.466C164.677 286.466 164.666 286.466 164.65 286.466C164.618 286.465 164.565 286.463 164.488 286.456C164.335 286.445 164.088 286.416 163.737 286.352C163.033 286.222 161.911 285.945 160.272 285.359L160.112 285.808ZM153.081 257.027L152.846 256.612C143.895 261.699 133.517 269.271 132.357 270.122L132.639 270.506L132.92 270.891C134.081 270.039 144.419 262.497 153.316 257.441L153.081 257.027ZM160.112 285.808L160.272 285.359C159.547 285.1 158.723 284.78 157.788 284.384L157.603 284.824L157.417 285.263C158.367 285.664 159.209 285.991 159.952 286.256L160.112 285.808ZM141.135 275.936L141.382 275.529C139.167 274.177 137.019 272.841 135.423 271.842C134.625 271.342 133.966 270.928 133.506 270.638C133.276 270.493 133.096 270.378 132.973 270.301C132.913 270.262 132.866 270.233 132.834 270.213C132.818 270.203 132.807 270.195 132.798 270.191C132.794 270.188 132.79 270.185 132.79 270.185L132.788 270.183C132.788 270.183 132.787 270.183 132.532 270.585C132.277 270.988 132.277 270.988 132.277 270.988L132.28 270.99C132.282 270.991 132.285 270.993 132.289 270.996C132.297 271.001 132.309 271.009 132.325 271.018C132.356 271.038 132.404 271.069 132.465 271.107C132.588 271.185 132.769 271.298 132.998 271.444C133.459 271.734 134.119 272.15 134.918 272.65C136.515 273.65 138.667 274.988 140.887 276.343L141.135 275.936ZM149.616 280.902L149.844 280.484C149.315 280.195 148.768 279.891 148.205 279.573L147.971 279.989L147.738 280.404C148.305 280.724 148.855 281.03 149.388 281.32L149.616 280.902ZM132.532 270.585C132.814 270.969 132.814 270.969 132.814 270.969L132.816 270.968C132.816 270.968 132.818 270.966 132.821 270.964C132.825 270.961 132.832 270.956 132.841 270.949C132.859 270.936 132.885 270.917 132.92 270.891L132.639 270.506L132.357 270.122C132.322 270.148 132.295 270.168 132.276 270.181C132.268 270.188 132.261 270.194 132.256 270.196C132.254 270.198 132.251 270.2 132.251 270.2L132.25 270.201L132.249 270.202C132.249 270.202 132.249 270.202 132.532 270.585ZM132.602 270.483L132.346 270.885C132.359 270.893 132.37 270.9 132.383 270.909L132.639 270.506L132.895 270.105C132.884 270.097 132.871 270.089 132.858 270.081L132.602 270.483ZM141.135 275.936L140.882 276.34C143.204 277.795 145.397 279.115 147.742 280.406L147.971 279.989L148.201 279.571C145.877 278.291 143.7 276.981 141.387 275.532L141.135 275.936ZM160.112 285.808L159.926 286.247C161.352 286.852 162.879 287.479 164.524 288.138L164.701 287.696L164.878 287.253C163.237 286.597 161.718 285.971 160.298 285.369L160.112 285.808ZM569.524 278.87L569.676 278.418L569.635 278.404L569.482 278.855L569.33 279.307L569.372 279.322L569.524 278.87ZM550.158 267.373L550.602 267.2L550.598 267.19L550.154 267.363L549.71 267.537L549.714 267.546L550.158 267.373ZM554.153 238.538L554.613 238.663L554.652 238.518L554.192 238.394L553.732 238.269L553.694 238.414L554.153 238.538ZM132.602 270.483L132.346 270.885L132.383 270.909L132.639 270.506L132.895 270.105L132.858 270.081L132.602 270.483ZM554.153 238.538L554.613 238.663C554.625 238.614 554.64 238.565 554.652 238.518L554.192 238.394L553.732 238.269C553.72 238.318 553.707 238.365 553.694 238.414L554.153 238.538ZM554.153 238.538L554.604 238.69L554.605 238.689L554.153 238.538L553.702 238.388L553.701 238.389L554.153 238.538ZM554.15 238.549L553.691 238.424L553.687 238.436L554.147 238.561L554.606 238.686L554.61 238.674L554.15 238.549ZM554.147 238.561L553.687 238.436C553.616 238.702 553.54 238.983 553.46 239.278L553.92 239.402L554.38 239.527C554.459 239.232 554.535 238.952 554.606 238.686L554.147 238.561ZM553.92 239.402L554.38 239.527C554.461 239.227 554.537 238.942 554.61 238.674L554.15 238.549L553.69 238.425C553.618 238.694 553.541 238.979 553.46 239.278L553.92 239.402ZM551.904 247.327L552.367 247.436C553.077 244.404 553.816 241.619 554.38 239.527L553.92 239.402L553.46 239.278C552.895 241.373 552.153 244.171 551.44 247.218L551.904 247.327ZM554.147 238.561L554.606 238.686L554.608 238.68L554.61 238.674L554.15 238.549L553.69 238.425L553.689 238.43L553.687 238.436L554.147 238.561ZM554.15 238.549L554.61 238.674C554.61 238.674 554.611 238.668 554.612 238.664L554.153 238.538L553.693 238.415C553.693 238.415 553.692 238.421 553.69 238.425L554.15 238.549Z" fill="white"/>
<path d="M463.333 224.693V224.216V223.74M549.392 224.215V224.692L463.333 224.693L116.885 224.694L31.7153 224.692V224.215M116.885 224.694V224.217V223.74M27.3859 238.322L26.9153 238.394L26.4446 238.466M31.3902 267.552C31.7417 266.739 31.8953 265.642 31.923 264.387C31.9509 263.122 31.8512 261.653 31.6666 260.07C31.2976 256.906 30.5837 253.244 29.8388 249.777C28.8133 245.003 27.738 240.632 27.3859 238.322C26.5621 232.916 27.7433 229.491 29.0843 227.431C29.7579 226.396 30.4795 225.694 31.0274 225.252C31.3015 225.031 31.532 224.877 31.6908 224.778C31.7702 224.729 31.8317 224.694 31.8717 224.672C31.8917 224.66 31.9062 224.653 31.9151 224.649C31.9195 224.646 31.9238 224.644 31.9238 224.644L31.9248 224.643M30.5162 267.174L30.9532 267.363L31.3902 267.552M28.9078 249.977C29.6515 253.439 30.3572 257.063 30.7208 260.181C30.9026 261.74 30.9975 263.161 30.9709 264.366C30.9441 265.579 30.7943 266.53 30.5162 267.174C30.2865 267.706 29.8348 268.295 29.1814 268.925C28.5322 269.55 27.7075 270.194 26.763 270.84C24.874 272.131 22.5415 273.404 20.2618 274.531C17.9844 275.656 15.7714 276.631 14.1269 277.323C13.3049 277.67 12.6257 277.945 12.1523 278.134C11.9156 278.228 11.7304 278.301 11.6047 278.35C11.5418 278.375 11.4937 278.393 11.4616 278.406C11.4455 278.412 11.4333 278.417 11.4253 278.42C11.4212 278.422 11.4163 278.424 11.4163 278.424L11.4135 278.425C11.204 278.505 11.0788 278.72 11.1128 278.942C11.1468 279.163 11.3308 279.332 11.5547 279.345M11.5834 278.87L11.4135 278.425M11.5834 278.87L11.5547 279.345M11.5834 278.87C11.4135 278.425 11.4135 278.425 11.4135 278.425M11.5834 278.87C11.7533 279.315 11.7536 279.315 11.7536 279.315L11.7543 279.314L11.7568 279.313C11.7568 279.313 11.7623 279.311 11.7666 279.31C11.7751 279.306 11.7877 279.302 11.8044 279.295C11.8376 279.282 11.8866 279.263 11.9506 279.239C12.0785 279.188 12.266 279.115 12.5051 279.019C12.9832 278.829 13.668 278.55 14.4962 278.202C16.152 277.504 18.3836 276.522 20.6835 275.386C22.981 274.25 25.3582 272.953 27.3 271.626C28.2709 270.963 29.1417 270.286 29.8419 269.611C30.538 268.94 31.0893 268.249 31.3902 267.552M11.5834 278.87C11.6121 278.394 11.613 278.394 11.613 278.394H11.6152C11.6152 278.394 11.6197 278.394 11.6233 278.394C11.6303 278.395 11.6407 278.396 11.6544 278.396C11.6816 278.398 11.7218 278.401 11.7744 278.405M11.5834 278.87C11.5547 279.345 11.5547 279.345 11.5547 279.345M60.4614 334H60.4597H60.4564C60.4537 334 60.4499 333.999 60.445 333.999C60.4354 333.999 60.4216 333.998 60.4037 333.997C60.3678 333.996 60.3157 333.993 60.2482 333.99C60.1131 333.981 59.9162 333.967 59.6646 333.943C59.1615 333.895 58.439 333.807 57.553 333.648C55.7819 333.331 53.3525 332.728 50.7154 331.587C45.4362 329.302 39.3177 324.852 36.0046 316.22C32.8676 308.046 32.4085 302.387 32.6212 297.91C32.7268 295.688 32.9996 293.749 33.1805 291.989C33.3627 290.218 33.4543 288.613 33.2226 286.983C33.0282 285.615 31.8444 284.417 29.9271 283.391C28.0318 282.377 25.545 281.597 22.9948 281.006C17.9003 279.824 12.6703 279.422 11.7086 279.356C11.6576 279.352 11.6187 279.349 11.5929 279.347C11.5799 279.346 11.5702 279.346 11.5638 279.345C11.5606 279.345 11.5567 279.345 11.5567 279.345H11.5547M33.2226 286.983L33.694 286.915L34.1654 286.848M36.0046 316.22L36.4492 316.049L36.8936 315.877M60.4751 333.523L60.4614 334M60.4751 333.523V334M60.4751 333.523C60.4614 334 60.4614 334 60.4614 334M34.1654 286.848C34.414 288.597 34.3118 290.297 34.1278 292.087C33.9424 293.889 33.6764 295.768 33.5724 297.956C33.3659 302.3 33.8041 307.828 36.8936 315.877C40.0933 324.215 45.9878 328.502 51.0934 330.712C53.6487 331.818 56.0047 332.402 57.7208 332.71C58.5784 332.864 59.2751 332.949 59.7551 332.994C59.9951 333.017 60.1809 333.031 60.3055 333.038C60.3678 333.042 60.4149 333.044 60.4457 333.045C60.4611 333.046 60.4725 333.047 60.4797 333.047C60.4833 333.047 60.4874 333.047 60.4874 333.047H60.489C60.489 333.047 60.4889 333.047 60.4751 333.523M60.4751 333.523V333.047H520.632V333.523M60.4614 334C60.466 334 60.4706 334 60.4751 334M60.4751 334H520.632M520.632 333.523V334M520.632 333.523L520.636 334M520.632 333.523C520.636 334 520.636 334 520.636 334M520.632 333.523C520.629 333.047 520.63 333.047 520.63 333.047C520.63 333.047 520.634 333.047 520.637 333.047C520.643 333.047 520.654 333.047 520.668 333.046C520.697 333.046 520.741 333.044 520.8 333.042C520.916 333.037 521.09 333.028 521.317 333.01C521.768 332.973 522.426 332.903 523.241 332.765C524.873 332.488 527.127 331.941 529.615 330.86C534.584 328.702 540.49 324.412 544.222 315.857M520.632 334H520.636M520.636 334H520.638H520.641C520.643 334 520.647 334 520.651 334C520.661 334 520.674 333.999 520.691 333.999C520.725 333.998 520.775 333.997 520.839 333.994C520.966 333.989 521.153 333.979 521.392 333.96C521.869 333.922 522.555 333.848 523.4 333.704C525.091 333.418 527.423 332.852 529.994 331.735C535.145 329.497 541.251 325.05 545.095 316.24M545.095 316.24L544.659 316.049L544.222 315.857M545.095 316.24C548.191 309.143 548.499 303.546 548.228 298.842C548.094 296.532 547.812 294.348 547.669 292.436C547.522 290.485 547.509 288.713 547.878 287.017M569.524 278.87L569.547 279.345M569.524 278.87L569.676 278.418M569.524 278.87C569.547 279.345 569.547 279.345 569.547 279.345M544.222 315.857C547.244 308.931 547.542 303.49 547.277 298.897C547.142 296.558 546.871 294.529 546.718 292.507C546.57 290.527 546.549 288.645 546.948 286.813C547.381 284.831 549.125 283.358 551.303 282.256C553.502 281.144 556.264 280.348 558.948 279.78C561.637 279.211 564.274 278.864 566.237 278.66C567.218 278.558 568.033 278.491 568.603 278.45C568.888 278.43 569.112 278.416 569.264 278.406C569.341 278.402 569.399 278.399 569.439 278.397C569.459 278.396 569.475 278.395 569.485 278.394C569.49 278.394 569.496 278.394 569.496 278.394L569.501 278.393C569.501 278.393 569.501 278.393 569.524 278.87M569.524 278.87C569.675 278.418 569.676 278.418 569.676 278.418M569.33 279.307L569.372 279.322C569.372 279.322 569.373 279.322 569.524 278.87M569.524 278.87L569.372 279.322M569.547 279.345C569.775 279.335 569.964 279.162 569.995 278.936C570.027 278.709 569.894 278.491 569.676 278.418M569.547 279.345H569.544C569.541 279.345 569.538 279.346 569.534 279.346C569.524 279.346 569.51 279.347 569.491 279.348C569.453 279.35 569.395 279.354 569.321 279.358C569.172 279.367 568.952 279.381 568.672 279.402C568.11 279.442 567.305 279.507 566.335 279.608C564.392 279.811 561.79 280.153 559.145 280.712C556.494 281.274 553.824 282.049 551.733 283.107C549.621 284.174 548.216 285.471 547.878 287.017M569.676 278.418L569.675 278.417H569.673C569.673 278.417 569.669 278.415 569.665 278.414C569.658 278.412 569.649 278.408 569.635 278.404M569.296 278.287C569.464 278.346 569.578 278.385 569.635 278.404L569.676 278.418M11.4762 278.977L11.0652 278.736M11.4762 278.977L11.6364 279.425M11.4762 278.977L11.8871 279.218L29.5002 249.087L29.0892 248.846M11.4762 278.977C11.6364 279.425 11.6364 279.425 11.6364 279.425M11.4762 278.977C11.3159 278.529 11.316 278.529 11.316 278.529L11.3167 278.528L11.3197 278.527C11.3224 278.526 11.3265 278.525 11.332 278.523C11.343 278.518 11.3596 278.512 11.3816 278.505C11.4256 278.488 11.4911 278.465 11.5767 278.433M11.0652 278.736C10.9641 278.909 10.9819 279.127 11.1096 279.282C11.2374 279.435 11.4479 279.493 11.6364 279.425M29.5461 248.712C29.4927 248.529 29.336 248.396 29.1473 248.373C28.9587 248.35 28.7743 248.441 28.6783 248.605L11.0652 278.736M11.6364 279.425H11.6378L11.6413 279.424C11.6443 279.423 11.6488 279.422 11.6547 279.419C11.6664 279.415 11.6838 279.408 11.7065 279.401C11.752 279.384 11.8191 279.36 11.9063 279.327M29.0892 248.846L29.5461 248.712M29.0892 248.846L28.6783 248.605M29.0892 248.846C29.5461 248.712 29.5461 248.712 29.5461 248.712M29.0892 248.846C28.6323 248.98 28.6323 248.98 28.6323 248.98L28.6334 248.984C28.6342 248.986 28.6354 248.99 28.637 248.996C28.6402 249.007 28.6451 249.024 28.6515 249.046C28.6643 249.091 28.6833 249.158 28.7076 249.245C28.7564 249.419 28.8268 249.675 28.9132 250M29.5461 248.712L29.5477 248.717C29.5485 248.72 29.5499 248.724 29.5517 248.731C29.5551 248.742 29.5602 248.761 29.5669 248.783C29.5801 248.83 29.5997 248.899 29.6246 248.987C29.6744 249.166 29.7459 249.425 29.8335 249.755M31.1749 267.251L31.586 267.491M31.1749 267.251L31.6372 267.364M31.1749 267.251L30.7637 267.011C30.0175 268.289 28.6027 269.604 26.8136 270.877C25.0339 272.144 22.9256 273.341 20.8395 274.398C16.6682 276.512 12.6272 278.045 11.5767 278.433M31.1749 267.251L30.7124 267.138C31.3094 264.706 31.0786 261.214 30.576 257.893C30.0762 254.591 29.32 251.532 28.9132 250M31.586 267.491C31.609 267.452 31.6263 267.409 31.6372 267.364M31.586 267.491C30.7366 268.947 29.1887 270.356 27.3655 271.654C25.5328 272.958 23.3788 274.18 21.2697 275.248C17.0509 277.387 12.9708 278.934 11.9063 279.327M31.6372 267.364C32.2826 264.736 32.0217 261.082 31.5175 257.75C31.0104 254.401 30.2447 251.303 29.8335 249.755M569.487 278.863L569.328 279.312M569.487 278.863L569.902 278.63M551.488 247.559L569.067 279.088L569.071 279.095L569.487 278.863M569.487 278.863C569.328 279.312 569.328 279.312 569.328 279.312M569.487 278.863C569.645 278.413 569.645 278.413 569.645 278.413L569.64 278.411C569.636 278.41 569.631 278.408 569.624 278.406C569.61 278.401 569.588 278.393 569.558 278.383C569.5 278.362 569.415 278.33 569.303 278.29M569.328 279.312C569.515 279.378 569.722 279.322 569.851 279.17C569.978 279.018 569.999 278.804 569.902 278.63M550.138 267.289L549.673 267.39C549.68 267.424 549.689 267.457 549.696 267.49C549.903 268.305 550.457 269.097 551.193 269.848C551.935 270.603 552.899 271.353 553.982 272.076C559.093 275.487 567.22 278.543 568.976 279.185C569.09 279.226 569.177 279.258 569.236 279.28C569.266 279.29 569.289 279.298 569.304 279.303C569.312 279.306 569.317 279.308 569.321 279.31L569.326 279.311L569.328 279.312M552.275 247.014L552.32 247.094L569.898 278.623L569.902 278.63M551.86 247.247L552.275 247.014M551.86 247.247L551.401 247.12M551.86 247.247L551.444 247.479L551.488 247.559M551.86 247.247C551.401 247.12 551.401 247.12 551.401 247.12M550.59 267.14C550.256 266.123 550.077 264.882 550.018 263.507C549.872 260.152 550.443 256.126 551.058 252.918C551.364 251.319 551.68 249.931 551.919 248.944C552.038 248.45 552.138 248.056 552.208 247.786C552.244 247.652 552.271 247.548 552.29 247.478C552.299 247.443 552.306 247.417 552.311 247.399C552.314 247.391 552.315 247.384 552.317 247.38C552.317 247.377 552.318 247.375 552.318 247.375V247.374C552.318 247.374 552.318 247.374 551.86 247.247M552.275 247.014C552.181 246.846 551.994 246.75 551.803 246.774C551.61 246.797 551.452 246.933 551.401 247.12M551.401 247.12L551.4 247.122C551.4 247.122 551.399 247.125 551.398 247.128C551.397 247.132 551.395 247.139 551.392 247.149C551.387 247.168 551.38 247.194 551.37 247.231C551.351 247.303 551.323 247.409 551.287 247.546C551.215 247.821 551.114 248.219 550.993 248.719C550.751 249.718 550.432 251.121 550.122 252.738C549.504 255.966 548.916 260.08 549.067 263.549M550.138 267.289L550.604 267.188M550.138 267.289L550.59 267.14M550.138 267.289L549.686 267.438C549.314 266.308 549.128 264.972 549.067 263.549M550.62 267.257C550.614 267.233 550.609 267.21 550.604 267.188C550.6 267.172 550.596 267.156 550.59 267.14M237.717 80.3897L237.279 80.204M237.717 80.3897V80.8663H451.699M237.717 80.3897V79.9131H451.699M237.717 80.3897L238.156 80.5753M210.127 107.459C222.335 102.247 232.112 92.4366 237.279 80.204C239.869 74.0721 241.301 67.3309 241.301 60.254M451.699 80.8663V80.3897V79.9131M451.699 80.8663C455.098 80.8663 458.439 81.7466 461.397 83.4216M469.393 89.9336L468.985 90.1789L468.577 90.4242M469.393 89.9336C467.56 86.8773 464.966 84.3481 461.866 82.592M469.393 89.9336L549.8 223.97L549.392 224.215M111.81 91.6257L111.402 91.3803L110.993 91.1349M111.81 91.6257L32.1235 224.461L31.7153 224.215M142.273 79.847C142.536 79.8458 142.75 80.0583 142.751 80.3216C142.752 80.5848 142.539 80.799 142.276 80.8002H142.273C142.27 80.8002 142.265 80.8002 142.26 80.8002C142.249 80.8003 142.233 80.8004 142.211 80.8005C142.167 80.8006 142.102 80.8008 142.018 80.8011C141.85 80.8018 141.603 80.8026 141.289 80.8035C140.66 80.8054 139.762 80.8077 138.686 80.8092C136.534 80.8122 133.666 80.8122 130.805 80.8002C127.371 80.7856 123.512 81.9987 120.053 83.9782C116.593 85.9576 113.579 88.677 111.81 91.6257M130.805 80.8002L130.807 80.3236L130.809 79.847M142.276 80.8002L142.275 80.3236M142.276 80.8002C142.276 80.8002 142.276 80.8002 142.275 80.3236M142.273 79.847L142.275 80.3236M142.273 79.847C142.273 79.847 142.273 79.847 142.275 80.3236M142.273 79.847H142.269C142.266 79.847 142.261 79.847 142.256 79.8471C142.245 79.8471 142.229 79.8471 142.207 79.8472C142.163 79.8473 142.099 79.8476 142.015 79.8479C141.847 79.8486 141.599 79.8494 141.286 79.8503C140.658 79.8522 139.76 79.8545 138.685 79.856C136.533 79.859 133.668 79.859 130.809 79.847M232.074 155.179C232.074 150.721 229.081 146.55 224.329 143.151C219.563 139.742 212.949 137.046 205.498 135.549C205.24 135.497 204.989 135.664 204.937 135.923C204.885 136.181 205.052 136.432 205.31 136.484C212.663 137.962 219.144 140.614 223.775 143.926C228.419 147.248 231.121 151.169 231.121 155.179M205.498 135.549L205.404 136.016L205.31 136.484M151.545 155.179C151.545 151.099 154.193 147.155 158.814 143.844C163.426 140.538 169.935 137.919 177.47 136.485C177.728 136.435 177.897 136.186 177.848 135.927C177.799 135.669 177.55 135.499 177.292 135.548C169.658 137.001 163.012 139.663 158.26 143.069C153.518 146.466 150.593 150.661 150.593 155.179M177.47 136.485L177.38 136.016L177.292 135.548M247.415 247.228L247.679 246.831M247.415 247.228L246.942 247.28M247.415 310.511L247.841 310.724L253.593 299.218C253.634 299.136 253.65 299.044 253.64 298.952L247.888 247.175L247.415 247.228M247.415 247.228L247.15 247.624L264.407 259.131M247.679 246.831C247.525 246.728 247.326 246.724 247.168 246.821C247.009 246.917 246.921 247.096 246.942 247.28M247.679 246.831L264.935 258.337L264.671 258.734M246.942 247.28L252.694 299.058L253.167 299.005M253.167 299.005L253.593 299.218M253.167 299.005L253.64 298.952M253.167 299.005L252.741 298.792L246.989 310.298M247.415 310.511L246.989 310.298M247.415 310.511L247.493 310.982M247.415 310.511L247.337 310.041L264.593 307.165M246.989 310.298C246.909 310.458 246.926 310.65 247.031 310.794C247.138 310.939 247.316 311.011 247.493 310.982M247.493 310.982L264.749 308.105L264.671 307.635M264.671 307.635V307.158M264.671 307.635L264.593 307.165M264.671 307.635V308.112H316.439V307.635M264.671 307.158C264.644 307.158 264.618 307.16 264.593 307.165M264.671 307.158H316.439M316.439 307.635L316.517 307.165M316.439 307.635V307.158M316.439 307.635L316.36 308.105L333.616 310.982M316.517 307.165C316.491 307.16 316.465 307.158 316.439 307.158M316.517 307.165L333.773 310.041L333.695 310.511M333.695 310.511L333.616 310.982M333.695 310.511L334.12 310.298M333.695 310.511L333.269 310.724L327.517 299.218M327.943 299.005L328.368 298.792L334.12 310.298C334.2 310.458 334.184 310.65 334.077 310.794C333.971 310.939 333.793 311.011 333.616 310.982M327.943 299.005L327.469 298.952M327.943 299.005L327.517 299.218M333.431 246.831C333.584 246.728 333.784 246.724 333.942 246.821C334.1 246.917 334.188 247.096 334.168 247.28L328.416 299.058L327.943 299.005M327.469 298.952C327.459 299.044 327.475 299.136 327.517 299.218M327.469 298.952L333.221 247.175L333.695 247.228M333.695 247.228L334.168 247.28M333.695 247.228L333.431 246.831M333.695 247.228L333.958 247.624L316.703 259.131M333.431 246.831L316.174 258.337L316.439 258.734M316.439 258.734V259.211M316.439 258.734L316.703 259.131M316.439 258.734V258.257H264.671V258.734M316.439 259.211C316.532 259.211 316.625 259.183 316.703 259.131M316.439 259.211H264.671M264.671 258.734L264.407 259.131M264.671 258.734V259.211M264.407 259.131C264.485 259.183 264.577 259.211 264.671 259.211M104.274 310.511L103.8 310.473M104.274 310.511V310.987M104.274 310.511C104.749 310.55 104.749 310.55 104.749 310.55L104.749 310.544C104.75 310.539 104.751 310.532 104.751 310.522C104.753 310.502 104.756 310.472 104.76 310.431C104.769 310.348 104.783 310.225 104.803 310.062C104.845 309.737 104.914 309.256 105.024 308.642C105.244 307.413 105.629 305.647 106.286 303.511C107.601 299.24 110.004 293.498 114.353 287.621M104.274 310.511C103.8 310.473 103.8 310.473 103.8 310.473M104.274 310.511V310.034H176.321V310.511M103.8 310.473C103.789 310.605 103.834 310.737 103.924 310.834C104.014 310.932 104.141 310.987 104.274 310.987M103.8 310.473L103.8 310.469C103.8 310.469 103.8 310.465 103.801 310.462C103.801 310.456 103.802 310.446 103.803 310.435C103.805 310.411 103.809 310.376 103.813 310.333C103.822 310.243 103.837 310.111 103.859 309.942C103.902 309.601 103.973 309.105 104.087 308.474C104.313 307.211 104.707 305.406 105.377 303.23C106.716 298.879 109.162 293.034 113.588 287.054M104.274 310.987H176.321M113.588 287.054L113.971 287.337L114.353 287.621M113.588 287.054C120.621 277.552 130.9 270.982 132.213 270.164M132.602 270.483L132.858 270.081M132.602 270.483L132.355 270.075M132.602 270.483C132.849 270.89 132.85 270.89 132.85 270.89L132.848 270.891C132.848 270.891 132.844 270.894 132.841 270.895C132.836 270.899 132.828 270.904 132.816 270.91C132.794 270.925 132.76 270.946 132.715 270.973M132.602 270.483C132.355 270.075 132.355 270.075 132.355 270.075M132.383 270.909C132.37 270.9 132.359 270.893 132.346 270.885L132.602 270.483M132.213 270.164C132.258 270.135 132.294 270.114 132.318 270.098C132.331 270.092 132.339 270.086 132.346 270.082C132.349 270.08 132.353 270.077 132.353 270.077L132.354 270.076L132.355 270.075C132.511 269.982 132.706 269.984 132.858 270.081M132.858 270.081C132.871 270.089 132.884 270.097 132.895 270.105M132.858 270.081L132.895 270.105M164.701 287.696L165.175 287.732M164.701 287.696L164.878 287.253M164.701 287.696L164.226 287.659L164.2 288.002M164.701 287.696L164.524 288.138C162.879 287.479 161.352 286.852 159.926 286.247M148.201 279.571C151.611 281.45 155.345 283.269 160.298 285.369C161.718 285.971 163.237 286.597 164.878 287.253C165.071 287.331 165.192 287.524 165.175 287.732M164.163 294.798L164.638 294.833L165.15 288.074L165.175 287.732M164.163 294.798L163.688 294.762M164.163 294.798L163.787 295.09M164.163 294.798L164.539 294.506L176.697 310.219M164.2 288.002L163.688 294.762C163.679 294.879 163.715 294.996 163.787 295.09M163.787 295.09L175.944 310.803L176.321 310.511M176.321 310.511V310.987M176.321 310.511L176.697 310.219M176.321 310.987C176.502 310.987 176.669 310.885 176.749 310.722C176.829 310.558 176.809 310.363 176.697 310.219M132.193 270.96C125.999 266.657 121.026 262.56 117.6 259.538C115.886 258.027 114.56 256.784 113.66 255.918C113.21 255.485 112.868 255.147 112.637 254.915C112.521 254.8 112.434 254.711 112.375 254.652C112.346 254.622 112.324 254.599 112.309 254.584C112.301 254.576 112.295 254.57 112.291 254.567C112.289 254.564 112.287 254.562 112.287 254.562L112.285 254.56C112.103 254.37 112.108 254.069 112.297 253.886C112.486 253.703 112.788 253.709 112.97 253.897M112.285 254.56L112.628 254.229L112.97 253.897M112.97 253.897L112.971 253.898L112.975 253.902C112.978 253.906 112.984 253.912 112.99 253.918C113.005 253.933 113.026 253.955 113.054 253.984C113.111 254.041 113.197 254.128 113.31 254.242C113.537 254.468 113.875 254.803 114.32 255.232C115.21 256.089 116.527 257.321 118.229 258.823C121.633 261.825 126.578 265.898 132.735 270.177M112.97 253.897C112.97 253.897 112.97 253.897 112.628 254.229M112.285 254.56C112.285 254.56 112.285 254.56 112.628 254.229M149.638 281.448L149.854 281.024L150.07 280.599M149.638 281.448C149.558 281.408 149.479 281.367 149.4 281.326M149.638 281.448C152.308 282.809 154.902 284.077 157.4 285.254M157.806 284.393C160.259 285.549 162.619 286.617 164.866 287.601C172.177 290.802 178.305 293.106 182.604 294.61C184.752 295.361 186.444 295.913 187.597 296.276C188.174 296.458 188.616 296.593 188.913 296.683C189.062 296.726 189.175 296.76 189.251 296.782C189.288 296.793 189.316 296.801 189.334 296.806C189.344 296.809 189.351 296.811 189.355 296.812C189.358 296.813 189.362 296.814 189.362 296.814C189.615 296.887 189.762 297.15 189.69 297.403C189.617 297.657 189.354 297.803 189.101 297.731M189.101 297.731L189.232 297.273M157.4 285.254C159.861 286.414 162.229 287.487 164.484 288.474C171.821 291.686 177.971 293.999 182.289 295.51C184.448 296.265 186.149 296.82 187.312 297.186C187.893 297.369 188.339 297.505 188.641 297.596C188.792 297.64 188.906 297.675 188.984 297.697C189.022 297.708 189.052 297.717 189.071 297.722C189.081 297.725 189.089 297.727 189.093 297.729C189.096 297.729 189.099 297.73 189.099 297.73L189.101 297.731M189.101 297.731C189.101 297.731 189.101 297.731 189.232 297.273M189.362 296.814L189.232 297.273M189.362 296.814C189.362 296.814 189.362 296.814 189.232 297.273M132.532 270.585L132.249 270.202M132.532 270.585L132.277 270.988M148.201 279.571C148.201 279.571 148.196 279.569 148.193 279.568C146.263 278.478 143.786 276.996 141.382 275.529C139.167 274.177 137.019 272.841 135.423 271.842C134.625 271.342 133.966 270.928 133.506 270.638C133.276 270.493 133.096 270.378 132.973 270.301C132.913 270.262 132.866 270.233 132.834 270.213C132.818 270.203 132.807 270.195 132.798 270.191C132.794 270.188 132.79 270.185 132.79 270.185L132.788 270.183C132.788 270.183 132.787 270.183 132.532 270.585M132.532 270.585C132.277 270.988 132.277 270.988 132.277 270.988M176.752 246.696C176.908 247.146 176.907 247.146 176.907 247.146L176.906 247.147C176.906 247.147 176.901 247.149 176.898 247.15C176.892 247.151 176.881 247.155 176.868 247.16C176.841 247.17 176.801 247.184 176.748 247.202C176.642 247.239 176.486 247.295 176.283 247.368C175.877 247.513 175.288 247.727 174.55 248.001C173.074 248.547 171.006 249.332 168.645 250.286C163.917 252.193 158.023 254.767 153.316 257.441C144.419 262.497 134.081 270.039 132.92 270.891C132.885 270.917 132.859 270.936 132.841 270.949C132.832 270.956 132.825 270.961 132.821 270.964C132.818 270.966 132.816 270.968 132.816 270.968L132.814 270.969C132.814 270.969 132.814 270.969 132.532 270.585M132.532 270.585C132.249 270.202 132.249 270.202 132.249 270.202M132.249 270.202C132.123 270.296 132.051 270.445 132.055 270.603C132.061 270.76 132.144 270.904 132.277 270.988M132.249 270.202L132.25 270.201L132.251 270.2C132.251 270.2 132.254 270.198 132.256 270.196C132.261 270.194 132.268 270.188 132.276 270.181C132.295 270.168 132.322 270.148 132.357 270.122M132.277 270.988L132.28 270.99C132.282 270.991 132.285 270.993 132.289 270.996C132.297 271.001 132.309 271.009 132.325 271.018C132.356 271.038 132.404 271.069 132.465 271.107C132.588 271.185 132.769 271.298 132.998 271.444C133.459 271.734 134.119 272.15 134.918 272.65C136.515 273.65 138.667 274.988 140.887 276.343M152.846 256.612L153.081 257.027L153.316 257.441M132.357 270.122C133.517 269.271 143.895 261.699 152.846 256.612C157.609 253.906 163.549 251.314 168.289 249.401C170.661 248.444 172.737 247.656 174.219 247.107C174.96 246.832 175.554 246.617 175.962 246.471C176.166 246.397 176.324 246.341 176.431 246.303C176.484 246.284 176.525 246.27 176.553 246.26C176.567 246.255 176.576 246.252 176.584 246.25C176.588 246.249 176.592 246.247 176.592 246.247L176.595 246.246M176.752 246.696L177.181 246.901M176.752 246.696L176.595 246.246M176.752 246.696C176.595 246.246 176.595 246.246 176.595 246.246M176.752 246.696C176.321 246.491 176.321 246.491 176.321 246.491L176.32 246.495C176.32 246.495 176.317 246.499 176.315 246.503C176.312 246.512 176.306 246.523 176.298 246.54C176.283 246.571 176.261 246.619 176.233 246.681C176.175 246.804 176.089 246.986 175.98 247.222C175.762 247.694 175.449 248.379 175.067 249.237C174.303 250.952 173.264 253.356 172.163 256.109C169.963 261.607 167.5 268.534 166.495 274.169M176.752 246.696C177.181 246.901 177.181 246.901 177.181 246.901M177.181 246.901C177.264 246.727 177.234 246.521 177.106 246.377C176.977 246.234 176.776 246.183 176.595 246.246M165.17 287.025L167.432 274.337C168.419 268.803 170.85 261.952 173.046 256.463C174.142 253.724 175.177 251.332 175.936 249.625C176.317 248.772 176.629 248.09 176.845 247.622C176.953 247.388 177.037 247.208 177.094 247.086C177.123 247.025 177.145 246.978 177.159 246.947C177.167 246.931 177.173 246.92 177.175 246.912C177.177 246.908 177.18 246.904 177.18 246.904L177.181 246.901M167.432 274.337L166.964 274.253L166.495 274.169M164.701 286.943L164.721 287.418C164.944 287.409 165.131 287.246 165.17 287.025M164.701 286.943L165.17 287.025M164.701 286.943L164.233 286.859L166.495 274.169M164.701 286.943C164.721 287.418 164.719 287.418 164.719 287.418H164.716C164.716 287.418 164.713 287.418 164.71 287.419C164.705 287.419 164.698 287.419 164.691 287.419C164.676 287.419 164.656 287.419 164.63 287.418C164.579 287.417 164.507 287.414 164.413 287.407C164.224 287.392 163.945 287.359 163.564 287.29C162.802 287.148 161.63 286.858 159.952 286.256M164.701 286.943C164.681 286.466 164.682 286.466 164.682 286.466M147.726 280.398L147.96 279.982L148.193 279.568M149.388 281.32C148.855 281.03 148.305 280.724 147.738 280.404C147.735 280.403 147.73 280.401 147.73 280.401C147.728 280.399 147.726 280.398 147.726 280.398C145.78 279.301 143.293 277.811 140.887 276.343M457.445 291.754L457.202 291.344M457.445 291.754L456.969 291.729M457.445 291.754L457.687 292.164L471.592 283.916L471.35 283.506M457.445 291.754L457.92 291.779L456.973 309.879L456.497 309.854M471.35 283.506L471.107 283.096L457.202 291.344C457.065 291.426 456.977 291.569 456.969 291.729L456.022 309.829L456.497 309.854M480.792 304.774L480.889 305.241M480.792 304.774L481.227 304.581M480.792 304.774L480.356 304.969L470.914 283.7L471.35 283.506M480.792 304.774L480.694 304.308L456.4 309.388L456.497 309.854M456.497 309.854L456.595 310.32L480.889 305.241C481.03 305.212 481.15 305.12 481.215 304.992C481.281 304.864 481.285 304.713 481.227 304.581L471.785 283.313L471.35 283.506M428.933 264.959L429.045 265.423M428.933 264.959L429.405 264.889M428.933 264.959C429.404 264.889 429.405 264.889 429.405 264.889M428.933 264.959C428.463 265.029 428.463 265.03 428.463 265.03V265.032C428.463 265.032 428.463 265.03 428.462 265.027C428.461 265.022 428.459 265.012 428.456 264.996C428.449 264.965 428.438 264.915 428.42 264.844C428.384 264.702 428.318 264.479 428.207 264.173C427.982 263.561 427.572 262.616 426.831 261.318C425.351 258.721 422.551 254.715 417.29 249.145M428.933 264.959C429.045 265.423 429.045 265.423 429.045 265.423M399.211 242.292C398.04 244.155 398.726 246.621 400.572 249.219C402.392 251.781 405.218 254.283 407.894 256.061C415.391 261.043 420.668 263.142 424.048 264C425.736 264.429 426.95 264.548 427.731 264.562C428.122 264.569 428.405 264.55 428.585 264.531C428.674 264.521 428.739 264.51 428.778 264.504C428.798 264.501 428.811 264.498 428.818 264.496C428.822 264.495 428.823 264.495 428.823 264.495C428.823 264.495 428.822 264.496 428.933 264.959M407.367 256.855C404.624 255.033 401.701 252.454 399.796 249.771C397.915 247.124 396.899 244.181 398.405 241.784C399.418 240.172 400.829 239.383 402.458 239.242C404.059 239.103 405.835 239.59 407.624 240.438C411.207 242.135 415.029 245.362 417.983 248.49C423.282 254.102 426.131 258.168 427.659 260.845C428.423 262.185 428.856 263.178 429.101 263.846C429.223 264.18 429.297 264.431 429.342 264.605C429.364 264.692 429.379 264.758 429.389 264.805C429.394 264.829 429.397 264.848 429.4 264.861C429.401 264.869 429.402 264.875 429.403 264.879L429.404 264.885V264.887L429.405 264.889C429.441 265.133 429.285 265.365 429.045 265.423M429.045 265.423H429.043L429.04 265.424C429.04 265.424 429.036 265.425 429.033 265.426C429.027 265.427 429.02 265.428 429.011 265.429C428.994 265.433 428.97 265.438 428.941 265.443C428.882 265.453 428.797 265.467 428.686 265.478C428.466 265.502 428.144 265.523 427.714 265.514C426.854 265.499 425.567 265.368 423.814 264.923C420.306 264.033 414.931 261.881 407.367 256.855M417.983 248.49L417.636 248.818L417.29 249.145M398.405 241.784L398.808 242.038L399.211 242.292M407.367 256.855L407.63 256.458L407.894 256.061M425.709 266.978L426.06 267.3C426.227 267.118 426.226 266.838 426.059 266.656L425.709 266.978ZM387.439 264.898C387.375 262.995 388.101 261.551 389.372 260.52C390.619 259.508 392.363 258.916 394.321 258.615C398.239 258.011 403.211 258.543 407.411 259.478C414.945 261.154 419.582 262.924 422.348 264.286C423.731 264.967 424.647 265.547 425.223 265.962C425.511 266.17 425.714 266.337 425.848 266.456C425.915 266.515 425.965 266.562 425.999 266.595C426.016 266.612 426.03 266.626 426.04 266.636C426.045 266.641 426.049 266.646 426.052 266.649L426.056 266.653L426.058 266.655C426.058 266.655 426.059 266.656 425.709 266.978M403.298 271.403C400.086 271.431 396.343 270.943 393.4 269.841C390.415 268.724 388.465 267.065 388.391 264.867C388.337 263.263 388.932 262.104 389.972 261.261C391.033 260.399 392.589 259.845 394.466 259.557C398.217 258.98 403.059 259.485 407.204 260.408C414.683 262.072 419.245 263.82 421.927 265.142C423.268 265.801 424.137 266.354 424.666 266.735C424.93 266.926 425.109 267.074 425.218 267.171C425.273 267.22 425.312 267.255 425.333 267.277C425.345 267.288 425.352 267.296 425.356 267.3C425.358 267.302 425.359 267.302 425.359 267.302L425.358 267.302C425.358 267.302 425.357 267.301 425.709 266.978M387.439 264.898C387.535 267.728 390.026 269.595 393.066 270.734C396.147 271.887 400.013 272.384 403.306 272.356C412.387 272.278 418.045 271.048 421.447 269.819C423.15 269.205 424.289 268.591 425.01 268.122C425.37 267.888 425.626 267.689 425.794 267.546C425.879 267.475 425.942 267.417 425.986 267.375C426.008 267.354 426.024 267.337 426.036 267.324C426.043 267.318 426.048 267.313 426.051 267.309C426.053 267.306 426.056 267.303 426.056 267.303L426.058 267.302L426.059 267.301C426.059 267.301 426.06 267.3 425.709 266.978M425.709 266.978C425.356 266.657 425.357 266.656 425.357 266.656L425.358 266.655C425.358 266.655 425.356 266.657 425.354 266.66C425.349 266.665 425.339 266.674 425.325 266.689C425.296 266.716 425.249 266.76 425.179 266.819C425.042 266.935 424.818 267.11 424.491 267.322C423.835 267.749 422.763 268.331 421.124 268.922C417.845 270.106 412.299 271.325 403.298 271.403M407.411 259.478L407.307 259.943L407.204 260.408M388.391 264.867L387.916 264.882L387.439 264.898M403.306 272.356L403.302 271.88L403.298 271.403M204.771 150.096L205.245 150.141M204.771 150.096L205.247 150.115M178.121 150.096C178.596 150.059 178.596 150.056 178.596 150.056C178.596 150.056 178.596 150.058 178.596 150.062C178.597 150.068 178.599 150.082 178.601 150.1C178.607 150.135 178.616 150.193 178.633 150.268C178.667 150.42 178.729 150.644 178.84 150.917C179.064 151.461 179.489 152.204 180.295 152.956C181.903 154.455 185.09 156.045 191.398 156.059C197.705 156.075 200.917 154.485 202.549 152.978C203.368 152.221 203.806 151.471 204.039 150.92C204.155 150.645 204.221 150.418 204.257 150.265C204.275 150.188 204.286 150.13 204.291 150.093C204.294 150.075 204.296 150.063 204.297 150.055C204.297 150.051 204.298 150.049 204.298 150.049L204.297 150.05C204.297 150.05 204.297 150.051 204.771 150.096M204.771 150.096C205.245 150.141 205.245 150.141 205.245 150.141M204.771 150.096L204.296 150.077L205.936 109.359L206.412 109.378M206.412 109.378L206.887 109.397L205.247 150.115C205.246 150.124 205.246 150.132 205.245 150.141M205.245 150.141V150.143V150.146C205.245 150.146 205.244 150.149 205.244 150.152C205.244 150.158 205.243 150.166 205.242 150.174C205.24 150.191 205.236 150.214 205.232 150.244C205.223 150.302 205.207 150.383 205.184 150.483C205.137 150.683 205.056 150.961 204.916 151.292C204.636 151.954 204.125 152.82 203.196 153.678C201.333 155.398 197.858 157.028 191.396 157.012M191.396 157.012L191.397 156.536L191.398 156.059M191.396 157.012C184.934 156.997 181.484 155.367 179.646 153.653C178.73 152.798 178.23 151.938 177.959 151.279C177.825 150.951 177.747 150.674 177.703 150.474C177.681 150.374 177.668 150.294 177.659 150.236C177.654 150.207 177.652 150.185 177.65 150.166C177.649 150.158 177.649 150.151 177.648 150.146C177.648 150.143 177.647 150.141 177.647 150.138V150.136V150.133M178.121 150.096L177.646 150.121M178.121 150.096L177.647 150.133M178.121 150.096C177.647 150.133 177.647 150.133 177.647 150.133M178.121 150.096L178.597 150.071C178.191 142.302 177.872 136.234 177.553 130.167C177.235 124.1 176.917 118.033 176.511 110.264L176.036 110.289M190.247 112.031L190.256 111.555C186.081 111.466 182.016 110.903 179.325 110.44C178.343 110.272 177.546 110.118 176.994 110.006C176.719 109.949 176.505 109.904 176.36 109.872C176.288 109.857 176.233 109.844 176.196 109.836C176.177 109.832 176.164 109.829 176.155 109.827C176.151 109.825 176.145 109.824 176.145 109.824L176.142 109.824C175.996 109.79 175.843 109.827 175.729 109.924C175.615 110.02 175.553 110.164 175.56 110.313C175.966 118.083 176.285 124.15 176.603 130.218C176.921 136.285 177.24 142.352 177.646 150.121L177.647 150.133M176.036 110.289L176.142 109.824M176.036 110.289L175.56 110.313M176.036 110.289C176.142 109.824 176.142 109.824 176.142 109.824M210.499 108.337C204.276 110.992 197.433 112.475 190.249 112.508H190.236C185.996 112.419 181.88 111.846 179.164 111.38C178.172 111.21 177.364 111.053 176.805 110.94C176.525 110.883 176.307 110.836 176.158 110.803C176.084 110.788 176.027 110.775 175.989 110.766C175.97 110.762 175.955 110.759 175.945 110.757C175.94 110.756 175.936 110.755 175.934 110.754H175.931L175.929 110.753C175.929 110.753 175.929 110.753 176.036 110.289M190.247 112.031L190.236 112.508M190.247 112.031L190.249 112.508M210.125 107.46C208.862 107.998 207.574 108.488 206.261 108.927C201.225 110.608 195.84 111.529 190.244 111.555L190.247 112.031M210.313 107.898L210.499 108.337C209.213 108.886 207.899 109.384 206.562 109.831C201.431 111.544 195.947 112.482 190.249 112.508M210.315 107.897L210.495 108.337M210.315 107.897L210.501 108.336M210.125 107.46L210.131 107.457H210.133L210.315 107.897M241.301 60.254C241.301 81.4438 228.457 99.6343 210.127 107.459L210.315 107.897M242.254 60.254C242.254 81.8395 229.168 100.367 210.501 108.336L210.495 108.337M210.495 108.337L210.494 108.338L210.313 107.898M242.254 60.254C242.254 67.4608 240.795 74.328 238.156 80.5753C232.893 93.0355 222.935 103.027 210.501 108.336M210.313 107.898L210.131 107.457M210.313 107.898L210.125 107.46M210.125 107.46C204.017 110.067 197.299 111.523 190.244 111.555M554.153 238.538L554.605 238.689M554.153 238.538L554.613 238.663M554.153 238.538L553.701 238.389M554.153 238.538L553.693 238.415M549.392 224.215C549.033 224.529 549.033 224.529 549.033 224.529L549.036 224.533C549.039 224.535 549.044 224.54 549.05 224.547C549.061 224.56 549.078 224.581 549.101 224.609C549.147 224.663 549.214 224.745 549.301 224.852C549.473 225.066 549.718 225.382 550.009 225.781C550.589 226.581 551.342 227.713 552.041 229.047C553.448 231.735 554.578 235.142 553.732 238.269L553.694 238.414L554.153 238.538M554.652 238.518L554.613 238.663L554.605 238.689L554.604 238.69L554.153 238.538M550.158 267.373L549.714 267.546L549.71 267.537C549.293 266.467 549.103 265.09 549.066 263.539C548.959 259.016 550.16 252.688 551.44 247.218C552.153 244.171 552.895 241.373 553.46 239.278C553.541 238.979 553.618 238.694 553.69 238.425C553.692 238.421 553.693 238.415 553.693 238.415L553.701 238.389L553.702 238.388L554.153 238.538M554.38 239.527C554.461 239.227 554.537 238.942 554.61 238.674C554.61 238.674 554.611 238.668 554.612 238.664L554.153 238.538M554.613 238.663C554.625 238.614 554.64 238.565 554.652 238.518M553.687 238.436L554.147 238.561L554.606 238.686M553.687 238.436L553.691 238.424L554.15 238.549M553.69 238.425L553.689 238.43L553.687 238.436C553.616 238.702 553.54 238.983 553.46 239.278M554.38 239.527L553.92 239.402L553.46 239.278M554.38 239.527C554.459 239.232 554.535 238.952 554.606 238.686M550.598 267.19C550.239 266.27 550.053 265.02 550.018 263.516C549.914 259.129 551.087 252.907 552.367 247.436C553.077 244.404 553.816 241.619 554.38 239.527M463.333 223.74L116.885 223.74M463.333 223.74L549.392 223.739V224.215M116.885 223.74L31.7153 223.739V224.215M31.7153 224.215C31.507 223.787 31.5064 223.787 31.5064 223.787L31.5055 223.788L31.5034 223.789C31.5034 223.789 31.4998 223.791 31.4974 223.792C31.4925 223.794 31.4863 223.798 31.4785 223.802C31.4628 223.809 31.4412 223.821 31.4142 223.836C31.3601 223.865 31.284 223.909 31.1894 223.967C31.0005 224.085 30.7379 224.262 30.4306 224.51C29.8161 225.004 29.0227 225.779 28.2863 226.911C26.8073 229.183 25.5885 232.848 26.4446 238.466M31.7153 224.215C31.9236 224.644 31.9238 224.644 31.9238 224.644M31.7153 224.215L31.307 223.97L110.993 91.1349M26.4446 238.466C26.8022 240.813 27.8948 245.261 28.9078 249.977M34.1654 286.848C33.9038 285.008 32.3576 283.611 30.3762 282.551C28.3724 281.478 25.7914 280.675 23.2096 280.077C18.0401 278.878 12.7499 278.472 11.7744 278.405M547.878 287.017L547.414 286.915L546.948 286.813M554.652 238.518L554.192 238.394L553.732 238.269M554.652 238.518C555.594 235.034 554.323 231.353 552.884 228.604C552.159 227.22 551.378 226.047 550.779 225.221C550.479 224.808 550.224 224.48 550.043 224.255C549.952 224.143 549.88 224.055 549.83 223.996C549.806 223.966 549.786 223.944 549.772 223.927C549.766 223.92 549.761 223.914 549.757 223.909C549.755 223.907 549.753 223.904 549.753 223.904L549.751 223.903C549.751 223.903 549.751 223.903 549.392 224.215M549.392 224.215L548.984 224.461L468.577 90.4242M553.732 238.269C553.72 238.318 553.707 238.365 553.694 238.414M451.699 79.9131C455.262 79.9131 458.765 80.836 461.866 82.592M461.397 83.4216L461.631 83.0068L461.866 82.592M461.397 83.4216C464.355 85.0966 466.828 87.5092 468.577 90.4242M110.993 91.1349C112.866 88.0136 116.016 85.1896 119.58 83.1506C123.144 81.1118 127.166 79.8315 130.809 79.847M231.121 155.179H231.597H232.074M231.121 155.179C231.121 160.461 226.827 165.372 219.591 168.991C212.384 172.595 202.394 174.839 191.333 174.839M232.074 155.179C232.074 161.017 227.354 166.175 220.017 169.844C212.651 173.527 202.509 175.792 191.333 175.792M191.333 174.839V175.315V175.792M191.333 174.839C180.272 174.839 170.283 172.595 163.076 168.991C155.839 165.372 151.545 160.461 151.545 155.179M191.333 175.792C180.157 175.792 170.015 173.527 162.65 169.844C155.313 166.175 150.593 161.017 150.593 155.179M151.545 155.179H151.069H150.593M114.353 287.621C121.274 278.271 131.424 271.779 132.715 270.973M471.35 283.506L470.877 283.564C469.308 270.888 457.984 261.024 444.211 261.024M471.35 283.506L471.822 283.447C470.191 270.264 458.433 260.07 444.211 260.07M456.497 309.854L456.292 309.424C452.661 311.169 448.558 312.154 444.211 312.154M456.497 309.854L456.704 310.284C452.946 312.089 448.703 313.107 444.211 313.107M417.29 249.145C414.374 246.057 410.648 242.924 407.218 241.3C405.501 240.487 403.904 240.073 402.541 240.191C401.207 240.306 400.065 240.933 399.211 242.292M444.211 312.154V312.631V313.107M444.211 312.154C429.359 312.154 417.359 300.686 417.359 286.589M417.359 286.589H416.883H416.407M417.359 286.589C417.359 272.492 429.359 261.024 444.211 261.024M416.407 286.589C416.407 301.256 428.878 313.107 444.211 313.107M416.407 286.589C416.407 271.922 428.878 260.07 444.211 260.07M444.211 261.024V260.547V260.07M347.598 146.55H348.074H348.55M347.598 146.55C347.598 148.655 345.879 150.689 342.807 152.225C339.764 153.748 335.526 154.703 330.819 154.703M347.598 146.55C347.598 144.444 345.879 142.41 342.807 140.874C339.764 139.352 335.526 138.396 330.819 138.396M330.819 154.703V155.179V155.656M330.819 154.703C326.111 154.703 321.873 153.748 318.829 152.225C315.757 150.689 314.039 148.655 314.039 146.55M330.819 155.656C335.641 155.656 340.031 154.679 343.233 153.078C346.406 151.491 348.55 149.21 348.55 146.55M330.819 155.656C325.995 155.656 321.606 154.679 318.403 153.078C315.23 151.491 313.087 149.21 313.087 146.55M348.55 146.55C348.55 143.889 346.406 141.609 343.233 140.021C340.031 138.42 335.641 137.443 330.819 137.443M314.039 146.55H313.563H313.087M314.039 146.55C314.039 144.444 315.757 142.41 318.829 140.874C321.873 139.352 326.111 138.396 330.819 138.396M313.087 146.55C313.087 143.889 315.23 141.609 318.403 140.021C321.606 138.42 325.995 137.443 330.819 137.443M330.819 138.396V137.92V137.443M405.118 109.154H405.594H406.07M405.118 109.154C405.118 111.26 403.399 113.294 400.327 114.831C397.283 116.353 393.046 117.308 388.337 117.308M405.118 109.154C405.118 107.05 403.399 105.015 400.327 103.479C397.283 101.957 393.046 101.002 388.337 101.002M388.337 117.308V117.785V118.261M388.337 117.308C383.63 117.308 379.393 116.353 376.349 114.831C373.277 113.294 371.558 111.26 371.558 109.154M388.337 118.261C393.161 118.261 397.551 117.284 400.753 115.683C403.926 114.096 406.07 111.816 406.07 109.154M388.337 118.261C383.515 118.261 379.125 117.284 375.923 115.683C372.75 114.096 370.606 111.816 370.606 109.154M406.07 109.154C406.07 106.494 403.926 104.213 400.753 102.626C397.551 101.025 393.161 100.049 388.337 100.049M371.558 109.154H371.082H370.606M371.558 109.154C371.558 107.05 373.277 105.015 376.349 103.479C379.393 101.957 383.63 101.002 388.337 101.002M370.606 109.154C370.606 106.494 372.75 104.213 375.923 102.626C379.125 101.025 383.515 100.049 388.337 100.049M388.337 101.002V100.525V100.049M405.118 181.068H405.594H406.07M405.118 181.068C405.118 183.173 403.399 185.207 400.327 186.743C397.283 188.266 393.046 189.221 388.337 189.221M405.118 181.068C405.118 178.963 403.399 176.929 400.327 175.392C397.283 173.87 393.046 172.915 388.337 172.915M388.337 189.221V189.697V190.174M388.337 189.221C383.63 189.221 379.393 188.266 376.349 186.743C373.277 185.207 371.558 183.173 371.558 181.068M388.337 190.174C393.161 190.174 397.551 189.198 400.753 187.596C403.926 186.009 406.07 183.729 406.07 181.068M388.337 190.174C383.515 190.174 379.125 189.198 375.923 187.596C372.75 186.009 370.606 183.729 370.606 181.068M406.07 181.068C406.07 178.406 403.926 176.126 400.753 174.539C397.551 172.938 393.161 171.962 388.337 171.962M371.558 181.068H371.082H370.606M371.558 181.068C371.558 178.963 373.277 176.929 376.349 175.392C379.393 173.87 383.63 172.915 388.337 172.915M370.606 181.068C370.606 178.406 372.75 176.126 375.923 174.539C379.125 172.938 383.515 171.962 388.337 171.962M388.337 172.915V172.438V171.962M462.638 146.55H463.114H463.59M462.638 146.55C462.638 148.655 460.919 150.689 457.847 152.225C454.803 153.748 450.565 154.703 445.857 154.703M462.638 146.55C462.638 144.444 460.919 142.41 457.847 140.874C454.803 139.352 450.565 138.396 445.857 138.396M445.857 154.703V155.179V155.656M445.857 154.703C441.15 154.703 436.912 153.748 433.869 152.225C430.797 150.689 429.078 148.655 429.078 146.55M445.857 155.656C450.681 155.656 455.071 154.679 458.273 153.078C461.446 151.491 463.59 149.21 463.59 146.55M445.857 155.656C441.035 155.656 436.645 154.679 433.443 153.078C430.27 151.491 428.126 149.21 428.126 146.55M463.59 146.55C463.59 143.889 461.446 141.609 458.273 140.021C455.071 138.42 450.681 137.443 445.857 137.443M429.078 146.55H428.602H428.126M429.078 146.55C429.078 144.444 430.797 142.41 433.869 140.874C436.912 139.352 441.15 138.396 445.857 138.396M428.126 146.55C428.126 143.889 430.27 141.609 433.443 140.021C436.645 138.42 441.035 137.443 445.857 137.443M445.857 138.396V137.92V137.443M206.412 109.378L206.562 109.831M206.412 109.378L206.261 108.927M138.719 60.254H138.243H137.766M138.719 60.254C138.719 31.9217 161.682 8.95322 190.01 8.95322M138.719 60.254C138.719 84.9276 156.134 105.534 179.343 110.444L179.245 110.91M190.01 8.95322V8.47661V8M190.01 8.95322C218.338 8.95322 241.301 31.9217 241.301 60.254M190.01 8C161.157 8 137.766 31.3945 137.766 60.254M190.01 8C218.863 8 242.254 31.3945 242.254 60.254M137.766 60.254C137.766 85.3878 155.507 106.376 179.146 111.376L179.245 110.91M241.301 60.254H241.778H242.254M179.245 110.91L179.325 110.44M179.245 110.91L179.164 111.38M165.15 288.074L164.676 288.038M164.676 288.038L164.2 288.002M164.676 288.038L164.866 287.601M164.676 288.038L164.484 288.474M157.806 284.393L157.603 284.824M149.833 280.478C149.912 280.518 149.991 280.559 150.07 280.599C152.731 281.955 155.316 283.219 157.806 284.393M157.603 284.824L157.4 285.254M157.603 284.824L157.788 284.384M157.603 284.824L157.417 285.263M160.272 285.359C159.547 285.1 158.723 284.78 157.788 284.384C155.71 283.506 153.092 282.257 149.844 280.484C149.315 280.195 148.768 279.891 148.205 279.573L148.201 279.571M149.844 280.484L149.616 280.902M149.616 280.902L149.388 281.32M149.616 280.902L149.833 280.478M149.616 280.902L149.4 281.326M159.952 286.256C159.209 285.991 158.367 285.664 157.417 285.263C155.305 284.37 152.659 283.107 149.388 281.32M149.833 280.478C143.46 277.214 137.704 273.629 132.735 270.177M132.735 270.177L132.464 270.568M132.464 270.568L132.193 270.96M132.464 270.568L132.213 270.164M132.464 270.568L132.715 270.973M132.193 270.96C137.189 274.433 142.983 278.04 149.4 281.326M29.8388 249.777L29.3733 249.877M29.3733 249.877L28.9078 249.977M29.3733 249.877L29.8335 249.755M29.3733 249.877L28.9132 250M11.9063 279.327L11.7415 278.88M11.7415 278.88L11.5767 278.433M11.7415 278.88L11.7744 278.405M11.7415 278.88L11.7086 279.356M569.14 278.737L568.983 279.187M569.14 278.737L569.296 278.287M569.14 278.737L568.976 279.185M569.14 278.737L569.303 278.29M549.715 267.548C550.348 269.159 551.992 270.694 553.976 272.071C559.123 275.645 567.156 278.549 568.983 279.187C569.153 279.246 569.271 279.287 569.33 279.307M569.33 279.307L569.482 278.855M569.33 279.307C569.344 279.312 569.355 279.315 569.361 279.318C569.365 279.319 569.37 279.321 569.37 279.321L569.372 279.322M569.482 278.855L569.635 278.404M569.482 278.855L569.898 278.623M569.482 278.855L569.067 279.088M550.601 267.199C551.125 268.528 552.558 269.927 554.519 271.288C559.545 274.779 567.459 277.647 569.296 278.287M552.32 247.094L551.904 247.327M551.904 247.327L551.488 247.559M551.904 247.327L551.44 247.218M551.904 247.327L552.367 247.436M549.066 263.539L549.542 263.528M549.542 263.528L550.018 263.516M549.542 263.528L549.067 263.549M549.542 263.528L550.018 263.507M549.696 267.49L550.158 267.373M550.158 267.373L550.62 267.257M550.158 267.373L549.715 267.548M550.158 267.373L550.601 267.199M550.158 267.373L550.602 267.2L550.598 267.19M569.303 278.29C567.537 277.644 559.513 274.622 554.511 271.283C553.457 270.58 552.552 269.871 551.872 269.179C551.187 268.481 550.766 267.833 550.62 267.257M549.715 267.548C549.713 267.544 549.71 267.537 549.71 267.537M553.976 272.071L554.247 271.68M554.247 271.68L554.519 271.288M554.247 271.68L553.982 272.076M554.247 271.68L554.511 271.283M550.601 267.199C550.6 267.196 550.6 267.195 550.598 267.19M550.598 267.19L550.154 267.363L549.71 267.537M132.639 270.506L132.383 270.909M132.639 270.506L132.895 270.105M132.639 270.506L132.357 270.122M132.639 270.506L132.92 270.891M132.346 270.885L132.383 270.909C135.62 272.977 138.334 274.742 140.882 276.34C143.204 277.795 145.397 279.115 147.742 280.406M140.882 276.34L141.135 275.936M141.135 275.936L141.387 275.532M141.135 275.936L140.887 276.343M141.135 275.936L141.382 275.529M141.387 275.532C138.843 273.937 136.143 272.179 132.895 270.105M141.387 275.532C143.7 276.981 145.877 278.291 148.201 279.571M147.738 280.404L147.971 279.989M147.971 279.989L148.205 279.573M147.971 279.989L147.742 280.406M147.971 279.989L148.201 279.571M147.742 280.406C151.184 282.303 154.949 284.135 159.926 286.247M159.926 286.247L160.112 285.808M160.112 285.808L160.298 285.369M160.112 285.808L159.952 286.256M160.112 285.808L160.272 285.359M164.682 286.466H164.684C164.684 286.466 164.685 286.466 164.682 286.466ZM164.682 286.466C164.677 286.466 164.666 286.466 164.65 286.466C164.618 286.465 164.565 286.463 164.488 286.456C164.335 286.445 164.088 286.416 163.737 286.352C163.033 286.222 161.911 285.945 160.272 285.359M554.15 238.549L554.61 238.674M554.15 238.549L553.69 238.425M554.606 238.686L554.61 238.674M554.606 238.686L554.608 238.68L554.61 238.674" stroke="white" stroke-width="4"/>
</svg>
