<svg xmlns="http://www.w3.org/2000/svg"><symbol id="laser-logo" viewBox="0 0 587 342">
<path pathLength="1" fill-rule="evenodd" clip-rule="evenodd" d="M570.356 241.864L570.353 241.877C570.277 242.156 570.198 242.45 570.114 242.759C570.199 242.446 570.28 242.147 570.356 241.864Z"/>
<path pathLength="1" d="M474.99 226.828V227.328V227.328V226.828ZM111.189 226.829L111.189 227.329H111.189V226.829ZM16.7125 241.702L17.2067 241.626V241.626L16.7125 241.702ZM20.9526 272.093L20.4937 271.894V271.894L20.9526 272.093ZM0.612627 284.164L0.434198 283.697C0.214222 283.781 0.0826945 284.007 0.118413 284.24C0.154131 284.472 0.347413 284.649 0.582464 284.663L0.612627 284.164ZM23.8307 292.604L23.3357 292.675L23.8307 292.604ZM26.7239 323.168L26.2571 323.347V323.347L26.7239 323.168ZM51.9533 341.5L51.9389 342C51.9437 342 51.9485 342 51.9533 342V341.5ZM535.159 341.5V342H535.163L535.159 341.5ZM560.389 323.168L560.847 323.368V323.368L560.389 323.168ZM586.5 284.164L586.524 284.663C586.764 284.652 586.962 284.471 586.995 284.233C587.028 283.995 586.888 283.767 586.66 283.69L586.5 284.164ZM0.5 284.276L0.0684449 284.024C-0.0377104 284.205 -0.0190567 284.434 0.115125 284.596C0.249306 284.757 0.470359 284.818 0.668296 284.747L0.5 284.276ZM18.9953 252.667L19.4751 252.526C19.419 252.334 19.2544 252.195 19.0563 252.17C18.8582 252.146 18.6646 252.242 18.5638 252.414L18.9953 252.667ZM21.1854 271.975L21.6171 272.227C21.6413 272.186 21.6595 272.141 21.6709 272.094L21.1854 271.975ZM586.461 284.157L586.294 284.628C586.49 284.697 586.708 284.638 586.843 284.479C586.977 284.32 586.999 284.095 586.897 283.913L586.461 284.157ZM567.951 250.989L568.387 250.745C568.288 250.568 568.092 250.468 567.891 250.493C567.689 250.517 567.523 250.66 567.469 250.856L567.951 250.989ZM566.143 272.015L566.632 271.909C566.628 271.892 566.624 271.875 566.618 271.859L566.143 272.015ZM238.073 75.9426L237.613 75.7478V75.7478L238.073 75.9426ZM462.773 75.9426V76.4426V76.4426V75.9426ZM480.925 86.2122L481.354 85.9549V85.9549L480.925 86.2122ZM105.431 87.4726L105.859 87.73V87.73L105.431 87.4726ZM125.808 75.8732L125.806 76.3732H125.806L125.808 75.8732ZM137.852 76.3732C138.128 76.372 138.351 76.1472 138.35 75.8711C138.349 75.5949 138.124 75.372 137.848 75.3732L137.85 75.8732L137.852 76.3732ZM204.24 133.809C203.969 133.755 203.706 133.93 203.651 134.201C203.597 134.472 203.772 134.735 204.043 134.79L204.141 134.299L204.24 133.809ZM174.808 134.791C175.079 134.739 175.257 134.477 175.205 134.206C175.154 133.935 174.892 133.757 174.621 133.808L174.714 134.299L174.808 134.791ZM248.257 250.969L248.534 250.553C248.372 250.445 248.163 250.441 247.997 250.542C247.831 250.643 247.738 250.831 247.76 251.024L248.257 250.969ZM254.297 305.288L254.744 305.511C254.787 305.425 254.804 305.328 254.794 305.232L254.297 305.288ZM248.257 317.358L247.81 317.135C247.725 317.303 247.743 317.504 247.854 317.655C247.966 317.807 248.153 317.883 248.339 317.852L248.257 317.358ZM266.377 314.341V313.841C266.349 313.841 266.322 313.843 266.295 313.848L266.377 314.341ZM320.738 314.341L320.82 313.848C320.793 313.843 320.765 313.841 320.738 313.841V314.341ZM338.858 317.358L338.776 317.852C338.961 317.883 339.148 317.807 339.26 317.655C339.372 317.504 339.389 317.303 339.305 317.135L338.858 317.358ZM332.818 305.288L332.321 305.232C332.31 305.328 332.327 305.425 332.371 305.511L332.818 305.288ZM338.858 250.969L339.355 251.024C339.376 250.831 339.284 250.643 339.118 250.542C338.952 250.441 338.742 250.445 338.581 250.553L338.858 250.969ZM320.738 263.04V263.54C320.836 263.54 320.933 263.511 321.015 263.456L320.738 263.04ZM266.377 263.04L266.1 263.456C266.182 263.511 266.278 263.54 266.377 263.54V263.04ZM97.9464 317.358L97.448 317.318C97.4367 317.457 97.4841 317.595 97.5788 317.697C97.6734 317.8 97.8067 317.858 97.9464 317.858V317.358ZM108.129 293.047L107.727 292.75V292.75L108.129 293.047ZM127.693 275.366L127.962 274.944C127.802 274.842 127.597 274.84 127.434 274.938L127.693 275.366ZM161.4 293.423L161.898 293.461C161.915 293.243 161.788 293.04 161.586 292.959L161.4 293.423ZM160.835 300.874L160.336 300.836C160.327 300.959 160.364 301.082 160.44 301.18L160.835 300.874ZM173.602 317.358V317.858C173.792 317.858 173.967 317.75 174.051 317.579C174.135 317.407 174.114 317.203 173.997 317.052L173.602 317.358ZM107.078 257.966C106.886 257.768 106.569 257.762 106.371 257.954C106.172 258.146 106.167 258.462 106.358 258.661L106.718 258.314L107.078 257.966ZM145.809 286.424L145.582 286.869V286.869L145.809 286.424ZM187.022 303.951C187.288 304.027 187.564 303.873 187.64 303.607C187.716 303.341 187.562 303.065 187.296 302.989L187.159 303.47L187.022 303.951ZM127.619 275.473L127.322 275.071C127.19 275.169 127.114 275.326 127.119 275.491C127.125 275.656 127.212 275.807 127.352 275.895L127.619 275.473ZM149.198 261.249L148.951 260.814V260.814L149.198 261.249ZM174.054 250.411L174.505 250.626C174.592 250.444 174.561 250.228 174.426 250.077C174.291 249.927 174.08 249.873 173.889 249.939L174.054 250.411ZM163.776 279.321L164.268 279.409V279.409L163.776 279.321ZM161.4 292.633L161.421 293.132C161.655 293.122 161.851 292.951 161.892 292.72L161.4 292.633ZM143.82 285.331L143.574 285.767L143.575 285.767L143.82 285.331ZM468.807 297.681L468.552 297.25C468.408 297.336 468.316 297.487 468.307 297.654L468.807 297.681ZM493.323 311.34L493.425 311.83C493.573 311.799 493.699 311.703 493.768 311.568C493.837 311.434 493.841 311.276 493.78 311.137L493.323 311.34ZM438.867 269.571L438.984 270.057C439.236 269.996 439.4 269.753 439.362 269.497L438.867 269.571ZM427.004 252.637L427.368 252.293V252.293L427.004 252.637ZM407.233 245.525L406.81 245.258V245.258L407.233 245.525ZM416.497 260.652L416.221 261.069V261.069L416.497 260.652ZM435.481 271.689L435.85 272.026C436.025 271.835 436.024 271.542 435.849 271.351L435.481 271.689ZM416.158 264.308L416.267 263.82V263.82L416.158 264.308ZM395.795 269.49L396.294 269.474V269.474L395.795 269.49ZM411.952 276.831L411.956 277.331V277.331L411.952 276.831ZM203.477 149.07L203.975 149.117C203.976 149.108 203.976 149.099 203.977 149.09L203.477 149.07ZM189.433 155.826L189.432 156.326V156.326L189.433 155.826ZM175.492 149.07L174.993 149.096L174.994 149.109L175.492 149.07ZM173.302 107.309L173.414 106.821C173.261 106.786 173.1 106.825 172.98 106.926C172.86 107.027 172.795 107.178 172.803 107.335L173.302 107.309ZM188.225 109.137L188.214 109.637L188.227 109.637L188.225 109.137ZM209.298 104.8L209.488 105.262L209.494 105.26L209.298 104.8ZM209.296 104.801L209.105 104.338L209.099 104.341L209.296 104.801ZM570.359 241.853L570.834 242.011L570.842 241.984L570.359 241.853ZM570.359 241.854L569.884 241.696L569.876 241.724L570.359 241.854ZM570.353 241.877L569.87 241.746V241.746L570.353 241.877ZM570.114 242.759L570.597 242.89L570.597 242.89L570.114 242.759ZM474.99 226.828V226.328L111.189 226.329V226.829V227.329L474.99 227.328V226.828ZM111.189 226.829L111.189 226.329L21.7529 226.327L21.7529 226.827L21.7529 227.327L111.189 227.329L111.189 226.829ZM21.7529 226.827C21.5342 226.378 21.5339 226.378 21.5335 226.378C21.5333 226.378 21.5329 226.378 21.5326 226.379C21.532 226.379 21.5312 226.379 21.5304 226.38C21.5287 226.381 21.5266 226.382 21.5241 226.383C21.519 226.385 21.5124 226.389 21.5042 226.393C21.4878 226.401 21.4651 226.413 21.4367 226.429C21.3799 226.46 21.3 226.506 21.2007 226.567C21.0023 226.69 20.7265 226.876 20.4039 227.136C19.7586 227.655 18.9254 228.468 18.1522 229.655C16.5991 232.039 15.3192 235.884 16.2182 241.777L16.7125 241.702L17.2067 241.626C16.3416 235.955 17.582 232.362 18.9901 230.201C19.6975 229.115 20.4552 228.378 21.0306 227.915C21.3184 227.683 21.5604 227.521 21.7272 227.417C21.8106 227.366 21.8751 227.329 21.9171 227.306C21.9381 227.294 21.9534 227.286 21.9627 227.282C21.9673 227.279 21.9704 227.278 21.9719 227.277C21.9726 227.277 21.973 227.276 21.9729 227.276C21.9729 227.276 21.9728 227.276 21.9726 227.277C21.9725 227.277 21.9722 227.277 21.9721 227.277C21.9719 227.277 21.9716 227.277 21.7529 226.827ZM20.9526 272.093L20.4937 271.894C20.2525 272.452 19.7782 273.07 19.0921 273.731C18.4104 274.387 17.5444 275.062 16.5526 275.74C14.5689 277.094 12.1196 278.43 9.72568 279.612C7.33425 280.793 5.01039 281.815 3.2835 282.541C2.42036 282.905 1.70709 283.194 1.21 283.392C0.96147 283.491 0.767021 283.567 0.634947 283.619C0.568911 283.645 0.518473 283.664 0.484668 283.677C0.467766 283.684 0.455022 283.689 0.446567 283.692C0.44234 283.694 0.439185 283.695 0.437118 283.696C0.436084 283.696 0.435323 283.696 0.434836 283.696C0.434592 283.697 0.434433 283.697 0.434311 283.697C0.43422 283.697 0.434198 283.697 0.612627 284.164C0.791056 284.631 0.791173 284.631 0.791358 284.631C0.791512 284.631 0.791766 284.631 0.792073 284.63C0.792687 284.63 0.793576 284.63 0.794737 284.629C0.79706 284.629 0.800472 284.627 0.804959 284.626C0.813932 284.622 0.827201 284.617 0.844636 284.61C0.879506 284.597 0.931042 284.577 0.998206 284.551C1.13253 284.498 1.32938 284.421 1.58045 284.321C2.08255 284.121 2.80168 283.829 3.67135 283.463C5.41006 282.731 7.75344 281.701 10.1685 280.509C12.5811 279.317 15.0774 277.957 17.1164 276.565C18.136 275.869 19.0504 275.159 19.7857 274.451C20.5166 273.747 21.0956 273.022 21.4115 272.291L20.9526 272.093ZM23.8307 292.604L23.3357 292.675C23.579 294.385 23.4828 296.069 23.2915 297.927C23.1015 299.773 22.8151 301.808 22.7042 304.139C22.4808 308.835 22.9629 314.772 26.2571 323.347L26.7239 323.168L27.1906 322.988C23.9463 314.543 23.4862 308.744 23.703 304.187C23.8122 301.892 24.0916 299.92 24.2862 298.03C24.4795 296.152 24.5868 294.369 24.3257 292.534L23.8307 292.604ZM26.7239 323.168L26.2571 323.347C29.7361 332.403 36.1611 337.071 41.7047 339.469C44.4739 340.666 47.025 341.298 48.8848 341.631C49.8152 341.798 50.5739 341.89 51.1022 341.94C51.3664 341.965 51.5731 341.98 51.715 341.989C51.7859 341.993 51.8406 341.996 51.8783 341.997C51.8971 341.998 51.9116 341.999 51.9217 341.999C51.9268 341.999 51.9308 342 51.9336 342C51.9351 342 51.9362 342 51.9371 342C51.9375 342 51.938 342 51.9382 342C51.9386 342 51.9389 342 51.9533 341.5C51.9677 341 51.9678 341 51.9679 341C51.9679 341 51.9679 341 51.9678 341C51.9675 341 51.967 341 51.9662 341C51.9646 341 51.9619 341 51.9581 341C51.9505 341 51.9386 340.999 51.9224 340.998C51.89 340.997 51.8406 340.995 51.7752 340.991C51.6443 340.983 51.4492 340.969 51.1972 340.945C50.6931 340.897 49.9616 340.808 49.061 340.647C47.2589 340.324 44.7849 339.711 42.1016 338.551C36.7403 336.232 30.5506 331.735 27.1906 322.988L26.7239 323.168ZM51.9533 341.5V342H535.159V341.5V341H51.9533V341.5ZM535.159 341.5C535.163 342 535.163 342 535.163 342C535.164 342 535.164 342 535.165 342C535.165 342 535.167 342 535.168 342C535.171 342 535.175 342 535.179 342C535.189 342 535.203 341.999 535.221 341.999C535.257 341.998 535.309 341.997 535.376 341.994C535.51 341.988 535.706 341.978 535.957 341.958C536.458 341.918 537.178 341.841 538.066 341.69C539.841 341.389 542.29 340.796 544.99 339.624C550.399 337.276 556.811 332.611 560.847 323.368L560.389 323.168L559.931 322.967C556.012 331.941 549.81 336.442 544.592 338.706C541.979 339.84 539.612 340.414 537.899 340.704C537.043 340.849 536.352 340.923 535.878 340.961C535.64 340.98 535.457 340.99 535.335 340.995C535.273 340.997 535.227 340.999 535.197 340.999C535.182 341 535.171 341 535.164 341C535.161 341 535.159 341 535.157 341C535.156 341 535.156 341 535.156 341C535.156 341 535.156 341 535.156 341C535.156 341 535.156 341 535.159 341.5ZM560.389 323.168L560.847 323.368C564.098 315.923 564.422 310.051 564.137 305.116C563.997 302.693 563.7 300.402 563.55 298.396C563.396 296.349 563.382 294.49 563.77 292.711L563.282 292.604L562.793 292.497C562.374 294.419 562.396 296.393 562.552 298.471C562.712 300.592 562.997 302.72 563.139 305.174C563.417 309.993 563.104 315.701 559.931 322.967L560.389 323.168ZM563.282 292.604L563.77 292.711C564.125 291.089 565.6 289.729 567.818 288.609C570.014 287.499 572.817 286.686 575.601 286.097C578.379 285.51 581.111 285.151 583.151 284.939C584.17 284.833 585.015 284.764 585.605 284.722C585.899 284.7 586.13 284.686 586.287 284.676C586.365 284.672 586.425 284.668 586.465 284.666C586.485 284.665 586.5 284.664 586.51 284.664C586.515 284.664 586.518 284.663 586.521 284.663C586.522 284.663 586.523 284.663 586.523 284.663C586.524 284.663 586.524 284.663 586.524 284.663C586.524 284.663 586.524 284.663 586.5 284.164C586.476 283.664 586.476 283.664 586.476 283.664C586.475 283.664 586.475 283.664 586.475 283.664C586.474 283.664 586.473 283.664 586.471 283.665C586.469 283.665 586.464 283.665 586.459 283.665C586.448 283.666 586.432 283.667 586.411 283.668C586.369 283.67 586.308 283.673 586.227 283.678C586.067 283.688 585.832 283.703 585.533 283.724C584.934 283.767 584.079 283.837 583.048 283.944C580.987 284.158 578.218 284.522 575.394 285.119C572.576 285.715 569.675 286.55 567.366 287.716C565.079 288.872 563.248 290.418 562.793 292.497L563.282 292.604ZM570.4 241.702L570.883 241.832C571.872 238.177 570.538 234.315 569.026 231.431C568.265 229.979 567.445 228.749 566.816 227.882C566.501 227.449 566.233 227.105 566.043 226.869C565.948 226.751 565.872 226.659 565.82 226.597C565.794 226.566 565.773 226.542 565.759 226.525C565.752 226.517 565.747 226.511 565.743 226.506C565.741 226.504 565.74 226.503 565.739 226.501C565.738 226.501 565.738 226.5 565.737 226.5C565.737 226.5 565.737 226.499 565.737 226.499C565.737 226.499 565.737 226.499 565.36 226.827C564.983 227.156 564.983 227.156 564.983 227.156C564.983 227.156 564.983 227.156 564.983 227.156C564.983 227.156 564.983 227.156 564.983 227.157C564.984 227.157 564.985 227.158 564.986 227.16C564.989 227.163 564.994 227.168 565 227.175C565.012 227.189 565.03 227.211 565.054 227.24C565.102 227.297 565.173 227.383 565.264 227.495C565.445 227.72 565.702 228.051 566.007 228.47C566.616 229.309 567.407 230.497 568.141 231.896C569.619 234.716 570.805 238.29 569.917 241.571L570.4 241.702ZM0.5 284.276L0.931555 284.529L19.4269 252.919L18.9953 252.667L18.5638 252.414L0.0684449 284.024L0.5 284.276ZM238.073 75.9426V76.4426H462.773V75.9426V75.4426H238.073V75.9426ZM462.773 75.9426V76.4426C466.342 76.4426 469.851 77.3661 472.957 79.1233L473.203 78.6881L473.449 78.253C470.193 76.4108 466.515 75.4426 462.773 75.4426V75.9426ZM473.203 78.6881L472.957 79.1233C476.063 80.8805 478.66 83.4115 480.497 86.4696L480.925 86.2122L481.354 85.9549C479.429 82.7486 476.705 80.0952 473.449 78.253L473.203 78.6881ZM480.925 86.2122L480.497 86.4696L564.931 227.085L565.36 226.827L565.788 226.57L481.354 85.9549L480.925 86.2122ZM565.36 226.827V226.327L474.99 226.328V226.828V227.328L565.36 227.327V226.827ZM21.7529 226.827L22.1816 227.085L105.859 87.73L105.431 87.4726L105.002 87.2152L21.3242 226.57L21.7529 226.827ZM105.431 87.4726L105.859 87.73C107.717 84.6366 110.882 81.7837 114.515 79.7072C118.148 77.6305 122.2 76.3579 125.806 76.3732L125.808 75.8732L125.81 75.3732C121.985 75.357 117.761 76.7001 114.019 78.839C110.276 80.9781 106.968 83.9407 105.002 87.2152L105.431 87.4726ZM125.808 75.8732L125.806 76.3732C128.81 76.3858 131.822 76.3858 134.082 76.3827C135.212 76.3811 136.155 76.3787 136.815 76.3767C137.145 76.3757 137.404 76.3749 137.581 76.3742C137.669 76.3739 137.737 76.3736 137.783 76.3735C137.806 76.3734 137.823 76.3733 137.835 76.3732C137.84 76.3732 137.845 76.3732 137.848 76.3732C137.849 76.3732 137.85 76.3732 137.851 76.3732C137.852 76.3732 137.852 76.3732 137.852 76.3732C137.852 76.3732 137.852 76.3732 137.852 76.3732C137.852 76.3732 137.852 76.3732 137.85 75.8732C137.848 75.3732 137.848 75.3732 137.848 75.3732C137.848 75.3732 137.848 75.3732 137.848 75.3732C137.848 75.3732 137.847 75.3732 137.847 75.3732C137.846 75.3732 137.845 75.3732 137.844 75.3732C137.841 75.3732 137.836 75.3732 137.831 75.3733C137.819 75.3733 137.802 75.3734 137.779 75.3735C137.733 75.3736 137.666 75.3739 137.577 75.3742C137.401 75.3749 137.141 75.3758 136.812 75.3767C136.152 75.3787 135.21 75.3811 134.081 75.3827C131.821 75.3858 128.812 75.3858 125.81 75.3732L125.808 75.8732ZM204.141 134.299L204.043 134.79C211.764 136.34 218.57 139.123 223.433 142.597C228.309 146.082 231.147 150.196 231.147 154.403H231.647H232.147C232.147 149.726 229.004 145.35 224.014 141.784C219.01 138.208 212.064 135.38 204.24 133.809L204.141 134.299ZM231.647 154.403H231.147C231.147 159.944 226.638 165.096 219.039 168.892C211.471 172.673 200.981 175.027 189.366 175.027V175.527V176.027C201.102 176.027 211.752 173.651 219.486 169.787C227.191 165.938 232.147 160.527 232.147 154.403H231.647ZM189.366 175.527V175.027C177.751 175.027 167.261 172.673 159.693 168.892C152.094 165.096 147.585 159.944 147.585 154.403H147.085H146.585C146.585 160.527 151.541 165.938 159.246 169.787C166.98 173.651 177.63 176.027 189.366 176.027V175.527ZM147.085 154.403H147.585C147.585 150.122 150.365 145.985 155.218 142.511C160.061 139.043 166.896 136.295 174.808 134.791L174.714 134.299L174.621 133.808C166.605 135.332 159.626 138.125 154.636 141.698C149.657 145.262 146.585 149.663 146.585 154.403H147.085ZM248.257 250.969L247.76 251.024L253.8 305.343L254.297 305.288L254.794 305.232L248.754 250.914L248.257 250.969ZM254.297 305.288L253.85 305.064L247.81 317.135L248.257 317.358L248.704 317.582L254.744 305.511L254.297 305.288ZM248.257 317.358L248.339 317.852L266.459 314.834L266.377 314.341L266.295 313.848L248.175 316.865L248.257 317.358ZM266.377 314.341V314.841H320.738V314.341V313.841H266.377V314.341ZM320.738 314.341L320.655 314.834L338.776 317.852L338.858 317.358L338.94 316.865L320.82 313.848L320.738 314.341ZM338.858 317.358L339.305 317.135L333.265 305.064L332.818 305.288L332.371 305.511L338.411 317.582L338.858 317.358ZM332.818 305.288L333.315 305.343L339.355 251.024L338.858 250.969L338.361 250.914L332.321 305.232L332.818 305.288ZM338.858 250.969L338.581 250.553L320.46 262.624L320.738 263.04L321.015 263.456L339.135 251.385L338.858 250.969ZM320.738 263.04V262.54H266.377V263.04V263.54H320.738V263.04ZM266.377 263.04L266.654 262.624L248.534 250.553L248.257 250.969L247.979 251.385L266.1 263.456L266.377 263.04ZM97.9464 317.358C98.4447 317.399 98.4447 317.399 98.4447 317.399C98.4447 317.399 98.4447 317.399 98.4447 317.399C98.4447 317.399 98.4448 317.399 98.4448 317.398C98.4449 317.397 98.445 317.395 98.4453 317.393C98.4457 317.388 98.4464 317.38 98.4473 317.37C98.4493 317.349 98.4524 317.317 98.4568 317.274C98.4658 317.187 98.4802 317.058 98.5019 316.887C98.5453 316.546 98.6178 316.042 98.7335 315.397C98.965 314.108 99.3692 312.255 100.059 310.015C101.44 305.534 103.963 299.51 108.53 293.345L108.129 293.047L107.727 292.75C103.079 299.023 100.51 305.155 99.1038 309.72C98.4003 312.003 97.987 313.896 97.7493 315.221C97.6304 315.883 97.5554 316.404 97.5099 316.761C97.4872 316.939 97.4719 317.077 97.4622 317.171C97.4573 317.217 97.4538 317.253 97.4516 317.278C97.4504 317.29 97.4496 317.3 97.449 317.307C97.4487 317.31 97.4485 317.312 97.4483 317.314C97.4483 317.315 97.4482 317.316 97.4481 317.317C97.4481 317.317 97.4481 317.317 97.4481 317.317C97.4481 317.318 97.448 317.318 97.9464 317.358ZM160.835 300.874L160.44 301.18L173.206 317.665L173.602 317.358L173.997 317.052L161.23 300.568L160.835 300.874ZM173.602 317.358V316.858H97.9464V317.358V317.858H173.602V317.358ZM149.198 261.249L149.445 261.684C154.387 258.878 160.576 256.178 165.541 254.177C168.021 253.177 170.192 252.353 171.742 251.78C172.517 251.493 173.136 251.268 173.562 251.116C173.775 251.04 173.939 250.981 174.05 250.942C174.106 250.923 174.148 250.908 174.176 250.898C174.19 250.893 174.201 250.889 174.208 250.887C174.211 250.886 174.214 250.885 174.216 250.884C174.216 250.884 174.217 250.884 174.217 250.883C174.218 250.883 174.218 250.883 174.218 250.883C174.218 250.883 174.218 250.883 174.054 250.411C173.889 249.939 173.889 249.939 173.889 249.939C173.889 249.939 173.889 249.939 173.888 249.939C173.888 249.939 173.887 249.94 173.886 249.94C173.884 249.941 173.882 249.942 173.878 249.943C173.87 249.945 173.86 249.949 173.845 249.954C173.816 249.964 173.773 249.979 173.717 249.999C173.605 250.039 173.439 250.098 173.225 250.175C172.796 250.328 172.173 250.554 171.394 250.842C169.838 251.418 167.658 252.245 165.167 253.249C160.19 255.256 153.952 257.975 148.951 260.814L149.198 261.249ZM174.054 250.411C173.602 250.196 173.602 250.196 173.602 250.196C173.602 250.197 173.602 250.197 173.602 250.197C173.601 250.198 173.601 250.199 173.601 250.2C173.6 250.202 173.598 250.205 173.596 250.209C173.592 250.218 173.586 250.23 173.578 250.247C173.562 250.28 173.539 250.33 173.509 250.395C173.448 250.524 173.358 250.715 173.244 250.963C173.015 251.458 172.686 252.177 172.285 253.077C171.483 254.876 170.392 257.398 169.235 260.286C166.925 266.054 164.339 273.321 163.284 279.233L163.776 279.321L164.268 279.409C165.304 273.603 167.857 266.416 170.163 260.658C171.314 257.784 172.4 255.275 173.198 253.484C173.598 252.589 173.925 251.874 174.152 251.383C174.265 251.137 174.354 250.948 174.414 250.82C174.444 250.756 174.467 250.707 174.482 250.675C174.49 250.658 174.496 250.646 174.499 250.638C174.501 250.634 174.503 250.631 174.504 250.629C174.504 250.628 174.505 250.627 174.505 250.627C174.505 250.626 174.505 250.626 174.505 250.626C174.505 250.626 174.505 250.626 174.054 250.411ZM163.776 279.321L163.284 279.233L160.908 292.545L161.4 292.633L161.892 292.72L164.268 279.409L163.776 279.321ZM468.807 297.681L469.061 298.111L483.663 289.458L483.408 289.028L483.153 288.598L468.552 297.25L468.807 297.681ZM483.408 289.028L482.951 289.231L492.866 311.544L493.323 311.34L493.78 311.137L483.865 288.825L483.408 289.028ZM493.323 311.34L493.221 310.851L467.71 316.18L467.812 316.669L467.914 317.158L493.425 311.83L493.323 311.34ZM438.867 269.571C439.362 269.497 439.362 269.497 439.362 269.496C439.362 269.496 439.361 269.496 439.361 269.495C439.361 269.495 439.361 269.494 439.361 269.493C439.361 269.491 439.36 269.489 439.36 269.487C439.359 269.482 439.358 269.476 439.357 269.468C439.354 269.454 439.351 269.434 439.346 269.409C439.335 269.36 439.32 269.29 439.296 269.199C439.249 269.017 439.171 268.753 439.043 268.403C438.786 267.702 438.331 266.66 437.529 265.255C435.925 262.446 432.933 258.181 427.368 252.293L427.004 252.637L426.641 252.98C432.165 258.824 435.105 263.026 436.66 265.751C437.438 267.113 437.868 268.104 438.104 268.746C438.221 269.067 438.29 269.301 438.328 269.45C438.347 269.524 438.359 269.577 438.366 269.609C438.369 269.626 438.371 269.637 438.372 269.642C438.373 269.645 438.373 269.647 438.373 269.647C438.373 269.647 438.373 269.647 438.373 269.647C438.373 269.646 438.373 269.646 438.373 269.646C438.373 269.645 438.373 269.645 438.373 269.645C438.373 269.645 438.373 269.644 438.867 269.571ZM427.004 252.637L427.368 252.293C424.266 249.012 420.253 245.626 416.491 243.846C414.612 242.956 412.747 242.445 411.066 242.591C409.355 242.739 407.874 243.567 406.81 245.258L407.233 245.525L407.656 245.791C408.553 244.365 409.752 243.708 411.153 243.587C412.584 243.463 414.261 243.897 416.064 244.75C419.666 246.454 423.579 249.741 426.641 252.98L427.004 252.637ZM407.233 245.525L406.81 245.258C405.228 247.773 406.295 250.86 408.27 253.637C410.271 256.452 413.34 259.157 416.221 261.069L416.497 260.652L416.774 260.236C413.964 258.371 410.996 255.746 409.085 253.058C407.147 250.332 406.427 247.745 407.656 245.791L407.233 245.525ZM416.497 260.652L416.221 261.069C424.164 266.341 429.808 268.599 433.491 269.533C435.332 270 436.684 270.137 437.587 270.153C438.038 270.162 438.377 270.14 438.608 270.115C438.724 270.103 438.813 270.089 438.875 270.078C438.906 270.073 438.931 270.068 438.949 270.064C438.958 270.063 438.966 270.061 438.972 270.06C438.975 270.059 438.977 270.058 438.979 270.058C438.98 270.058 438.981 270.057 438.982 270.057C438.982 270.057 438.983 270.057 438.983 270.057C438.984 270.057 438.984 270.057 438.867 269.571C438.75 269.085 438.75 269.084 438.751 269.084C438.751 269.084 438.751 269.084 438.752 269.084C438.752 269.084 438.752 269.084 438.753 269.084C438.753 269.084 438.753 269.084 438.753 269.084C438.752 269.084 438.75 269.084 438.746 269.085C438.739 269.087 438.725 269.09 438.704 269.093C438.663 269.1 438.595 269.111 438.501 269.121C438.312 269.141 438.015 269.161 437.605 269.154C436.785 269.139 435.51 269.014 433.737 268.564C430.188 267.664 424.647 265.462 416.774 260.236L416.497 260.652ZM435.481 271.689C435.849 271.351 435.849 271.351 435.848 271.35C435.848 271.35 435.848 271.35 435.848 271.35C435.847 271.349 435.847 271.348 435.846 271.348C435.845 271.346 435.843 271.345 435.842 271.343C435.838 271.34 435.834 271.335 435.829 271.33C435.819 271.319 435.804 271.305 435.786 271.287C435.75 271.252 435.698 271.203 435.627 271.141C435.487 271.016 435.273 270.841 434.971 270.623C434.366 270.187 433.404 269.579 431.952 268.864C429.048 267.436 424.178 265.579 416.267 263.82L416.158 264.308L416.049 264.796C423.903 266.542 428.694 268.376 431.51 269.762C432.918 270.454 433.831 271.034 434.386 271.434C434.663 271.634 434.851 271.789 434.966 271.891C435.024 271.942 435.064 271.979 435.087 272.002C435.099 272.014 435.107 272.022 435.111 272.026C435.113 272.028 435.114 272.029 435.114 272.029C435.114 272.03 435.114 272.029 435.114 272.029C435.114 272.029 435.114 272.029 435.113 272.028C435.113 272.028 435.113 272.028 435.113 272.028C435.113 272.028 435.112 272.027 435.481 271.689ZM416.158 264.308L416.267 263.82C411.857 262.84 406.635 262.282 402.521 262.915C400.465 263.231 398.634 263.852 397.324 264.914C395.99 265.995 395.227 267.51 395.295 269.507L395.795 269.49L396.294 269.474C396.237 267.791 396.862 266.575 397.954 265.691C399.069 264.787 400.702 264.206 402.673 263.903C406.612 263.298 411.697 263.828 416.049 264.796L416.158 264.308ZM395.795 269.49L395.295 269.507C395.395 272.475 398.011 274.434 401.203 275.629C404.439 276.839 408.498 277.36 411.956 277.331L411.952 276.831L411.948 276.331C408.575 276.36 404.644 275.848 401.554 274.692C398.42 273.52 396.372 271.78 396.294 269.474L395.795 269.49ZM411.952 276.831L411.956 277.331C421.492 277.249 427.433 275.958 431.006 274.669C432.794 274.025 433.99 273.381 434.747 272.889C435.125 272.643 435.394 272.435 435.571 272.285C435.66 272.21 435.726 272.149 435.772 272.105C435.795 272.083 435.812 272.065 435.825 272.052C435.832 272.045 435.837 272.04 435.841 272.036C435.843 272.033 435.845 272.031 435.846 272.03C435.847 272.029 435.848 272.028 435.848 272.028C435.849 272.027 435.849 272.027 435.849 272.027C435.85 272.026 435.85 272.026 435.481 271.689C435.111 271.352 435.111 271.352 435.112 271.351C435.112 271.351 435.112 271.351 435.112 271.351C435.113 271.351 435.113 271.35 435.113 271.35C435.113 271.35 435.113 271.35 435.113 271.35C435.113 271.35 435.111 271.352 435.109 271.355C435.103 271.36 435.093 271.37 435.078 271.385C435.048 271.414 434.998 271.46 434.925 271.522C434.781 271.644 434.546 271.827 434.202 272.05C433.514 272.497 432.388 273.108 430.667 273.728C427.224 274.97 421.4 276.249 411.948 276.331L411.952 276.831ZM454.91 319.582V319.082C439.314 319.082 426.713 307.051 426.713 292.262H426.213H425.713C425.713 307.649 438.809 320.082 454.91 320.082V319.582ZM426.213 292.262H426.713C426.713 277.473 439.314 265.442 454.91 265.442V264.942V264.442C438.809 264.442 425.713 276.875 425.713 292.262H426.213ZM454.91 264.942V265.442C469.373 265.442 481.264 275.791 482.912 289.089L483.408 289.028L483.904 288.966C482.191 275.136 469.845 264.442 454.91 264.442V264.942ZM353.958 145.35H353.458C353.458 147.558 351.653 149.692 348.427 151.304C345.231 152.901 340.781 153.903 335.838 153.903V154.403V154.903C340.902 154.903 345.512 153.878 348.874 152.198C352.206 150.534 354.458 148.141 354.458 145.35H353.958ZM335.838 154.403V153.903C330.895 153.903 326.444 152.901 323.248 151.304C320.022 149.692 318.218 147.558 318.218 145.35H317.718H317.218C317.218 148.141 319.469 150.534 322.801 152.198C326.164 153.878 330.773 154.903 335.838 154.903V154.403ZM317.718 145.35H318.218C318.218 143.141 320.022 141.007 323.248 139.395C326.444 137.799 330.895 136.796 335.838 136.796V136.296V135.796C330.773 135.796 326.164 136.821 322.801 138.501C319.469 140.166 317.218 142.558 317.218 145.35H317.718ZM335.838 136.296V136.796C340.781 136.796 345.231 137.799 348.427 139.395C351.653 141.007 353.458 143.141 353.458 145.35H353.958H354.458C354.458 142.558 352.206 140.166 348.874 138.501C345.512 136.821 340.902 135.796 335.838 135.796V136.296ZM414.359 106.119H413.859C413.859 108.328 412.054 110.462 408.828 112.074C405.632 113.671 401.182 114.673 396.238 114.673V115.173V115.673C401.303 115.673 405.913 114.648 409.275 112.968C412.607 111.303 414.859 108.911 414.859 106.119H414.359ZM396.238 115.173V114.673C391.295 114.673 386.845 113.671 383.649 112.074C380.423 110.462 378.618 108.328 378.618 106.119H378.118H377.618C377.618 108.911 379.87 111.303 383.202 112.968C386.564 114.648 391.174 115.673 396.238 115.673V115.173ZM378.118 106.119H378.618C378.618 103.911 380.423 101.777 383.649 100.165C386.845 98.5684 391.295 97.5664 396.238 97.5664V97.0664V96.5664C391.174 96.5664 386.564 97.5909 383.202 99.2707C379.87 100.935 377.618 103.328 377.618 106.119H378.118ZM396.238 97.0664V97.5664C401.182 97.5664 405.632 98.5684 408.828 100.165C412.054 101.777 413.859 103.911 413.859 106.119H414.359H414.859C414.859 103.328 412.607 100.935 409.275 99.2707C405.913 97.5909 401.303 96.5664 396.238 96.5664V97.0664ZM414.359 181.562H413.859C413.859 183.77 412.054 185.904 408.828 187.516C405.632 189.113 401.182 190.115 396.238 190.115V190.615V191.115C401.303 191.115 405.913 190.091 409.275 188.411C412.607 186.746 414.859 184.354 414.859 181.562H414.359ZM396.238 190.615V190.115C391.295 190.115 386.845 189.113 383.649 187.516C380.423 185.904 378.618 183.77 378.618 181.562H378.118H377.618C377.618 184.354 379.87 186.746 383.202 188.411C386.564 190.091 391.174 191.115 396.238 191.115V190.615ZM378.118 181.562H378.618C378.618 179.354 380.423 177.22 383.649 175.608C386.845 174.011 391.295 173.009 396.238 173.009V172.509V172.009C391.174 172.009 386.564 173.033 383.202 174.713C379.87 176.378 377.618 178.77 377.618 181.562H378.118ZM396.238 172.509V173.009C401.182 173.009 405.632 174.011 408.828 175.608C412.054 177.22 413.859 179.354 413.859 181.562H414.359H414.859C414.859 178.77 412.607 176.378 409.275 174.713C405.913 173.033 401.303 172.009 396.238 172.009V172.509ZM474.76 145.35H474.26C474.26 147.558 472.455 149.692 469.229 151.304C466.033 152.901 461.582 153.903 456.639 153.903V154.403V154.903C461.704 154.903 466.314 153.878 469.676 152.198C473.008 150.534 475.26 148.141 475.26 145.35H474.76ZM456.639 154.403V153.903C451.696 153.903 447.246 152.901 444.05 151.304C440.824 149.692 439.019 147.558 439.019 145.35H438.519H438.019C438.019 148.141 440.271 150.534 443.603 152.198C446.965 153.878 451.575 154.903 456.639 154.903V154.403ZM438.519 145.35H439.019C439.019 143.141 440.824 141.007 444.05 139.395C447.246 137.799 451.696 136.796 456.639 136.796V136.296V135.796C451.575 135.796 446.965 136.821 443.603 138.501C440.271 140.166 438.019 142.558 438.019 145.35H438.519ZM456.639 136.296V136.796C461.582 136.796 466.033 137.799 469.229 139.395C472.455 141.007 474.26 143.141 474.26 145.35H474.76H475.26C475.26 142.558 473.008 140.166 469.676 138.501C466.314 136.821 461.704 135.796 456.639 135.796V136.296ZM203.477 149.07C202.979 149.023 202.979 149.023 202.979 149.022C202.979 149.022 202.979 149.022 202.979 149.022C202.98 149.021 202.98 149.021 202.98 149.021C202.98 149.02 202.98 149.02 202.98 149.021C202.98 149.021 202.979 149.023 202.979 149.027C202.978 149.035 202.976 149.048 202.973 149.067C202.967 149.106 202.956 149.167 202.937 149.247C202.899 149.408 202.83 149.646 202.708 149.935C202.464 150.513 202.004 151.299 201.144 152.093C199.43 153.674 196.057 155.342 189.434 155.326L189.433 155.826L189.432 156.326C196.218 156.342 199.867 154.632 201.823 152.828C202.798 151.928 203.335 151.019 203.629 150.325C203.776 149.978 203.861 149.686 203.91 149.476C203.935 149.371 203.951 149.286 203.961 149.225C203.965 149.194 203.969 149.17 203.971 149.152C203.972 149.143 203.973 149.135 203.974 149.129C203.974 149.126 203.974 149.124 203.975 149.122C203.975 149.121 203.975 149.12 203.975 149.119C203.975 149.118 203.975 149.118 203.975 149.118C203.975 149.117 203.975 149.117 203.477 149.07ZM189.433 155.826L189.434 155.326C182.81 155.311 179.463 153.643 177.775 152.07C176.928 151.282 176.482 150.502 176.247 149.931C176.13 149.645 176.065 149.41 176.03 149.251C176.012 149.172 176.002 149.111 175.996 149.074C175.994 149.055 175.992 149.041 175.991 149.034C175.991 149.03 175.991 149.028 175.991 149.028C175.99 149.027 175.99 149.027 175.991 149.028C175.991 149.028 175.991 149.028 175.991 149.029C175.991 149.029 175.991 149.03 175.991 149.03C175.991 149.03 175.991 149.031 175.492 149.07C174.994 149.109 174.994 149.11 174.994 149.11C174.994 149.111 174.994 149.111 174.994 149.112C174.994 149.112 174.994 149.113 174.994 149.114C174.994 149.117 174.995 149.119 174.995 149.122C174.996 149.128 174.996 149.135 174.997 149.144C174.999 149.163 175.002 149.187 175.007 149.217C175.016 149.278 175.03 149.362 175.053 149.467C175.099 149.676 175.181 149.967 175.322 150.311C175.606 151.002 176.131 151.905 177.093 152.802C179.023 154.6 182.646 156.31 189.432 156.326L189.433 155.826ZM175.492 149.07L175.992 149.044C175.565 140.893 175.231 134.528 174.896 128.163C174.562 121.798 174.228 115.433 173.801 107.283L173.302 107.309L172.803 107.335C173.229 115.486 173.564 121.851 173.898 128.216C174.232 134.581 174.567 140.946 174.993 149.096L175.492 149.07ZM205.2 106.354L204.7 106.334L202.978 149.05L203.477 149.07L203.977 149.09L205.699 106.374L205.2 106.354ZM133.616 54.8186H134.116C134.116 25.0958 158.23 1 187.976 1V0.5V0C157.678 0 133.116 24.5427 133.116 54.8186H133.616ZM187.976 0.5V1C217.723 1 241.837 25.0958 241.837 54.8186H242.337H242.837C242.837 24.5427 218.275 0 187.976 0V0.5ZM176.672 107.961L176.756 107.468C175.725 107.292 174.888 107.13 174.309 107.012C174.02 106.953 173.795 106.905 173.643 106.872C173.567 106.856 173.509 106.843 173.471 106.834C173.451 106.83 173.437 106.827 173.427 106.825C173.423 106.823 173.419 106.823 173.417 106.822C173.416 106.822 173.415 106.822 173.414 106.822C173.414 106.822 173.414 106.821 173.414 106.821C173.414 106.821 173.414 106.821 173.414 106.821C173.414 106.821 173.414 106.821 173.414 106.821C173.414 106.821 173.414 106.821 173.302 107.309C173.19 107.796 173.19 107.796 173.19 107.796C173.19 107.796 173.191 107.796 173.191 107.796C173.191 107.796 173.191 107.796 173.191 107.796C173.191 107.796 173.191 107.796 173.192 107.797C173.192 107.797 173.193 107.797 173.195 107.797C173.198 107.798 173.202 107.799 173.207 107.8C173.217 107.802 173.233 107.806 173.253 107.81C173.293 107.819 173.353 107.833 173.431 107.849C173.587 107.883 173.816 107.932 174.11 107.992C174.697 108.111 175.545 108.275 176.587 108.454L176.672 107.961ZM176.672 107.961L176.775 107.472C152.404 102.321 134.116 80.7032 134.116 54.8186H133.616H133.116C133.116 81.186 151.745 103.204 176.568 108.45L176.672 107.961ZM176.672 107.961L176.587 108.454C179.439 108.943 183.761 109.543 188.214 109.636L188.225 109.137L188.235 108.637C183.851 108.544 179.582 107.953 176.756 107.468L176.672 107.961ZM188.225 109.137L188.227 109.637C194.211 109.61 199.97 108.626 205.358 106.829L205.2 106.354L205.041 105.88C199.753 107.644 194.099 108.61 188.222 108.637L188.225 109.137ZM238.073 75.9426L238.534 76.1373C241.305 69.5834 242.837 62.3791 242.837 54.8186H242.337H241.837C241.837 62.2429 240.333 69.3149 237.613 75.7478L238.073 75.9426ZM209.298 104.8L209.107 104.338L209.105 104.339L209.296 104.801L209.486 105.263L209.488 105.262L209.298 104.8ZM205.2 106.354L205.358 106.829C206.762 106.36 208.141 105.837 209.492 105.261L209.296 104.801L209.099 104.341C207.773 104.906 206.42 105.42 205.041 105.88L205.2 106.354ZM209.298 104.8L209.494 105.26C222.551 99.6913 233.007 89.209 238.534 76.1373L238.073 75.9426L237.613 75.7478C232.187 88.5807 221.921 98.873 209.101 104.34L209.298 104.8ZM242.337 54.8186H241.837C241.837 77.0484 228.349 96.1317 209.101 104.34L209.298 104.8L209.494 105.26C229.096 96.9001 242.837 77.4635 242.837 54.8186H242.337ZM209.296 104.801L209.099 104.341C202.685 107.076 195.631 108.604 188.222 108.637L188.225 109.137L188.227 109.637C195.771 109.603 202.957 108.047 209.492 105.261L209.296 104.801ZM160.835 300.874L161.334 300.911L161.871 293.82L161.373 293.782L160.874 293.744L160.336 300.836L160.835 300.874ZM161.373 293.782L161.573 293.324C159.213 292.292 156.735 291.171 154.159 289.958L153.946 290.41L153.733 290.862C156.317 292.079 158.804 293.204 161.172 294.24L161.373 293.782ZM153.946 290.41L154.14 289.949C151.958 289.028 149.209 287.718 145.799 285.857L145.559 286.296L145.32 286.735C148.755 288.609 151.533 289.934 153.751 290.871L153.946 290.41ZM145.559 286.296L145.787 285.851C139.095 282.427 133.051 278.666 127.833 275.045L127.548 275.455L127.263 275.866C132.51 279.509 138.594 283.294 145.332 286.741L145.559 286.296ZM127.548 275.455L127.284 275.031C125.906 275.889 115.112 282.782 107.727 292.75L108.129 293.047L108.53 293.345C115.798 283.536 126.456 276.725 127.812 275.88L127.548 275.455ZM127.548 275.455L127.812 275.88C127.859 275.851 127.895 275.829 127.918 275.814C127.93 275.807 127.939 275.802 127.944 275.798C127.947 275.797 127.949 275.795 127.951 275.794C127.951 275.794 127.952 275.794 127.952 275.794C127.952 275.794 127.952 275.793 127.953 275.793C127.953 275.793 127.953 275.793 127.953 275.793C127.953 275.793 127.953 275.793 127.953 275.793C127.953 275.793 127.953 275.793 127.953 275.793C127.953 275.793 127.953 275.793 127.953 275.793C127.953 275.793 127.952 275.793 127.693 275.366C127.434 274.938 127.434 274.938 127.434 274.938C127.434 274.938 127.434 274.938 127.434 274.938C127.434 274.938 127.434 274.938 127.434 274.938C127.434 274.938 127.434 274.938 127.434 274.938C127.434 274.938 127.434 274.938 127.434 274.938C127.434 274.938 127.434 274.939 127.433 274.939C127.433 274.939 127.432 274.939 127.431 274.94C127.43 274.941 127.427 274.943 127.424 274.945C127.417 274.949 127.408 274.955 127.395 274.962C127.37 274.978 127.332 275.001 127.284 275.031L127.548 275.455ZM106.718 258.314C106.358 258.661 106.358 258.661 106.359 258.661C106.359 258.661 106.359 258.661 106.359 258.661C106.359 258.662 106.36 258.662 106.36 258.663C106.361 258.664 106.363 258.665 106.365 258.668C106.369 258.672 106.375 258.678 106.383 258.686C106.399 258.702 106.422 258.726 106.453 258.758C106.515 258.82 106.606 258.913 106.728 259.034C106.97 259.277 107.33 259.632 107.802 260.086C108.747 260.994 110.14 262.298 111.939 263.883C115.537 267.054 120.759 271.352 127.263 275.866L127.548 275.455L127.833 275.045C121.367 270.556 116.175 266.283 112.6 263.133C110.813 261.558 109.43 260.265 108.495 259.366C108.028 258.916 107.673 258.565 107.435 258.327C107.316 258.208 107.226 258.117 107.166 258.057C107.136 258.026 107.114 258.003 107.099 257.988C107.092 257.981 107.086 257.975 107.083 257.971C107.081 257.97 107.08 257.968 107.079 257.967C107.078 257.967 107.078 257.967 107.078 257.966C107.078 257.966 107.078 257.966 107.078 257.966C107.078 257.966 107.078 257.966 106.718 258.314ZM145.559 286.296L145.332 286.741C145.415 286.784 145.498 286.827 145.582 286.869L145.809 286.424L146.036 285.978C145.953 285.936 145.87 285.893 145.787 285.851L145.559 286.296ZM145.809 286.424L145.582 286.869C148.386 288.297 151.11 289.627 153.733 290.862L153.946 290.41L154.159 289.958C151.545 288.727 148.83 287.401 146.036 285.978L145.809 286.424ZM161.373 293.782L161.172 294.24C168.876 297.609 175.334 300.036 179.869 301.621C182.136 302.413 183.922 302.995 185.143 303.379C185.753 303.571 186.222 303.714 186.539 303.809C186.697 303.856 186.817 303.892 186.899 303.915C186.939 303.927 186.97 303.936 186.99 303.942C187.001 303.945 187.009 303.947 187.014 303.949C187.017 303.949 187.019 303.95 187.02 303.95C187.021 303.951 187.021 303.951 187.022 303.951C187.022 303.951 187.022 303.951 187.022 303.951C187.022 303.951 187.022 303.951 187.159 303.47C187.296 302.989 187.296 302.989 187.296 302.989C187.296 302.989 187.296 302.989 187.296 302.989C187.295 302.989 187.295 302.989 187.295 302.989C187.293 302.989 187.292 302.988 187.289 302.987C187.284 302.986 187.277 302.984 187.267 302.981C187.248 302.975 187.218 302.967 187.179 302.955C187.1 302.932 186.981 302.897 186.825 302.851C186.513 302.757 186.049 302.616 185.443 302.425C184.232 302.044 182.455 301.465 180.199 300.677C175.685 299.099 169.25 296.682 161.573 293.324L161.373 293.782ZM161.4 293.423L160.901 293.385L160.874 293.744L161.373 293.782L161.871 293.82L161.898 293.461L161.4 293.423ZM467.812 316.669L468.311 316.695L469.306 297.707L468.807 297.681L468.307 297.654L467.313 316.643L467.812 316.669ZM467.812 316.669L467.596 316.218C463.783 318.049 459.475 319.082 454.91 319.082V319.582V320.082C459.627 320.082 464.083 319.014 468.029 317.12L467.812 316.669ZM20.9526 272.093L21.4115 272.291C21.7806 271.438 21.9419 270.287 21.971 268.97C22.0003 267.643 21.8956 266.102 21.7018 264.442C21.3143 261.122 20.5646 257.281 19.7824 253.643L19.2936 253.748L18.8048 253.853C19.5857 257.485 20.3268 261.287 20.7086 264.558C20.8995 266.193 20.9991 267.684 20.9712 268.948C20.9431 270.221 20.7858 271.219 20.4937 271.894L20.9526 272.093ZM19.2936 253.748L19.7768 253.62C19.6849 253.274 19.6098 253.002 19.5575 252.815C19.5313 252.722 19.5108 252.65 19.4969 252.601C19.4899 252.577 19.4845 252.558 19.4809 252.546C19.479 252.539 19.4776 252.535 19.4767 252.531C19.4762 252.53 19.4758 252.528 19.4756 252.527C19.4754 252.527 19.4753 252.527 19.4753 252.526C19.4752 252.526 19.4752 252.526 19.4752 252.526C19.4752 252.526 19.4752 252.526 19.4752 252.526C19.4752 252.526 19.4752 252.526 19.4752 252.526C19.4751 252.526 19.4751 252.526 18.9953 252.667C18.5155 252.807 18.5155 252.807 18.5155 252.807C18.5155 252.807 18.5155 252.807 18.5155 252.807C18.5155 252.807 18.5155 252.807 18.5155 252.807C18.5155 252.807 18.5155 252.807 18.5155 252.807C18.5156 252.807 18.5156 252.808 18.5157 252.808C18.5159 252.809 18.5162 252.81 18.5166 252.811C18.5175 252.814 18.5187 252.818 18.5204 252.824C18.5238 252.836 18.5289 252.853 18.5356 252.877C18.5491 252.924 18.569 252.994 18.5946 253.085C18.6458 253.268 18.7197 253.536 18.8104 253.877L19.2936 253.748ZM0.5 284.276C0.668296 284.747 0.6683 284.747 0.668306 284.747C0.668308 284.747 0.668313 284.747 0.668318 284.747C0.668326 284.747 0.668337 284.747 0.668348 284.747C0.668372 284.747 0.668401 284.747 0.668437 284.747C0.668508 284.747 0.668602 284.747 0.66872 284.747C0.668957 284.747 0.669288 284.747 0.669713 284.747C0.670564 284.746 0.671791 284.746 0.673393 284.745C0.676596 284.744 0.681294 284.743 0.687462 284.74C0.699799 284.736 0.718015 284.729 0.741906 284.721C0.789687 284.703 0.860168 284.678 0.951709 284.644L0.77864 284.175L0.605571 283.706C0.515726 283.739 0.446888 283.764 0.400695 283.781C0.377599 283.789 0.360165 283.795 0.348598 283.8C0.342814 283.802 0.338498 283.803 0.335674 283.804C0.334262 283.805 0.333223 283.805 0.33256 283.805C0.332229 283.805 0.331991 283.806 0.331849 283.806C0.331777 283.806 0.33173 283.806 0.331706 283.806C0.331693 283.806 0.331687 283.806 0.331687 283.806C0.331687 283.806 0.331688 283.806 0.331691 283.806C0.331693 283.806 0.331696 283.806 0.331697 283.806C0.3317 283.806 0.331704 283.806 0.5 284.276ZM0.77864 284.175L0.813156 283.676C0.758003 283.672 0.715756 283.669 0.687126 283.667C0.67281 283.667 0.661899 283.666 0.654481 283.665C0.650771 283.665 0.647935 283.665 0.645983 283.665C0.645007 283.665 0.644252 283.665 0.643719 283.665C0.643453 283.665 0.643243 283.665 0.643088 283.665C0.64301 283.665 0.642947 283.665 0.642897 283.665C0.642872 283.665 0.642851 283.665 0.642833 283.665C0.642825 283.665 0.642817 283.665 0.642809 283.665C0.642806 283.665 0.642801 283.665 0.642799 283.665C0.642795 283.665 0.642791 283.665 0.612627 284.164C0.582464 284.663 0.58246 284.663 0.582456 284.663C0.582456 284.663 0.582452 284.663 0.58245 284.663C0.582447 284.663 0.582444 284.663 0.582442 284.663C0.582438 284.663 0.582438 284.663 0.582441 284.663C0.582447 284.663 0.582468 284.663 0.582502 284.663C0.58257 284.663 0.582694 284.663 0.582874 284.663C0.583233 284.663 0.583813 284.663 0.584615 284.663C0.586217 284.663 0.588702 284.663 0.592058 284.663C0.598769 284.664 0.608965 284.664 0.622555 284.665C0.649736 284.667 0.690495 284.67 0.744124 284.674L0.77864 284.175ZM21.1854 271.975L20.7536 271.723C19.9701 273.064 18.4844 274.443 16.6057 275.779C14.7368 277.108 12.5229 278.364 10.3324 279.473C5.95215 281.691 1.70872 283.299 0.605567 283.706L0.77864 284.175L0.951714 284.644C2.06956 284.231 6.35397 282.608 10.7841 280.365C12.9988 279.244 15.2607 277.962 17.1852 276.594C19.0998 275.232 20.7252 273.754 21.6171 272.227L21.1854 271.975ZM0.77864 284.175L0.744154 284.674C1.75398 284.743 7.24591 285.165 12.5956 286.405C15.2735 287.025 17.8849 287.843 19.8751 288.907C21.8885 289.984 23.1316 291.24 23.3357 292.675L23.8307 292.604L24.3257 292.534C24.051 290.603 22.4274 289.138 20.3467 288.026C18.2426 286.9 15.5323 286.058 12.8212 285.43C7.39277 284.173 1.83747 283.747 0.813126 283.676L0.77864 284.175ZM19.2936 253.748L18.8104 253.877C19.2376 255.484 20.0317 258.694 20.5565 262.158C21.0843 265.642 21.3267 269.305 20.6998 271.856L21.1854 271.975L21.6709 272.094C22.3486 269.337 22.0747 265.503 21.5452 262.008C21.0127 258.494 20.2086 255.244 19.7768 253.62L19.2936 253.748ZM16.7125 241.702L16.2182 241.777C16.5937 244.239 17.741 248.906 18.8048 253.853L19.2936 253.748L19.7824 253.643C18.7056 248.635 17.5764 244.05 17.2067 241.626L16.7125 241.702ZM586.097 284.025L585.932 284.497C586.11 284.559 586.234 284.602 586.296 284.623L586.456 284.149L586.617 283.675C586.557 283.655 586.437 283.614 586.261 283.553L586.097 284.025ZM586.456 284.149L586.893 283.905L568.434 250.829L567.997 251.073L567.561 251.316L586.02 284.393L586.456 284.149ZM567.997 251.073L567.51 250.959C566.166 256.697 564.905 263.336 565.017 268.081L565.517 268.069L566.017 268.057C565.908 263.454 567.139 256.927 568.484 251.187L567.997 251.073ZM565.517 268.069L565.018 268.091C565.082 269.584 565.278 270.986 565.668 272.171L566.143 272.015L566.618 271.859C566.267 270.792 566.079 269.49 566.017 268.047L565.517 268.069ZM566.143 272.015L565.655 272.121C565.662 272.156 565.671 272.191 565.679 272.226L566.164 272.103L566.649 271.981C566.643 271.956 566.637 271.932 566.632 271.909L566.143 272.015ZM566.164 272.103L565.699 272.287C566.364 273.977 568.09 275.587 570.173 277.032L570.458 276.621L570.743 276.21C568.684 274.782 567.179 273.315 566.629 271.92L566.164 272.103ZM570.458 276.621L570.18 277.037C575.546 280.615 584.081 283.821 585.925 284.495L586.097 284.025L586.268 283.556C584.413 282.878 575.988 279.708 570.735 276.205L570.458 276.621ZM586.461 284.157L586.897 283.913L586.893 283.905L586.456 284.149L586.02 284.393L586.024 284.4L586.461 284.157ZM567.997 251.073L568.434 250.829L568.387 250.745L567.951 250.989L567.514 251.233L567.561 251.316L567.997 251.073ZM566.16 272.093L566.626 271.911C566.249 270.946 566.054 269.635 566.017 268.057L565.517 268.069L565.017 268.081C565.056 269.708 565.256 271.153 565.694 272.275L566.16 272.093ZM566.164 272.103L565.679 272.226C565.896 273.081 566.478 273.912 567.251 274.699C568.03 275.492 569.042 276.278 570.18 277.037L570.458 276.621L570.735 276.205C569.628 275.467 568.678 274.724 567.964 273.998C567.245 273.265 566.802 272.586 566.649 271.981L566.164 272.103ZM586.097 284.025L585.925 284.495C586.044 284.538 586.136 284.571 586.198 284.594C586.229 284.605 586.253 284.613 586.269 284.619C586.277 284.622 586.283 284.624 586.287 284.626C586.289 284.626 586.291 284.627 586.292 284.627C586.292 284.628 586.293 284.628 586.293 284.628C586.293 284.628 586.294 284.628 586.294 284.628C586.294 284.628 586.294 284.628 586.294 284.628C586.294 284.628 586.294 284.628 586.294 284.628C586.294 284.628 586.294 284.628 586.294 284.628C586.294 284.628 586.294 284.628 586.461 284.157C586.627 283.685 586.627 283.685 586.627 283.685C586.627 283.685 586.627 283.685 586.627 283.685C586.627 283.685 586.627 283.685 586.627 283.685C586.627 283.685 586.627 283.685 586.627 283.685C586.627 283.685 586.627 283.685 586.627 283.685C586.627 283.685 586.627 283.685 586.626 283.685C586.625 283.685 586.624 283.684 586.622 283.683C586.618 283.682 586.612 283.68 586.605 283.677C586.59 283.672 586.567 283.664 586.536 283.653C586.475 283.631 586.385 283.598 586.268 283.556L586.097 284.025ZM567.951 250.989C567.469 250.856 567.469 250.856 567.469 250.856C567.469 250.856 567.468 250.856 567.468 250.856C567.468 250.857 567.468 250.857 567.468 250.858C567.468 250.859 567.467 250.861 567.466 250.864C567.465 250.869 567.463 250.876 567.46 250.886C567.455 250.906 567.447 250.934 567.437 250.972C567.417 251.048 567.387 251.159 567.349 251.303C567.274 251.591 567.168 252.009 567.041 252.533C566.787 253.581 566.452 255.053 566.126 256.75C565.477 260.136 564.86 264.452 565.018 268.091L565.517 268.069L566.017 268.047C565.864 264.528 566.463 260.304 567.109 256.939C567.43 255.261 567.762 253.805 568.013 252.769C568.138 252.251 568.243 251.838 568.317 251.555C568.354 251.414 568.383 251.305 568.403 251.232C568.412 251.195 568.42 251.168 568.425 251.149C568.428 251.14 568.429 251.133 568.431 251.129C568.431 251.126 568.432 251.125 568.432 251.124C568.432 251.123 568.432 251.123 568.432 251.122C568.432 251.122 568.432 251.122 568.432 251.122C568.432 251.122 568.432 251.122 567.951 250.989ZM586.5 284.164C586.659 283.69 586.659 283.69 586.659 283.69C586.659 283.69 586.659 283.69 586.659 283.69C586.659 283.69 586.659 283.69 586.659 283.69C586.659 283.69 586.659 283.69 586.659 283.69C586.659 283.69 586.659 283.69 586.659 283.69C586.659 283.69 586.659 283.69 586.659 283.69C586.659 283.69 586.658 283.69 586.658 283.689C586.658 283.689 586.657 283.689 586.656 283.689C586.655 283.688 586.652 283.687 586.648 283.686C586.641 283.684 586.631 283.68 586.617 283.675L586.456 284.149L586.296 284.623C586.311 284.628 586.322 284.631 586.329 284.634C586.333 284.635 586.336 284.636 586.338 284.637C586.339 284.637 586.34 284.637 586.34 284.638C586.341 284.638 586.341 284.638 586.341 284.638C586.341 284.638 586.341 284.638 586.341 284.638C586.341 284.638 586.341 284.638 586.341 284.638C586.341 284.638 586.341 284.638 586.341 284.638C586.341 284.638 586.341 284.638 586.341 284.638C586.341 284.638 586.341 284.638 586.341 284.638C586.341 284.638 586.341 284.638 586.5 284.164ZM586.097 284.025L586.261 283.553C584.332 282.881 576.021 279.872 570.743 276.21L570.458 276.621L570.173 277.032C575.578 280.781 584.013 283.828 585.932 284.497L586.097 284.025ZM566.164 272.103L566.629 271.92C566.628 271.917 566.628 271.916 566.626 271.911L566.16 272.093L565.694 272.275C565.695 272.277 565.697 272.282 565.699 272.287L566.164 272.103ZM127.732 275.39L127.463 275.812C130.862 277.982 133.712 279.834 136.388 281.51L136.653 281.086L136.918 280.662C134.247 278.989 131.411 277.145 128.001 274.969L127.732 275.39ZM136.653 281.086L136.393 281.513C138.919 283.053 141.531 284.616 143.574 285.767L143.82 285.331L144.065 284.896C142.038 283.753 139.437 282.198 136.913 280.659L136.653 281.086ZM143.82 285.331L143.575 285.767C143.576 285.768 143.577 285.768 143.579 285.77C143.581 285.771 143.584 285.772 143.587 285.774L143.832 285.338L144.077 284.902C144.076 284.902 144.075 284.901 144.073 284.9C144.071 284.899 144.068 284.897 144.065 284.895L143.82 285.331ZM143.832 285.338L143.591 285.776C147.206 287.766 151.159 289.688 156.386 291.903L156.581 291.443L156.776 290.982C151.575 288.779 147.654 286.871 144.073 284.9L143.832 285.338ZM156.581 291.443L156.413 291.913C158.175 292.544 159.406 292.849 160.206 292.997C160.606 293.07 160.899 293.105 161.097 293.12C161.196 293.128 161.272 293.131 161.325 293.132C161.352 293.133 161.373 293.133 161.389 293.133C161.397 293.133 161.404 293.133 161.409 293.133C161.412 293.132 161.414 293.132 161.416 293.132C161.417 293.132 161.418 293.132 161.419 293.132C161.419 293.132 161.419 293.132 161.42 293.132C161.42 293.132 161.42 293.132 161.42 293.132C161.421 293.132 161.421 293.132 161.4 292.633C161.379 292.133 161.379 292.133 161.38 292.133C161.38 292.133 161.38 292.133 161.38 292.133C161.38 292.133 161.381 292.133 161.381 292.133C161.381 292.133 161.382 292.133 161.382 292.133C161.383 292.133 161.383 292.133 161.383 292.133C161.383 292.133 161.382 292.133 161.379 292.133C161.374 292.133 161.363 292.133 161.346 292.133C161.313 292.132 161.257 292.13 161.176 292.123C161.015 292.111 160.756 292.081 160.387 292.013C159.648 291.877 158.47 291.587 156.749 290.972L156.581 291.443ZM149.198 261.249L148.951 260.814C139.552 266.15 128.654 274.094 127.436 274.987L127.732 275.39L128.027 275.794C129.246 274.9 140.102 266.988 149.445 261.684L149.198 261.249ZM156.581 291.443L156.749 290.972C155.988 290.7 155.122 290.364 154.14 289.949L153.946 290.41L153.751 290.871C154.749 291.292 155.633 291.635 156.413 291.913L156.581 291.443ZM136.653 281.086L136.913 280.659C134.587 279.241 132.331 277.839 130.655 276.791C129.817 276.267 129.125 275.832 128.642 275.528C128.401 275.376 128.212 275.256 128.083 275.175C128.019 275.134 127.97 275.103 127.937 275.082C127.92 275.072 127.908 275.064 127.899 275.059C127.895 275.056 127.892 275.054 127.89 275.053C127.889 275.052 127.888 275.052 127.888 275.051C127.887 275.051 127.887 275.051 127.887 275.051C127.887 275.051 127.887 275.051 127.887 275.051C127.887 275.051 127.887 275.051 127.619 275.473C127.352 275.895 127.352 275.895 127.352 275.895C127.352 275.895 127.352 275.896 127.352 275.896C127.352 275.896 127.352 275.896 127.352 275.896C127.353 275.896 127.354 275.897 127.355 275.897C127.357 275.899 127.36 275.901 127.364 275.904C127.373 275.909 127.385 275.917 127.402 275.927C127.435 275.948 127.485 275.98 127.549 276.02C127.678 276.102 127.868 276.221 128.109 276.374C128.593 276.678 129.286 277.114 130.125 277.639C131.802 278.688 134.062 280.092 136.393 281.513L136.653 281.086ZM145.559 286.296L145.799 285.857C145.243 285.554 144.669 285.236 144.077 284.903L143.832 285.338L143.587 285.774C144.182 286.109 144.76 286.43 145.32 286.735L145.559 286.296ZM127.619 275.473C127.916 275.875 127.916 275.875 127.916 275.875C127.916 275.875 127.916 275.875 127.916 275.875C127.916 275.875 127.916 275.875 127.916 275.875C127.916 275.875 127.916 275.875 127.916 275.875C127.916 275.875 127.916 275.875 127.916 275.875C127.916 275.875 127.916 275.875 127.916 275.875C127.917 275.875 127.917 275.875 127.918 275.874C127.919 275.873 127.92 275.872 127.923 275.87C127.927 275.867 127.934 275.862 127.944 275.855C127.963 275.841 127.99 275.821 128.027 275.794L127.732 275.39L127.436 274.987C127.399 275.014 127.371 275.035 127.351 275.049C127.342 275.056 127.335 275.062 127.33 275.065C127.327 275.067 127.326 275.068 127.324 275.069C127.324 275.07 127.323 275.07 127.323 275.07C127.323 275.07 127.323 275.07 127.323 275.07C127.323 275.071 127.323 275.071 127.323 275.071C127.322 275.071 127.322 275.071 127.322 275.071C127.322 275.071 127.322 275.071 127.322 275.071C127.322 275.071 127.322 275.071 127.322 275.071C127.322 275.071 127.322 275.071 127.619 275.473ZM127.693 275.366L127.424 275.787C127.438 275.796 127.449 275.803 127.463 275.812L127.732 275.39L128.001 274.969C127.989 274.961 127.975 274.952 127.962 274.944L127.693 275.366ZM136.653 281.086L136.388 281.51C138.826 283.036 141.129 284.421 143.591 285.776L143.832 285.338L144.073 284.9C141.633 283.557 139.347 282.183 136.918 280.662L136.653 281.086ZM156.581 291.443L156.386 291.903C157.883 292.538 159.486 293.196 161.214 293.887L161.4 293.423L161.586 292.959C159.862 292.27 158.267 291.614 156.776 290.982L156.581 291.443ZM586.5 284.164L586.66 283.69L586.616 283.675L586.456 284.149L586.297 284.623L586.34 284.638L586.5 284.164ZM566.164 272.103L566.63 271.921L566.626 271.911L566.16 272.093L565.694 272.275L565.698 272.285L566.164 272.103ZM570.359 241.853L570.842 241.984L570.883 241.832L570.4 241.702L569.917 241.571L569.877 241.723L570.359 241.853ZM127.693 275.366L127.424 275.787L127.463 275.812L127.732 275.39L128.001 274.969L127.962 274.944L127.693 275.366ZM570.359 241.853L570.842 241.984C570.855 241.933 570.87 241.881 570.883 241.832L570.4 241.702L569.917 241.571C569.904 241.622 569.891 241.671 569.877 241.723L570.359 241.853ZM570.359 241.854L570.833 242.012L570.834 242.011L570.359 241.853L569.885 241.695L569.884 241.696L570.359 241.854ZM570.356 241.864L569.874 241.733L569.87 241.746L570.353 241.877L570.835 242.008L570.839 241.995L570.356 241.864ZM570.353 241.877L569.87 241.746C569.795 242.025 569.715 242.32 569.631 242.629L570.114 242.759L570.597 242.89C570.68 242.581 570.76 242.286 570.835 242.007L570.353 241.877ZM570.114 242.759L570.597 242.89C570.682 242.576 570.762 242.277 570.839 241.995L570.356 241.864L569.873 241.734C569.797 242.016 569.716 242.315 569.631 242.629L570.114 242.759ZM567.997 251.073L568.484 251.187C569.229 248.007 570.005 245.085 570.597 242.89L570.114 242.759L569.632 242.629C569.039 244.827 568.259 247.762 567.51 250.959L567.997 251.073ZM570.353 241.877L570.835 242.008C570.836 242.006 570.836 242.004 570.837 242.002C570.837 242 570.838 241.997 570.839 241.995L570.356 241.864L569.873 241.734C569.873 241.735 569.872 241.737 569.872 241.739C569.871 241.741 569.871 241.744 569.87 241.746L570.353 241.877ZM570.356 241.864L570.839 241.995C570.839 241.995 570.838 241.996 570.839 241.994C570.839 241.992 570.84 241.989 570.841 241.985L570.359 241.854L569.876 241.724C569.876 241.723 569.876 241.723 569.876 241.725C569.876 241.726 569.875 241.73 569.873 241.734L570.356 241.864Z"/>
</symbol></svg>
